M48
; DRILL file {KiCad (6.0.9)} date Fri Jul 14 01:44:06 2023
; FORMAT={-:-/ absolute / inch / decimal}
; #@! TF.CreationDate,2023-07-14T01:44:06+02:00
; #@! TF.GenerationSoftware,Kicad,Pcbnew,(6.0.9)
; #@! TF.FileFunction,Plated,1,2,PTH
FMAT,2
INCH
; #@! TA.AperFunction,Plated,PTH,ViaDrill
T1C0.0157
; #@! TA.AperFunction,Plated,PTH,ComponentDrill
T2C0.0236
; #@! TA.AperFunction,Plated,PTH,ComponentDrill
T3C0.0315
; #@! TA.AperFunction,Plated,PTH,ComponentDrill
T4C0.0394
%
G90
G05
T1
X4.7913Y-2.9724
X4.8622Y-2.6181
X4.9685Y-3.3937
X4.9685Y-3.6063
X5.0354Y-4.3307
X5.061Y-3.0728
X5.063Y-2.8661
X5.0984Y-2.5236
X5.1831Y-3.8642
X5.185Y-2.9331
X5.1969Y-3.5984
X5.2008Y-3.1339
X5.252Y-3.1339
X5.3504Y-2.4764
X5.3637Y-3.8652
X5.3637Y-4.1506
X5.3878Y-4.3307
X5.4365Y-4.0049
X5.4365Y-4.1585
X5.4488Y-3.752
X5.4961Y-2.7441
X5.5Y-2.6575
X5.5945Y-2.7244
X5.6225Y-3.9055
X5.6235Y-4.0443
X5.7343Y-3.9823
X5.7598Y-3.0433
X5.8307Y-2.5433
X5.8406Y-3.4587
X5.8858Y-3.122
X5.8937Y-3.3307
X5.9016Y-2.8307
X5.9016Y-2.8701
X5.9291Y-3.1654
X5.9291Y-3.2244
X5.9508Y-2.7421
X5.9724Y-3.4449
X6.0079Y-4.1811
X6.0551Y-3.2697
X6.0551Y-3.3307
X6.0551Y-3.5354
X6.0984Y-3.5748
X6.189Y-4.2953
X6.2244Y-3.0748
X6.5039Y-3.563
X6.7795Y-4.3228
X6.7835Y-2.7244
X6.7835Y-3.0709
X6.8622Y-3.8858
X6.9055Y-2.9409
X6.9094Y-3.8465
X6.9606Y-3.2244
X6.9803Y-4.3228
X6.9961Y-3.0748
X7.0089Y-2.6732
X7.0089Y-2.7717
X7.0089Y-2.9409
X7.0276Y-3.5984
X7.0433Y-3.1181
X7.0787Y-2.5236
X7.2717Y-4.0512
T4
X5.5795Y-2.4724
X5.6795Y-2.4724
X5.7795Y-2.4724
X5.8331Y-4.374
X5.8795Y-2.4724
X5.9331Y-4.374
X5.9795Y-2.4724
X6.0331Y-4.374
X6.0795Y-2.4724
X6.1331Y-4.374
X6.1795Y-2.4724
X6.2331Y-4.374
X6.2795Y-2.4724
X6.3331Y-4.374
X6.4299Y-2.4724
X6.4331Y-4.374
X6.5299Y-2.4724
X6.6299Y-2.4724
X6.6299Y-4.374
X6.7299Y-2.4724
X6.7299Y-4.374
X6.8299Y-2.4724
X6.8299Y-4.374
X6.9299Y-2.4724
X6.9299Y-4.374
X7.0299Y-2.4724
X7.0299Y-4.374
X7.1299Y-2.4724
X7.1299Y-4.374
T2
G00X4.7673Y-2.8063
M15
G01X4.7437Y-2.8063
M16
G05
G00X4.7673Y-3.1465
M15
G01X4.7437Y-3.1465
M16
G05
G00X4.9417Y-2.8063
M15
G01X4.8984Y-2.8063
M16
G05
G00X4.9417Y-3.1465
M15
G01X4.8984Y-3.1465
M16
G05
T3
G00X4.9547Y-3.9921
M15
G01X4.9547Y-4.0787
M16
G05
G00X5.0217Y-4.2244
M15
G01X5.1083Y-4.2244
M16
G05
G00X5.1831Y-3.9843
M15
G01X5.1831Y-4.0866
M16
G05
T0
M30
