%TF.GenerationSoftware,KiCad,Pcbnew,(6.0.9)*%
%TF.CreationDate,2023-07-14T01:44:04+02:00*%
%TF.ProjectId,Arduino_ESP,41726475-696e-46f5-9f45-53502e6b6963,rev?*%
%TF.SameCoordinates,Original*%
%TF.FileFunction,Paste,Top*%
%TF.FilePolarity,Positive*%
%FSLAX46Y46*%
G04 Gerber Fmt 4.6, Leading zero omitted, Abs format (unit mm)*
G04 Created by KiCad (PCBNEW (6.0.9)) date 2023-07-14 01:44:04*
%MOMM*%
%LPD*%
G01*
G04 APERTURE LIST*
G04 Aperture macros list*
%AMRoundRect*
0 Rectangle with rounded corners*
0 $1 Rounding radius*
0 $2 $3 $4 $5 $6 $7 $8 $9 X,Y pos of 4 corners*
0 Add a 4 corners polygon primitive as box body*
4,1,4,$2,$3,$4,$5,$6,$7,$8,$9,$2,$3,0*
0 Add four circle primitives for the rounded corners*
1,1,$1+$1,$2,$3*
1,1,$1+$1,$4,$5*
1,1,$1+$1,$6,$7*
1,1,$1+$1,$8,$9*
0 Add four rect primitives between the rounded corners*
20,1,$1+$1,$2,$3,$4,$5,0*
20,1,$1+$1,$4,$5,$6,$7,0*
20,1,$1+$1,$6,$7,$8,$9,0*
20,1,$1+$1,$8,$9,$2,$3,0*%
%AMFreePoly0*
4,1,11,1.015000,1.170000,0.435000,0.575000,0.435000,-0.575000,1.015000,-1.170000,1.015000,-1.945000,0.125000,-1.945000,-0.435000,-1.395000,-0.435000,1.395000,0.125000,1.945000,1.015000,1.945000,1.015000,1.170000,1.015000,1.170000,$1*%
%AMFreePoly1*
4,1,11,0.435000,1.395000,0.435000,-1.395000,-0.125000,-1.945000,-1.015000,-1.945000,-1.015000,-1.170000,-0.435000,-0.575000,-0.435000,0.575000,-1.015000,1.170000,-1.015000,1.945000,-0.125000,1.945000,0.435000,1.395000,0.435000,1.395000,$1*%
G04 Aperture macros list end*
%ADD10RoundRect,0.250000X-0.650000X0.325000X-0.650000X-0.325000X0.650000X-0.325000X0.650000X0.325000X0*%
%ADD11R,2.700000X1.500000*%
%ADD12RoundRect,0.150000X0.150000X-0.587500X0.150000X0.587500X-0.150000X0.587500X-0.150000X-0.587500X0*%
%ADD13RoundRect,0.200000X0.275000X-0.200000X0.275000X0.200000X-0.275000X0.200000X-0.275000X-0.200000X0*%
%ADD14RoundRect,0.200000X-0.200000X-0.275000X0.200000X-0.275000X0.200000X0.275000X-0.200000X0.275000X0*%
%ADD15RoundRect,0.200000X0.200000X0.275000X-0.200000X0.275000X-0.200000X-0.275000X0.200000X-0.275000X0*%
%ADD16R,1.550000X1.300000*%
%ADD17RoundRect,0.150000X0.587500X0.150000X-0.587500X0.150000X-0.587500X-0.150000X0.587500X-0.150000X0*%
%ADD18R,0.900000X2.000000*%
%ADD19R,1.330000X1.330000*%
%ADD20RoundRect,0.243750X0.243750X0.456250X-0.243750X0.456250X-0.243750X-0.456250X0.243750X-0.456250X0*%
%ADD21RoundRect,0.200000X-0.275000X0.200000X-0.275000X-0.200000X0.275000X-0.200000X0.275000X0.200000X0*%
%ADD22RoundRect,0.225000X-0.225000X-0.250000X0.225000X-0.250000X0.225000X0.250000X-0.225000X0.250000X0*%
%ADD23RoundRect,0.150000X0.150000X-0.725000X0.150000X0.725000X-0.150000X0.725000X-0.150000X-0.725000X0*%
%ADD24R,1.200000X1.200000*%
%ADD25FreePoly0,0.000000*%
%ADD26FreePoly1,0.000000*%
%ADD27RoundRect,0.243750X-0.243750X-0.456250X0.243750X-0.456250X0.243750X0.456250X-0.243750X0.456250X0*%
%ADD28RoundRect,0.150000X-0.512500X-0.150000X0.512500X-0.150000X0.512500X0.150000X-0.512500X0.150000X0*%
%ADD29RoundRect,0.150000X-0.150000X0.587500X-0.150000X-0.587500X0.150000X-0.587500X0.150000X0.587500X0*%
%ADD30R,1.450000X0.600000*%
%ADD31R,1.450000X0.300000*%
G04 APERTURE END LIST*
D10*
%TO.C,C5*%
X126200000Y-90025000D03*
X126200000Y-92975000D03*
%TD*%
D11*
%TO.C,D3*%
X143700000Y-94778200D03*
X143700000Y-90257000D03*
%TD*%
D12*
%TO.C,IC3*%
X147150000Y-71937500D03*
X149050000Y-71937500D03*
X148100000Y-70062500D03*
%TD*%
%TO.C,Q1*%
X175275000Y-71637500D03*
X177175000Y-71637500D03*
X176225000Y-69762500D03*
%TD*%
D13*
%TO.C,R29*%
X136237500Y-100850000D03*
X136237500Y-99200000D03*
%TD*%
D14*
%TO.C,R14*%
X127775000Y-74000000D03*
X129425000Y-74000000D03*
%TD*%
%TO.C,R4*%
X179000000Y-67900000D03*
X180650000Y-67900000D03*
%TD*%
D15*
%TO.C,R7*%
X148925000Y-75500000D03*
X147275000Y-75500000D03*
%TD*%
%TO.C,R8*%
X148925000Y-73900000D03*
X147275000Y-73900000D03*
%TD*%
D16*
%TO.C,SW1*%
X127775000Y-64050000D03*
X119825000Y-64050000D03*
X127775000Y-68550000D03*
X119825000Y-68550000D03*
%TD*%
D17*
%TO.C,Q3*%
X139937500Y-104525000D03*
X139937500Y-102625000D03*
X138062500Y-103575000D03*
%TD*%
D14*
%TO.C,R1*%
X175400000Y-73500000D03*
X177050000Y-73500000D03*
%TD*%
D18*
%TO.C,IC1*%
X179360000Y-83650000D03*
X178090000Y-83650000D03*
X176820000Y-83650000D03*
X175550000Y-83650000D03*
X174280000Y-83650000D03*
X173010000Y-83650000D03*
X171740000Y-83650000D03*
X170470000Y-83650000D03*
X169200000Y-83650000D03*
X167930000Y-83650000D03*
X166660000Y-83650000D03*
X165390000Y-83650000D03*
X164120000Y-83650000D03*
X162850000Y-83650000D03*
X161580000Y-83650000D03*
X160310000Y-83650000D03*
X159040000Y-83650000D03*
X157770000Y-83650000D03*
X156500000Y-83650000D03*
X156500000Y-100650000D03*
X157770000Y-100650000D03*
X159040000Y-100650000D03*
X160310000Y-100650000D03*
X161580000Y-100650000D03*
X162850000Y-100650000D03*
X164120000Y-100650000D03*
X165390000Y-100650000D03*
X166660000Y-100650000D03*
X167930000Y-100650000D03*
X169200000Y-100650000D03*
X170470000Y-100650000D03*
X171740000Y-100650000D03*
X173010000Y-100650000D03*
X174280000Y-100650000D03*
X175550000Y-100650000D03*
X176820000Y-100650000D03*
X178090000Y-100650000D03*
X179360000Y-100650000D03*
D19*
X173695000Y-89315000D03*
X171860000Y-89315000D03*
X170025000Y-89315000D03*
X170025000Y-91150000D03*
X170025000Y-92985000D03*
X171860000Y-92985000D03*
X173695000Y-92985000D03*
X173695000Y-91150000D03*
X171860000Y-91150000D03*
%TD*%
D13*
%TO.C,R6*%
X145700000Y-75525000D03*
X145700000Y-73875000D03*
%TD*%
D15*
%TO.C,R3*%
X177050000Y-67900000D03*
X175400000Y-67900000D03*
%TD*%
D10*
%TO.C,C7*%
X131900000Y-90225000D03*
X131900000Y-93175000D03*
%TD*%
D13*
%TO.C,R16*%
X123800000Y-94225000D03*
X123800000Y-92575000D03*
%TD*%
D14*
%TO.C,R19*%
X141400000Y-73200000D03*
X143050000Y-73200000D03*
%TD*%
%TO.C,R21*%
X141400000Y-76200000D03*
X143050000Y-76200000D03*
%TD*%
D20*
%TO.C,D1*%
X135512500Y-67500000D03*
X133637500Y-67500000D03*
%TD*%
D21*
%TO.C,R28*%
X136237500Y-102750000D03*
X136237500Y-104400000D03*
%TD*%
D22*
%TO.C,C1*%
X134725000Y-80000000D03*
X136275000Y-80000000D03*
%TD*%
D10*
%TO.C,C4*%
X146500000Y-90168000D03*
X146500000Y-93118000D03*
%TD*%
D23*
%TO.C,U1*%
X130855000Y-78075000D03*
X132125000Y-78075000D03*
X133395000Y-78075000D03*
X134665000Y-78075000D03*
X135935000Y-78075000D03*
X137205000Y-78075000D03*
X138475000Y-78075000D03*
X139745000Y-78075000D03*
X139745000Y-72925000D03*
X138475000Y-72925000D03*
X137205000Y-72925000D03*
X135935000Y-72925000D03*
X134665000Y-72925000D03*
X133395000Y-72925000D03*
X132125000Y-72925000D03*
X130855000Y-72925000D03*
%TD*%
D14*
%TO.C,R11*%
X137075000Y-69700000D03*
X138725000Y-69700000D03*
%TD*%
D17*
%TO.C,Q4*%
X139925000Y-100975000D03*
X139925000Y-99075000D03*
X138050000Y-100025000D03*
%TD*%
D12*
%TO.C,Q2*%
X178875000Y-71637500D03*
X180775000Y-71637500D03*
X179825000Y-69762500D03*
%TD*%
D10*
%TO.C,C2*%
X140800000Y-89968000D03*
X140800000Y-92918000D03*
%TD*%
D24*
%TO.C,D4*%
X140800000Y-84600000D03*
X140800000Y-87400000D03*
%TD*%
D25*
%TO.C,L1*%
X142935000Y-86943000D03*
D26*
X146465000Y-86943000D03*
%TD*%
D27*
%TO.C,D5*%
X141400000Y-81900000D03*
X143275000Y-81900000D03*
%TD*%
D24*
%TO.C,D7*%
X126200000Y-84700000D03*
X126200000Y-87500000D03*
%TD*%
D22*
%TO.C,C6*%
X122125000Y-87300000D03*
X123675000Y-87300000D03*
%TD*%
D13*
%TO.C,R25*%
X122350000Y-94225000D03*
X122350000Y-92575000D03*
%TD*%
D21*
%TO.C,R5*%
X150500000Y-73875000D03*
X150500000Y-75525000D03*
%TD*%
D14*
%TO.C,R2*%
X179000000Y-73500000D03*
X180650000Y-73500000D03*
%TD*%
%TO.C,R15*%
X127775000Y-77100000D03*
X129425000Y-77100000D03*
%TD*%
D28*
%TO.C,U3*%
X121862500Y-89050000D03*
X121862500Y-90000000D03*
X121862500Y-90950000D03*
X124137500Y-90950000D03*
X124137500Y-90000000D03*
X124137500Y-89050000D03*
%TD*%
D14*
%TO.C,R20*%
X141400000Y-74700000D03*
X143050000Y-74700000D03*
%TD*%
D15*
%TO.C,R17*%
X123725000Y-85000000D03*
X122075000Y-85000000D03*
%TD*%
%TO.C,R12*%
X138325000Y-84943000D03*
X136675000Y-84943000D03*
%TD*%
D28*
%TO.C,U2*%
X136462500Y-88993000D03*
X136462500Y-89943000D03*
X136462500Y-90893000D03*
X138737500Y-90893000D03*
X138737500Y-89943000D03*
X138737500Y-88993000D03*
%TD*%
D27*
%TO.C,D8*%
X126837500Y-81900000D03*
X128712500Y-81900000D03*
%TD*%
D15*
%TO.C,R24*%
X125300000Y-81900000D03*
X123650000Y-81900000D03*
%TD*%
D21*
%TO.C,R13*%
X136400000Y-92518000D03*
X136400000Y-94168000D03*
%TD*%
%TO.C,R18*%
X120900000Y-92575000D03*
X120900000Y-94225000D03*
%TD*%
D13*
%TO.C,R9*%
X138400000Y-94168000D03*
X138400000Y-92518000D03*
%TD*%
D29*
%TO.C,IC2*%
X149050000Y-77362500D03*
X147150000Y-77362500D03*
X148100000Y-79237500D03*
%TD*%
D14*
%TO.C,R10*%
X137075000Y-67500000D03*
X138725000Y-67500000D03*
%TD*%
D15*
%TO.C,R23*%
X139900000Y-81900000D03*
X138250000Y-81900000D03*
%TD*%
D22*
%TO.C,C3*%
X136725000Y-87243000D03*
X138275000Y-87243000D03*
%TD*%
D11*
%TO.C,D6*%
X129100000Y-94835200D03*
X129100000Y-90314000D03*
%TD*%
D14*
%TO.C,R22*%
X141400000Y-77700000D03*
X143050000Y-77700000D03*
%TD*%
D25*
%TO.C,L2*%
X128335000Y-87000000D03*
D26*
X131865000Y-87000000D03*
%TD*%
D20*
%TO.C,D2*%
X135537500Y-69700000D03*
X133662500Y-69700000D03*
%TD*%
D13*
%TO.C,R27*%
X141737500Y-100850000D03*
X141737500Y-99200000D03*
%TD*%
%TO.C,R26*%
X141750000Y-104400000D03*
X141750000Y-102750000D03*
%TD*%
D30*
%TO.C,J6*%
X125885000Y-72350000D03*
X125885000Y-73150000D03*
D31*
X125885000Y-74350000D03*
X125885000Y-75350000D03*
X125885000Y-75850000D03*
X125885000Y-76850000D03*
D30*
X125885000Y-78050000D03*
X125885000Y-78850000D03*
X125885000Y-78850000D03*
X125885000Y-78050000D03*
D31*
X125885000Y-77350000D03*
X125885000Y-76350000D03*
X125885000Y-74850000D03*
X125885000Y-73850000D03*
D30*
X125885000Y-73150000D03*
X125885000Y-72350000D03*
%TD*%
M02*
