%TF.GenerationSoftware,KiCad,Pcbnew,(6.0.9)*%
%TF.CreationDate,2023-07-14T01:44:04+02:00*%
%TF.ProjectId,Arduino_ESP,41726475-696e-46f5-9f45-53502e6b6963,rev?*%
%TF.SameCoordinates,Original*%
%TF.FileFunction,Legend,Top*%
%TF.FilePolarity,Positive*%
%FSLAX46Y46*%
G04 Gerber Fmt 4.6, Leading zero omitted, Abs format (unit mm)*
G04 Created by KiCad (PCBNEW (6.0.9)) date 2023-07-14 01:44:04*
%MOMM*%
%LPD*%
G01*
G04 APERTURE LIST*
%ADD10C,0.150000*%
%ADD11C,0.160000*%
%ADD12C,0.120000*%
%ADD13C,0.200000*%
%ADD14C,0.100000*%
G04 APERTURE END LIST*
D10*
G36*
X120500000Y-109000000D02*
G01*
X119500000Y-110300000D01*
X119500000Y-109700000D01*
X118600000Y-109700000D01*
X118600000Y-108300000D01*
X119500000Y-108300000D01*
X119500000Y-107700000D01*
X120500000Y-109000000D01*
G37*
X120500000Y-109000000D02*
X119500000Y-110300000D01*
X119500000Y-109700000D01*
X118600000Y-109700000D01*
X118600000Y-108300000D01*
X119500000Y-108300000D01*
X119500000Y-107700000D01*
X120500000Y-109000000D01*
X132600000Y-96800000D02*
X121300000Y-96800000D01*
X144110660Y-79589340D02*
X144110660Y-69689340D01*
X148500000Y-84600000D02*
G75*
G03*
X147000000Y-83100000I-1500000J0D01*
G01*
X175000000Y-66200000D02*
G75*
G03*
X173500000Y-67700000I0J-1500000D01*
G01*
X182500000Y-67700000D02*
X182500000Y-73900000D01*
X135600000Y-96800000D02*
X147000000Y-96800000D01*
X135600000Y-83100000D02*
X147000000Y-83100000D01*
X145610660Y-68189260D02*
G75*
G03*
X144110660Y-69689340I40J-1500040D01*
G01*
X175000000Y-66200000D02*
X181000000Y-66200000D01*
G36*
X129300000Y-84000000D02*
G01*
X129000000Y-84300000D01*
X129000000Y-84100000D01*
X128700000Y-84100000D01*
X128700000Y-83900000D01*
X129000000Y-83900000D01*
X129000000Y-83700000D01*
X129300000Y-84000000D01*
G37*
X129300000Y-84000000D02*
X129000000Y-84300000D01*
X129000000Y-84100000D01*
X128700000Y-84100000D01*
X128700000Y-83900000D01*
X129000000Y-83900000D01*
X129000000Y-83700000D01*
X129300000Y-84000000D01*
X181000000Y-75400000D02*
G75*
G03*
X182500000Y-73900000I0J1500000D01*
G01*
X134100000Y-84600000D02*
X134100000Y-95300000D01*
X121300000Y-83100000D02*
X132600000Y-83100000D01*
X173500000Y-73900000D02*
G75*
G03*
X175000000Y-75400000I1500000J0D01*
G01*
X152000000Y-69700000D02*
G75*
G03*
X150500000Y-68200000I-1500000J0D01*
G01*
X173500000Y-73900000D02*
X173500000Y-67700000D01*
X140800000Y-75600000D02*
X143600000Y-75600000D01*
X143600000Y-75600000D02*
X143600000Y-78300000D01*
X143600000Y-78300000D02*
X140800000Y-78300000D01*
X140800000Y-78300000D02*
X140800000Y-75600000D01*
G36*
X143900000Y-84000000D02*
G01*
X143600000Y-84300000D01*
X143600000Y-84100000D01*
X143300000Y-84100000D01*
X143300000Y-83900000D01*
X143600000Y-83900000D01*
X143600000Y-83700000D01*
X143900000Y-84000000D01*
G37*
X143900000Y-84000000D02*
X143600000Y-84300000D01*
X143600000Y-84100000D01*
X143300000Y-84100000D01*
X143300000Y-83900000D01*
X143600000Y-83900000D01*
X143600000Y-83700000D01*
X143900000Y-84000000D01*
X121300000Y-83100000D02*
G75*
G03*
X119800000Y-84600000I0J-1500000D01*
G01*
X132600000Y-96800000D02*
G75*
G03*
X134100000Y-95300000I0J1500000D01*
G01*
X140900000Y-72600000D02*
X143600000Y-72600000D01*
X143600000Y-72600000D02*
X143600000Y-75300000D01*
X143600000Y-75300000D02*
X140900000Y-75300000D01*
X140900000Y-75300000D02*
X140900000Y-72600000D01*
X134100000Y-95300000D02*
G75*
G03*
X135600000Y-96800000I1500000J0D01*
G01*
X181000000Y-75400000D02*
X175000000Y-75400000D01*
X148500000Y-84600000D02*
X148500000Y-95300000D01*
X145610660Y-68189340D02*
X150500000Y-68200000D01*
X119800000Y-95300000D02*
G75*
G03*
X121300000Y-96800000I1500000J0D01*
G01*
X182500000Y-67700000D02*
G75*
G03*
X181000000Y-66200000I-1500000J0D01*
G01*
X147000000Y-96800000D02*
G75*
G03*
X148500000Y-95300000I0J1500000D01*
G01*
X150500000Y-81100000D02*
X145610660Y-81089340D01*
X119800000Y-95300000D02*
X119800000Y-84600000D01*
X150500000Y-81100000D02*
G75*
G03*
X152000000Y-79600000I0J1500000D01*
G01*
X152000000Y-69700000D02*
X152000000Y-79600000D01*
X134100000Y-84600000D02*
G75*
G03*
X132600000Y-83100000I-1500000J0D01*
G01*
X135600000Y-83100000D02*
G75*
G03*
X134100000Y-84600000I0J-1500000D01*
G01*
X144110660Y-79589340D02*
G75*
G03*
X145610660Y-81089340I1500040J40D01*
G01*
X150247619Y-107580952D02*
X150723809Y-107247619D01*
X150247619Y-107009523D02*
X151247619Y-107009523D01*
X151247619Y-107390476D01*
X151200000Y-107485714D01*
X151152380Y-107533333D01*
X151057142Y-107580952D01*
X150914285Y-107580952D01*
X150819047Y-107533333D01*
X150771428Y-107485714D01*
X150723809Y-107390476D01*
X150723809Y-107009523D01*
X150771428Y-108009523D02*
X150771428Y-108342857D01*
X150247619Y-108485714D02*
X150247619Y-108009523D01*
X151247619Y-108009523D01*
X151247619Y-108485714D01*
X150295238Y-108866666D02*
X150247619Y-109009523D01*
X150247619Y-109247619D01*
X150295238Y-109342857D01*
X150342857Y-109390476D01*
X150438095Y-109438095D01*
X150533333Y-109438095D01*
X150628571Y-109390476D01*
X150676190Y-109342857D01*
X150723809Y-109247619D01*
X150771428Y-109057142D01*
X150819047Y-108961904D01*
X150866666Y-108914285D01*
X150961904Y-108866666D01*
X151057142Y-108866666D01*
X151152380Y-108914285D01*
X151200000Y-108961904D01*
X151247619Y-109057142D01*
X151247619Y-109295238D01*
X151200000Y-109438095D01*
X158800000Y-107438095D02*
X158847619Y-107342857D01*
X158847619Y-107200000D01*
X158800000Y-107057142D01*
X158704761Y-106961904D01*
X158609523Y-106914285D01*
X158419047Y-106866666D01*
X158276190Y-106866666D01*
X158085714Y-106914285D01*
X157990476Y-106961904D01*
X157895238Y-107057142D01*
X157847619Y-107200000D01*
X157847619Y-107295238D01*
X157895238Y-107438095D01*
X157942857Y-107485714D01*
X158276190Y-107485714D01*
X158276190Y-107295238D01*
X157847619Y-107914285D02*
X158847619Y-107914285D01*
X157847619Y-108485714D01*
X158847619Y-108485714D01*
X157847619Y-108961904D02*
X158847619Y-108961904D01*
X158847619Y-109200000D01*
X158800000Y-109342857D01*
X158704761Y-109438095D01*
X158609523Y-109485714D01*
X158419047Y-109533333D01*
X158276190Y-109533333D01*
X158085714Y-109485714D01*
X157990476Y-109438095D01*
X157895238Y-109342857D01*
X157847619Y-109200000D01*
X157847619Y-108961904D01*
X170447619Y-108509523D02*
X170447619Y-107938095D01*
X170447619Y-108223809D02*
X171447619Y-108223809D01*
X171304761Y-108128571D01*
X171209523Y-108033333D01*
X171161904Y-107938095D01*
X171019047Y-109080952D02*
X171066666Y-108985714D01*
X171114285Y-108938095D01*
X171209523Y-108890476D01*
X171257142Y-108890476D01*
X171352380Y-108938095D01*
X171400000Y-108985714D01*
X171447619Y-109080952D01*
X171447619Y-109271428D01*
X171400000Y-109366666D01*
X171352380Y-109414285D01*
X171257142Y-109461904D01*
X171209523Y-109461904D01*
X171114285Y-109414285D01*
X171066666Y-109366666D01*
X171019047Y-109271428D01*
X171019047Y-109080952D01*
X170971428Y-108985714D01*
X170923809Y-108938095D01*
X170828571Y-108890476D01*
X170638095Y-108890476D01*
X170542857Y-108938095D01*
X170495238Y-108985714D01*
X170447619Y-109080952D01*
X170447619Y-109271428D01*
X170495238Y-109366666D01*
X170542857Y-109414285D01*
X170638095Y-109461904D01*
X170828571Y-109461904D01*
X170923809Y-109414285D01*
X170971428Y-109366666D01*
X171019047Y-109271428D01*
X148647619Y-108509523D02*
X148647619Y-108033333D01*
X148171428Y-107985714D01*
X148219047Y-108033333D01*
X148266666Y-108128571D01*
X148266666Y-108366666D01*
X148219047Y-108461904D01*
X148171428Y-108509523D01*
X148076190Y-108557142D01*
X147838095Y-108557142D01*
X147742857Y-108509523D01*
X147695238Y-108461904D01*
X147647619Y-108366666D01*
X147647619Y-108128571D01*
X147695238Y-108033333D01*
X147742857Y-107985714D01*
X148647619Y-108842857D02*
X147647619Y-109176190D01*
X148647619Y-109509523D01*
X164047619Y-107576190D02*
X163047619Y-107909523D01*
X164047619Y-108242857D01*
X163047619Y-108576190D02*
X163714285Y-108576190D01*
X164047619Y-108576190D02*
X164000000Y-108528571D01*
X163952380Y-108576190D01*
X164000000Y-108623809D01*
X164047619Y-108576190D01*
X163952380Y-108576190D01*
X163714285Y-109052380D02*
X163047619Y-109052380D01*
X163619047Y-109052380D02*
X163666666Y-109100000D01*
X163714285Y-109195238D01*
X163714285Y-109338095D01*
X163666666Y-109433333D01*
X163571428Y-109480952D01*
X163047619Y-109480952D01*
X176452380Y-107938095D02*
X176500000Y-107985714D01*
X176547619Y-108080952D01*
X176547619Y-108319047D01*
X176500000Y-108414285D01*
X176452380Y-108461904D01*
X176357142Y-108509523D01*
X176261904Y-108509523D01*
X176119047Y-108461904D01*
X175547619Y-107890476D01*
X175547619Y-108509523D01*
X175547619Y-109461904D02*
X175547619Y-108890476D01*
X175547619Y-109176190D02*
X176547619Y-109176190D01*
X176404761Y-109080952D01*
X176309523Y-108985714D01*
X176261904Y-108890476D01*
X153747619Y-106523809D02*
X153747619Y-107142857D01*
X153366666Y-106809523D01*
X153366666Y-106952380D01*
X153319047Y-107047619D01*
X153271428Y-107095238D01*
X153176190Y-107142857D01*
X152938095Y-107142857D01*
X152842857Y-107095238D01*
X152795238Y-107047619D01*
X152747619Y-106952380D01*
X152747619Y-106666666D01*
X152795238Y-106571428D01*
X152842857Y-106523809D01*
X152842857Y-107571428D02*
X152795238Y-107619047D01*
X152747619Y-107571428D01*
X152795238Y-107523809D01*
X152842857Y-107571428D01*
X152747619Y-107571428D01*
X153747619Y-107952380D02*
X153747619Y-108571428D01*
X153366666Y-108238095D01*
X153366666Y-108380952D01*
X153319047Y-108476190D01*
X153271428Y-108523809D01*
X153176190Y-108571428D01*
X152938095Y-108571428D01*
X152842857Y-108523809D01*
X152795238Y-108476190D01*
X152747619Y-108380952D01*
X152747619Y-108095238D01*
X152795238Y-108000000D01*
X152842857Y-107952380D01*
X153747619Y-108857142D02*
X152747619Y-109190476D01*
X153747619Y-109523809D01*
X171352380Y-64438095D02*
X171400000Y-64485714D01*
X171447619Y-64580952D01*
X171447619Y-64819047D01*
X171400000Y-64914285D01*
X171352380Y-64961904D01*
X171257142Y-65009523D01*
X171161904Y-65009523D01*
X171019047Y-64961904D01*
X170447619Y-64390476D01*
X170447619Y-65009523D01*
X171447619Y-65914285D02*
X171447619Y-65438095D01*
X170971428Y-65390476D01*
X171019047Y-65438095D01*
X171066666Y-65533333D01*
X171066666Y-65771428D01*
X171019047Y-65866666D01*
X170971428Y-65914285D01*
X170876190Y-65961904D01*
X170638095Y-65961904D01*
X170542857Y-65914285D01*
X170495238Y-65866666D01*
X170447619Y-65771428D01*
X170447619Y-65533333D01*
X170495238Y-65438095D01*
X170542857Y-65390476D01*
X162847619Y-65009523D02*
X162847619Y-64438095D01*
X162847619Y-64723809D02*
X163847619Y-64723809D01*
X163704761Y-64628571D01*
X163609523Y-64533333D01*
X163561904Y-64438095D01*
X163514285Y-65866666D02*
X162847619Y-65866666D01*
X163895238Y-65628571D02*
X163180952Y-65390476D01*
X163180952Y-66009523D01*
X144223809Y-83552380D02*
X144842857Y-83552380D01*
X144509523Y-83933333D01*
X144652380Y-83933333D01*
X144747619Y-83980952D01*
X144795238Y-84028571D01*
X144842857Y-84123809D01*
X144842857Y-84361904D01*
X144795238Y-84457142D01*
X144747619Y-84504761D01*
X144652380Y-84552380D01*
X144366666Y-84552380D01*
X144271428Y-84504761D01*
X144223809Y-84457142D01*
X145271428Y-84457142D02*
X145319047Y-84504761D01*
X145271428Y-84552380D01*
X145223809Y-84504761D01*
X145271428Y-84457142D01*
X145271428Y-84552380D01*
X145652380Y-83552380D02*
X146271428Y-83552380D01*
X145938095Y-83933333D01*
X146080952Y-83933333D01*
X146176190Y-83980952D01*
X146223809Y-84028571D01*
X146271428Y-84123809D01*
X146271428Y-84361904D01*
X146223809Y-84457142D01*
X146176190Y-84504761D01*
X146080952Y-84552380D01*
X145795238Y-84552380D01*
X145700000Y-84504761D01*
X145652380Y-84457142D01*
X146557142Y-83552380D02*
X146890476Y-84552380D01*
X147223809Y-83552380D01*
X178952380Y-107938095D02*
X179000000Y-107985714D01*
X179047619Y-108080952D01*
X179047619Y-108319047D01*
X179000000Y-108414285D01*
X178952380Y-108461904D01*
X178857142Y-108509523D01*
X178761904Y-108509523D01*
X178619047Y-108461904D01*
X178047619Y-107890476D01*
X178047619Y-108509523D01*
X178952380Y-108890476D02*
X179000000Y-108938095D01*
X179047619Y-109033333D01*
X179047619Y-109271428D01*
X179000000Y-109366666D01*
X178952380Y-109414285D01*
X178857142Y-109461904D01*
X178761904Y-109461904D01*
X178619047Y-109414285D01*
X178047619Y-108842857D01*
X178047619Y-109461904D01*
X181552380Y-107938095D02*
X181600000Y-107985714D01*
X181647619Y-108080952D01*
X181647619Y-108319047D01*
X181600000Y-108414285D01*
X181552380Y-108461904D01*
X181457142Y-108509523D01*
X181361904Y-108509523D01*
X181219047Y-108461904D01*
X180647619Y-107890476D01*
X180647619Y-108509523D01*
X181647619Y-108842857D02*
X181647619Y-109461904D01*
X181266666Y-109128571D01*
X181266666Y-109271428D01*
X181219047Y-109366666D01*
X181171428Y-109414285D01*
X181076190Y-109461904D01*
X180838095Y-109461904D01*
X180742857Y-109414285D01*
X180695238Y-109366666D01*
X180647619Y-109271428D01*
X180647619Y-108985714D01*
X180695238Y-108890476D01*
X180742857Y-108842857D01*
X156347619Y-108509523D02*
X156347619Y-108033333D01*
X155871428Y-107985714D01*
X155919047Y-108033333D01*
X155966666Y-108128571D01*
X155966666Y-108366666D01*
X155919047Y-108461904D01*
X155871428Y-108509523D01*
X155776190Y-108557142D01*
X155538095Y-108557142D01*
X155442857Y-108509523D01*
X155395238Y-108461904D01*
X155347619Y-108366666D01*
X155347619Y-108128571D01*
X155395238Y-108033333D01*
X155442857Y-107985714D01*
X156347619Y-108842857D02*
X155347619Y-109176190D01*
X156347619Y-109509523D01*
X181647619Y-64390476D02*
X181647619Y-65009523D01*
X181266666Y-64676190D01*
X181266666Y-64819047D01*
X181219047Y-64914285D01*
X181171428Y-64961904D01*
X181076190Y-65009523D01*
X180838095Y-65009523D01*
X180742857Y-64961904D01*
X180695238Y-64914285D01*
X180647619Y-64819047D01*
X180647619Y-64533333D01*
X180695238Y-64438095D01*
X180742857Y-64390476D01*
X181314285Y-65866666D02*
X180647619Y-65866666D01*
X181695238Y-65628571D02*
X180980952Y-65390476D01*
X180980952Y-66009523D01*
X176547619Y-64390476D02*
X176547619Y-65009523D01*
X176166666Y-64676190D01*
X176166666Y-64819047D01*
X176119047Y-64914285D01*
X176071428Y-64961904D01*
X175976190Y-65009523D01*
X175738095Y-65009523D01*
X175642857Y-64961904D01*
X175595238Y-64914285D01*
X175547619Y-64819047D01*
X175547619Y-64533333D01*
X175595238Y-64438095D01*
X175642857Y-64390476D01*
X176452380Y-65390476D02*
X176500000Y-65438095D01*
X176547619Y-65533333D01*
X176547619Y-65771428D01*
X176500000Y-65866666D01*
X176452380Y-65914285D01*
X176357142Y-65961904D01*
X176261904Y-65961904D01*
X176119047Y-65914285D01*
X175547619Y-65342857D01*
X175547619Y-65961904D01*
X172947619Y-108509523D02*
X172947619Y-107938095D01*
X172947619Y-108223809D02*
X173947619Y-108223809D01*
X173804761Y-108128571D01*
X173709523Y-108033333D01*
X173661904Y-107938095D01*
X172947619Y-108985714D02*
X172947619Y-109176190D01*
X172995238Y-109271428D01*
X173042857Y-109319047D01*
X173185714Y-109414285D01*
X173376190Y-109461904D01*
X173757142Y-109461904D01*
X173852380Y-109414285D01*
X173900000Y-109366666D01*
X173947619Y-109271428D01*
X173947619Y-109080952D01*
X173900000Y-108985714D01*
X173852380Y-108938095D01*
X173757142Y-108890476D01*
X173519047Y-108890476D01*
X173423809Y-108938095D01*
X173376190Y-108985714D01*
X173328571Y-109080952D01*
X173328571Y-109271428D01*
X173376190Y-109366666D01*
X173423809Y-109414285D01*
X173519047Y-109461904D01*
X152352380Y-64614285D02*
X152400000Y-64661904D01*
X152447619Y-64757142D01*
X152447619Y-64995238D01*
X152400000Y-65090476D01*
X152352380Y-65138095D01*
X152257142Y-65185714D01*
X152161904Y-65185714D01*
X152019047Y-65138095D01*
X151447619Y-64566666D01*
X151447619Y-65185714D01*
X168947619Y-109338095D02*
X168947619Y-108861904D01*
X168471428Y-108814285D01*
X168519047Y-108861904D01*
X168566666Y-108957142D01*
X168566666Y-109195238D01*
X168519047Y-109290476D01*
X168471428Y-109338095D01*
X168376190Y-109385714D01*
X168138095Y-109385714D01*
X168042857Y-109338095D01*
X167995238Y-109290476D01*
X167947619Y-109195238D01*
X167947619Y-108957142D01*
X167995238Y-108861904D01*
X168042857Y-108814285D01*
X168852380Y-64438095D02*
X168900000Y-64485714D01*
X168947619Y-64580952D01*
X168947619Y-64819047D01*
X168900000Y-64914285D01*
X168852380Y-64961904D01*
X168757142Y-65009523D01*
X168661904Y-65009523D01*
X168519047Y-64961904D01*
X167947619Y-64390476D01*
X167947619Y-65009523D01*
X168947619Y-65866666D02*
X168947619Y-65676190D01*
X168900000Y-65580952D01*
X168852380Y-65533333D01*
X168709523Y-65438095D01*
X168519047Y-65390476D01*
X168138095Y-65390476D01*
X168042857Y-65438095D01*
X167995238Y-65485714D01*
X167947619Y-65580952D01*
X167947619Y-65771428D01*
X167995238Y-65866666D01*
X168042857Y-65914285D01*
X168138095Y-65961904D01*
X168376190Y-65961904D01*
X168471428Y-65914285D01*
X168519047Y-65866666D01*
X168566666Y-65771428D01*
X168566666Y-65580952D01*
X168519047Y-65485714D01*
X168471428Y-65438095D01*
X168376190Y-65390476D01*
X179047619Y-64390476D02*
X179047619Y-65009523D01*
X178666666Y-64676190D01*
X178666666Y-64819047D01*
X178619047Y-64914285D01*
X178571428Y-64961904D01*
X178476190Y-65009523D01*
X178238095Y-65009523D01*
X178142857Y-64961904D01*
X178095238Y-64914285D01*
X178047619Y-64819047D01*
X178047619Y-64533333D01*
X178095238Y-64438095D01*
X178142857Y-64390476D01*
X179047619Y-65914285D02*
X179047619Y-65438095D01*
X178571428Y-65390476D01*
X178619047Y-65438095D01*
X178666666Y-65533333D01*
X178666666Y-65771428D01*
X178619047Y-65866666D01*
X178571428Y-65914285D01*
X178476190Y-65961904D01*
X178238095Y-65961904D01*
X178142857Y-65914285D01*
X178095238Y-65866666D01*
X178047619Y-65771428D01*
X178047619Y-65533333D01*
X178095238Y-65438095D01*
X178142857Y-65390476D01*
X156547619Y-65009523D02*
X156547619Y-64438095D01*
X156547619Y-64723809D02*
X157547619Y-64723809D01*
X157404761Y-64628571D01*
X157309523Y-64533333D01*
X157261904Y-64438095D01*
X157547619Y-65342857D02*
X157547619Y-65961904D01*
X157166666Y-65628571D01*
X157166666Y-65771428D01*
X157119047Y-65866666D01*
X157071428Y-65914285D01*
X156976190Y-65961904D01*
X156738095Y-65961904D01*
X156642857Y-65914285D01*
X156595238Y-65866666D01*
X156547619Y-65771428D01*
X156547619Y-65485714D01*
X156595238Y-65390476D01*
X156642857Y-65342857D01*
X166252380Y-64438095D02*
X166300000Y-64485714D01*
X166347619Y-64580952D01*
X166347619Y-64819047D01*
X166300000Y-64914285D01*
X166252380Y-64961904D01*
X166157142Y-65009523D01*
X166061904Y-65009523D01*
X165919047Y-64961904D01*
X165347619Y-64390476D01*
X165347619Y-65009523D01*
X166347619Y-65342857D02*
X166347619Y-66009523D01*
X165347619Y-65580952D01*
X154047619Y-65009523D02*
X154047619Y-64438095D01*
X154047619Y-64723809D02*
X155047619Y-64723809D01*
X154904761Y-64628571D01*
X154809523Y-64533333D01*
X154761904Y-64438095D01*
X155047619Y-65914285D02*
X155047619Y-65438095D01*
X154571428Y-65390476D01*
X154619047Y-65438095D01*
X154666666Y-65533333D01*
X154666666Y-65771428D01*
X154619047Y-65866666D01*
X154571428Y-65914285D01*
X154476190Y-65961904D01*
X154238095Y-65961904D01*
X154142857Y-65914285D01*
X154095238Y-65866666D01*
X154047619Y-65771428D01*
X154047619Y-65533333D01*
X154095238Y-65438095D01*
X154142857Y-65390476D01*
X161300000Y-107438095D02*
X161347619Y-107342857D01*
X161347619Y-107200000D01*
X161300000Y-107057142D01*
X161204761Y-106961904D01*
X161109523Y-106914285D01*
X160919047Y-106866666D01*
X160776190Y-106866666D01*
X160585714Y-106914285D01*
X160490476Y-106961904D01*
X160395238Y-107057142D01*
X160347619Y-107200000D01*
X160347619Y-107295238D01*
X160395238Y-107438095D01*
X160442857Y-107485714D01*
X160776190Y-107485714D01*
X160776190Y-107295238D01*
X160347619Y-107914285D02*
X161347619Y-107914285D01*
X160347619Y-108485714D01*
X161347619Y-108485714D01*
X160347619Y-108961904D02*
X161347619Y-108961904D01*
X161347619Y-109200000D01*
X161300000Y-109342857D01*
X161204761Y-109438095D01*
X161109523Y-109485714D01*
X160919047Y-109533333D01*
X160776190Y-109533333D01*
X160585714Y-109485714D01*
X160490476Y-109438095D01*
X160395238Y-109342857D01*
X160347619Y-109200000D01*
X160347619Y-108961904D01*
D11*
X120961904Y-108647380D02*
X120961904Y-107647380D01*
X121295238Y-108361666D01*
X121628571Y-107647380D01*
X121628571Y-108647380D01*
X122057142Y-108361666D02*
X122533333Y-108361666D01*
X121961904Y-108647380D02*
X122295238Y-107647380D01*
X122628571Y-108647380D01*
X122866666Y-107647380D02*
X123533333Y-108647380D01*
X123533333Y-107647380D02*
X122866666Y-108647380D01*
X121580952Y-110257380D02*
X121009523Y-110257380D01*
X121295238Y-110257380D02*
X121295238Y-109257380D01*
X121200000Y-109400238D01*
X121104761Y-109495476D01*
X121009523Y-109543095D01*
X122152380Y-109685952D02*
X122057142Y-109638333D01*
X122009523Y-109590714D01*
X121961904Y-109495476D01*
X121961904Y-109447857D01*
X122009523Y-109352619D01*
X122057142Y-109305000D01*
X122152380Y-109257380D01*
X122342857Y-109257380D01*
X122438095Y-109305000D01*
X122485714Y-109352619D01*
X122533333Y-109447857D01*
X122533333Y-109495476D01*
X122485714Y-109590714D01*
X122438095Y-109638333D01*
X122342857Y-109685952D01*
X122152380Y-109685952D01*
X122057142Y-109733571D01*
X122009523Y-109781190D01*
X121961904Y-109876428D01*
X121961904Y-110066904D01*
X122009523Y-110162142D01*
X122057142Y-110209761D01*
X122152380Y-110257380D01*
X122342857Y-110257380D01*
X122438095Y-110209761D01*
X122485714Y-110162142D01*
X122533333Y-110066904D01*
X122533333Y-109876428D01*
X122485714Y-109781190D01*
X122438095Y-109733571D01*
X122342857Y-109685952D01*
X122819047Y-109257380D02*
X123152380Y-110257380D01*
X123485714Y-109257380D01*
D10*
X144700000Y-65038095D02*
X144747619Y-64942857D01*
X144747619Y-64800000D01*
X144700000Y-64657142D01*
X144604761Y-64561904D01*
X144509523Y-64514285D01*
X144319047Y-64466666D01*
X144176190Y-64466666D01*
X143985714Y-64514285D01*
X143890476Y-64561904D01*
X143795238Y-64657142D01*
X143747619Y-64800000D01*
X143747619Y-64895238D01*
X143795238Y-65038095D01*
X143842857Y-65085714D01*
X144176190Y-65085714D01*
X144176190Y-64895238D01*
X143747619Y-65514285D02*
X144747619Y-65514285D01*
X143747619Y-66085714D01*
X144747619Y-66085714D01*
X143747619Y-66561904D02*
X144747619Y-66561904D01*
X144747619Y-66800000D01*
X144700000Y-66942857D01*
X144604761Y-67038095D01*
X144509523Y-67085714D01*
X144319047Y-67133333D01*
X144176190Y-67133333D01*
X143985714Y-67085714D01*
X143890476Y-67038095D01*
X143795238Y-66942857D01*
X143747619Y-66800000D01*
X143747619Y-66561904D01*
X159147619Y-65009523D02*
X159147619Y-64438095D01*
X159147619Y-64723809D02*
X160147619Y-64723809D01*
X160004761Y-64628571D01*
X159909523Y-64533333D01*
X159861904Y-64438095D01*
X160052380Y-65390476D02*
X160100000Y-65438095D01*
X160147619Y-65533333D01*
X160147619Y-65771428D01*
X160100000Y-65866666D01*
X160052380Y-65914285D01*
X159957142Y-65961904D01*
X159861904Y-65961904D01*
X159719047Y-65914285D01*
X159147619Y-65342857D01*
X159147619Y-65961904D01*
X130395238Y-83552380D02*
X129919047Y-83552380D01*
X129871428Y-84028571D01*
X129919047Y-83980952D01*
X130014285Y-83933333D01*
X130252380Y-83933333D01*
X130347619Y-83980952D01*
X130395238Y-84028571D01*
X130442857Y-84123809D01*
X130442857Y-84361904D01*
X130395238Y-84457142D01*
X130347619Y-84504761D01*
X130252380Y-84552380D01*
X130014285Y-84552380D01*
X129919047Y-84504761D01*
X129871428Y-84457142D01*
X130871428Y-84457142D02*
X130919047Y-84504761D01*
X130871428Y-84552380D01*
X130823809Y-84504761D01*
X130871428Y-84457142D01*
X130871428Y-84552380D01*
X131538095Y-83552380D02*
X131633333Y-83552380D01*
X131728571Y-83600000D01*
X131776190Y-83647619D01*
X131823809Y-83742857D01*
X131871428Y-83933333D01*
X131871428Y-84171428D01*
X131823809Y-84361904D01*
X131776190Y-84457142D01*
X131728571Y-84504761D01*
X131633333Y-84552380D01*
X131538095Y-84552380D01*
X131442857Y-84504761D01*
X131395238Y-84457142D01*
X131347619Y-84361904D01*
X131300000Y-84171428D01*
X131300000Y-83933333D01*
X131347619Y-83742857D01*
X131395238Y-83647619D01*
X131442857Y-83600000D01*
X131538095Y-83552380D01*
X132157142Y-83552380D02*
X132490476Y-84552380D01*
X132823809Y-83552380D01*
X149514285Y-65090476D02*
X148847619Y-65090476D01*
X149895238Y-64852380D02*
X149180952Y-64614285D01*
X149180952Y-65233333D01*
X142247619Y-65009523D02*
X142247619Y-64533333D01*
X141771428Y-64485714D01*
X141819047Y-64533333D01*
X141866666Y-64628571D01*
X141866666Y-64866666D01*
X141819047Y-64961904D01*
X141771428Y-65009523D01*
X141676190Y-65057142D01*
X141438095Y-65057142D01*
X141342857Y-65009523D01*
X141295238Y-64961904D01*
X141247619Y-64866666D01*
X141247619Y-64628571D01*
X141295238Y-64533333D01*
X141342857Y-64485714D01*
X142247619Y-65342857D02*
X141247619Y-65676190D01*
X142247619Y-66009523D01*
X173947619Y-64390476D02*
X173947619Y-65009523D01*
X173566666Y-64676190D01*
X173566666Y-64819047D01*
X173519047Y-64914285D01*
X173471428Y-64961904D01*
X173376190Y-65009523D01*
X173138095Y-65009523D01*
X173042857Y-64961904D01*
X172995238Y-64914285D01*
X172947619Y-64819047D01*
X172947619Y-64533333D01*
X172995238Y-64438095D01*
X173042857Y-64390476D01*
X173947619Y-65342857D02*
X173947619Y-65961904D01*
X173566666Y-65628571D01*
X173566666Y-65771428D01*
X173519047Y-65866666D01*
X173471428Y-65914285D01*
X173376190Y-65961904D01*
X173138095Y-65961904D01*
X173042857Y-65914285D01*
X172995238Y-65866666D01*
X172947619Y-65771428D01*
X172947619Y-65485714D01*
X172995238Y-65390476D01*
X173042857Y-65342857D01*
X146252380Y-64947619D02*
X146252380Y-64852380D01*
X146300000Y-64757142D01*
X146347619Y-64709523D01*
X146442857Y-64661904D01*
X146633333Y-64614285D01*
X146871428Y-64614285D01*
X147061904Y-64661904D01*
X147157142Y-64709523D01*
X147204761Y-64757142D01*
X147252380Y-64852380D01*
X147252380Y-64947619D01*
X147204761Y-65042857D01*
X147157142Y-65090476D01*
X147061904Y-65138095D01*
X146871428Y-65185714D01*
X146633333Y-65185714D01*
X146442857Y-65138095D01*
X146347619Y-65090476D01*
X146300000Y-65042857D01*
X146252380Y-64947619D01*
%TO.C,SW1*%
X122347619Y-62352380D02*
X122014285Y-61876190D01*
X121776190Y-62352380D02*
X121776190Y-61352380D01*
X122157142Y-61352380D01*
X122252380Y-61400000D01*
X122300000Y-61447619D01*
X122347619Y-61542857D01*
X122347619Y-61685714D01*
X122300000Y-61780952D01*
X122252380Y-61828571D01*
X122157142Y-61876190D01*
X121776190Y-61876190D01*
X122776190Y-61828571D02*
X123109523Y-61828571D01*
X123252380Y-62352380D02*
X122776190Y-62352380D01*
X122776190Y-61352380D01*
X123252380Y-61352380D01*
X123633333Y-62304761D02*
X123776190Y-62352380D01*
X124014285Y-62352380D01*
X124109523Y-62304761D01*
X124157142Y-62257142D01*
X124204761Y-62161904D01*
X124204761Y-62066666D01*
X124157142Y-61971428D01*
X124109523Y-61923809D01*
X124014285Y-61876190D01*
X123823809Y-61828571D01*
X123728571Y-61780952D01*
X123680952Y-61733333D01*
X123633333Y-61638095D01*
X123633333Y-61542857D01*
X123680952Y-61447619D01*
X123728571Y-61400000D01*
X123823809Y-61352380D01*
X124061904Y-61352380D01*
X124204761Y-61400000D01*
X124633333Y-61828571D02*
X124966666Y-61828571D01*
X125109523Y-62352380D02*
X124633333Y-62352380D01*
X124633333Y-61352380D01*
X125109523Y-61352380D01*
X125395238Y-61352380D02*
X125966666Y-61352380D01*
X125680952Y-62352380D02*
X125680952Y-61352380D01*
%TO.C,D1*%
X130938095Y-66952380D02*
X131509523Y-66952380D01*
X131223809Y-67952380D02*
X131223809Y-66952380D01*
X131747619Y-66952380D02*
X132414285Y-67952380D01*
X132414285Y-66952380D02*
X131747619Y-67952380D01*
%TO.C,D2*%
X131533333Y-70152380D02*
X131200000Y-69676190D01*
X130961904Y-70152380D02*
X130961904Y-69152380D01*
X131342857Y-69152380D01*
X131438095Y-69200000D01*
X131485714Y-69247619D01*
X131533333Y-69342857D01*
X131533333Y-69485714D01*
X131485714Y-69580952D01*
X131438095Y-69628571D01*
X131342857Y-69676190D01*
X130961904Y-69676190D01*
X131866666Y-69152380D02*
X132533333Y-70152380D01*
X132533333Y-69152380D02*
X131866666Y-70152380D01*
D12*
%TO.C,C5*%
X125290000Y-90788748D02*
X125290000Y-92211252D01*
X127110000Y-90788748D02*
X127110000Y-92211252D01*
%TO.C,D3*%
X145200000Y-95042600D02*
X145200000Y-89342600D01*
X145200000Y-89342600D02*
X142200000Y-89342600D01*
X142200000Y-89342600D02*
X142200000Y-95042600D01*
%TO.C,IC3*%
X146540000Y-71000000D02*
X146540000Y-70350000D01*
X149660000Y-71000000D02*
X149660000Y-71650000D01*
X146540000Y-71000000D02*
X146540000Y-72675000D01*
X149660000Y-71000000D02*
X149660000Y-70350000D01*
%TO.C,Q1*%
X177785000Y-70700000D02*
X177785000Y-70050000D01*
X177785000Y-70700000D02*
X177785000Y-71350000D01*
X174665000Y-70700000D02*
X174665000Y-70050000D01*
X174665000Y-70700000D02*
X174665000Y-72375000D01*
%TO.C,R29*%
X135715000Y-100262258D02*
X135715000Y-99787742D01*
X136760000Y-100262258D02*
X136760000Y-99787742D01*
%TO.C,R14*%
X128362742Y-73477500D02*
X128837258Y-73477500D01*
X128362742Y-74522500D02*
X128837258Y-74522500D01*
%TO.C,R4*%
X179587742Y-67377500D02*
X180062258Y-67377500D01*
X179587742Y-68422500D02*
X180062258Y-68422500D01*
%TO.C,G\u002A\u002A\u002A*%
G36*
X153011764Y-104540257D02*
G01*
X151844485Y-104540257D01*
X151844485Y-103956618D01*
X153011764Y-103956618D01*
X153011764Y-104540257D01*
G37*
G36*
X171594853Y-104260110D02*
G01*
X171594733Y-104488612D01*
X171594389Y-104702318D01*
X171593844Y-104896808D01*
X171593123Y-105067662D01*
X171592247Y-105210459D01*
X171591242Y-105320779D01*
X171590129Y-105394203D01*
X171588933Y-105426310D01*
X171588666Y-105427390D01*
X171571011Y-105411712D01*
X171525898Y-105368234D01*
X171458764Y-105302293D01*
X171375048Y-105219223D01*
X171296846Y-105141069D01*
X171011213Y-104854749D01*
X171011213Y-103676471D01*
X169250828Y-103676471D01*
X168955898Y-103384651D01*
X168660969Y-103092831D01*
X171594853Y-103092831D01*
X171594853Y-104260110D01*
G37*
G36*
X166328215Y-103676471D02*
G01*
X165454963Y-103676471D01*
X165454963Y-105427390D01*
X164871323Y-105427390D01*
X164871323Y-103092831D01*
X166918075Y-103092831D01*
X166328215Y-103676471D01*
G37*
G36*
X175260110Y-105427390D02*
G01*
X174676470Y-105427390D01*
X174676470Y-103970497D01*
X174968290Y-103675568D01*
X175260110Y-103380638D01*
X175260110Y-105427390D01*
G37*
G36*
X178867603Y-103536397D02*
G01*
X178421911Y-103979963D01*
X177841146Y-103979963D01*
X177991544Y-103828217D01*
X178141941Y-103676471D01*
X176964338Y-103676471D01*
X176964338Y-104856123D01*
X176672518Y-105147243D01*
X176380698Y-105438362D01*
X176380698Y-103664097D01*
X176667019Y-103378464D01*
X176953339Y-103092831D01*
X179313296Y-103092831D01*
X178867603Y-103536397D01*
G37*
G36*
X145436121Y-103675568D02*
G01*
X145727941Y-103970497D01*
X145727941Y-105427390D01*
X145144301Y-105427390D01*
X145144301Y-103380638D01*
X145436121Y-103675568D01*
G37*
G36*
X163750735Y-104540257D02*
G01*
X162583456Y-104540257D01*
X162583456Y-103956618D01*
X163750735Y-103956618D01*
X163750735Y-104540257D01*
G37*
G36*
X174662590Y-103676471D02*
G01*
X173778366Y-103676471D01*
X174360604Y-103092831D01*
X175252450Y-103092831D01*
X174662590Y-103676471D01*
G37*
G36*
X179602389Y-104832751D02*
G01*
X179304409Y-105130070D01*
X179006428Y-105427390D01*
X176669792Y-105427390D01*
X177115484Y-104983824D01*
X177561177Y-104540257D01*
X178141941Y-104540257D01*
X177991544Y-104692004D01*
X177841146Y-104843750D01*
X179018750Y-104843750D01*
X179018750Y-103664097D01*
X179310570Y-103372978D01*
X179602389Y-103081859D01*
X179602389Y-104832751D01*
G37*
G36*
X160272242Y-103384651D02*
G01*
X159981123Y-103676471D01*
X157634191Y-103676471D01*
X157634191Y-103092831D01*
X160563362Y-103092831D01*
X160272242Y-103384651D01*
G37*
G36*
X176100551Y-105427390D02*
G01*
X175516911Y-105427390D01*
X175516911Y-104843750D01*
X176100551Y-104843750D01*
X176100551Y-105427390D01*
G37*
G36*
X168956801Y-103664097D02*
G01*
X168956801Y-104843750D01*
X170717186Y-104843750D01*
X171012116Y-105135570D01*
X171307045Y-105427390D01*
X168967800Y-105427390D01*
X168670481Y-105129409D01*
X168373161Y-104831428D01*
X168373161Y-103081859D01*
X168956801Y-103664097D01*
G37*
G36*
X153875551Y-103676471D02*
G01*
X151540992Y-103676471D01*
X151540992Y-104843750D01*
X153886523Y-104843750D01*
X153304285Y-105427390D01*
X150957353Y-105427390D01*
X150957353Y-103664097D01*
X151243673Y-103378464D01*
X151529994Y-103092831D01*
X153875551Y-103092831D01*
X153875551Y-103676471D01*
G37*
G36*
X149521830Y-104260110D02*
G01*
X150689958Y-105427390D01*
X149801668Y-105427390D01*
X148062500Y-103688222D01*
X148062500Y-104854722D01*
X147478860Y-104272484D01*
X147478860Y-103092831D01*
X148353702Y-103092831D01*
X149521830Y-104260110D01*
G37*
G36*
X164614522Y-103676471D02*
G01*
X162279963Y-103676471D01*
X162279963Y-104843750D01*
X164625494Y-104843750D01*
X164334375Y-105135570D01*
X164043255Y-105427390D01*
X161696323Y-105427390D01*
X161696323Y-103664097D01*
X161982644Y-103378464D01*
X162268964Y-103092831D01*
X164614522Y-103092831D01*
X164614522Y-103676471D01*
G37*
G36*
X157377389Y-103676471D02*
G01*
X155894244Y-103676471D01*
X155603125Y-103384651D01*
X155312005Y-103092831D01*
X157377389Y-103092831D01*
X157377389Y-103676471D01*
G37*
G36*
X147187271Y-104260110D02*
G01*
X148355399Y-105427390D01*
X147467012Y-105427390D01*
X146299908Y-104260110D01*
X145132803Y-103092831D01*
X146019144Y-103092831D01*
X147187271Y-104260110D01*
G37*
G36*
X156202450Y-105427390D02*
G01*
X154155698Y-105427390D01*
X154155698Y-104843750D01*
X155612590Y-104843750D01*
X156202450Y-105427390D01*
G37*
G36*
X159385110Y-105427390D02*
G01*
X158801470Y-105427390D01*
X158801470Y-103956618D01*
X159385110Y-103956618D01*
X159385110Y-105427390D01*
G37*
G36*
X156198668Y-104260110D02*
G01*
X157366796Y-105427390D01*
X156478409Y-105427390D01*
X155311305Y-104260110D01*
X154144201Y-103092831D01*
X155030541Y-103092831D01*
X156198668Y-104260110D01*
G37*
G36*
X161416176Y-105427390D02*
G01*
X160832536Y-105427390D01*
X160832536Y-103092831D01*
X161416176Y-103092831D01*
X161416176Y-105427390D01*
G37*
G36*
X167498652Y-103676471D02*
G01*
X166914062Y-104260110D01*
X167498652Y-104843750D01*
X168083241Y-105427390D01*
X167193859Y-105427390D01*
X166610570Y-104843750D01*
X166027280Y-104260110D01*
X166610570Y-103676471D01*
X167193859Y-103092831D01*
X168083241Y-103092831D01*
X167498652Y-103676471D01*
G37*
%TO.C,R7*%
X148337258Y-74977500D02*
X147862742Y-74977500D01*
X148337258Y-76022500D02*
X147862742Y-76022500D01*
%TO.C,R8*%
X148337258Y-73377500D02*
X147862742Y-73377500D01*
X148337258Y-74422500D02*
X147862742Y-74422500D01*
%TO.C,SW1*%
X127030000Y-63070000D02*
X127030000Y-63100000D01*
X120570000Y-69530000D02*
X127030000Y-69530000D01*
X127030000Y-65000000D02*
X127030000Y-67600000D01*
X120570000Y-63100000D02*
X120570000Y-63070000D01*
X127030000Y-69530000D02*
X127030000Y-69500000D01*
X120570000Y-69530000D02*
X120570000Y-69500000D01*
X120570000Y-63070000D02*
X127030000Y-63070000D01*
X120570000Y-65000000D02*
X120570000Y-67600000D01*
%TO.C,Q3*%
X139000000Y-102015000D02*
X138350000Y-102015000D01*
X139000000Y-105135000D02*
X140675000Y-105135000D01*
X139000000Y-105135000D02*
X138350000Y-105135000D01*
X139000000Y-102015000D02*
X139650000Y-102015000D01*
%TO.C,R1*%
X175987742Y-74022500D02*
X176462258Y-74022500D01*
X175987742Y-72977500D02*
X176462258Y-72977500D01*
D13*
%TO.C,IC1*%
X179350000Y-81350000D02*
X179350000Y-81350000D01*
D14*
X186800000Y-83150000D02*
X180360000Y-83150000D01*
X186800000Y-83150000D02*
X186800000Y-83150000D01*
X186800000Y-101150000D02*
X180360000Y-101150000D01*
X155400000Y-101150000D02*
X155400000Y-83150000D01*
X180360000Y-83150000D02*
X186800000Y-83150000D01*
X186800000Y-101150000D02*
X186800000Y-101150000D01*
X186800000Y-101150000D02*
X186800000Y-83150000D01*
X186800000Y-83150000D02*
X186800000Y-101150000D01*
D13*
X179350000Y-81350000D02*
X179350000Y-81350000D01*
D14*
X155400000Y-83150000D02*
X155400000Y-101150000D01*
D13*
X179350000Y-81450000D02*
X179350000Y-81450000D01*
D14*
X186800000Y-83150000D02*
X186800000Y-83150000D01*
X180360000Y-83150000D02*
X180360000Y-83150000D01*
X186800000Y-101150000D02*
X186800000Y-101150000D01*
X180360000Y-101150000D02*
X180360000Y-101150000D01*
X155400000Y-83150000D02*
X155400000Y-83150000D01*
X155400000Y-101150000D02*
X155400000Y-101150000D01*
X180360000Y-101150000D02*
X186800000Y-101150000D01*
D13*
X179350000Y-81350000D02*
G75*
G03*
X179350000Y-81450000I0J-50000D01*
G01*
X179350000Y-81350000D02*
G75*
G03*
X179350000Y-81450000I0J-50000D01*
G01*
X179350000Y-81450000D02*
G75*
G03*
X179350000Y-81350000I0J50000D01*
G01*
D12*
%TO.C,R6*%
X145177500Y-74937258D02*
X145177500Y-74462742D01*
X146222500Y-74937258D02*
X146222500Y-74462742D01*
%TO.C,R3*%
X176462258Y-67377500D02*
X175987742Y-67377500D01*
X176462258Y-68422500D02*
X175987742Y-68422500D01*
%TO.C,C7*%
X130990000Y-90988748D02*
X130990000Y-92411252D01*
X132810000Y-90988748D02*
X132810000Y-92411252D01*
%TO.C,R16*%
X123277500Y-93637258D02*
X123277500Y-93162742D01*
X124322500Y-93637258D02*
X124322500Y-93162742D01*
%TO.C,R19*%
X141987742Y-73722500D02*
X142462258Y-73722500D01*
X141987742Y-72677500D02*
X142462258Y-72677500D01*
%TO.C,R21*%
X141987742Y-76722500D02*
X142462258Y-76722500D01*
X141987742Y-75677500D02*
X142462258Y-75677500D01*
%TO.C,D1*%
X133575000Y-68460000D02*
X136260000Y-68460000D01*
X136260000Y-66540000D02*
X133575000Y-66540000D01*
X136260000Y-68460000D02*
X136260000Y-66540000D01*
%TO.C,J1*%
X182430000Y-64130000D02*
X161990000Y-64130000D01*
X182430000Y-61470000D02*
X182430000Y-64130000D01*
X161990000Y-61470000D02*
X161990000Y-64130000D01*
X182430000Y-61470000D02*
X161990000Y-61470000D01*
%TO.C,J2*%
X140390000Y-61470000D02*
X140390000Y-64130000D01*
X160820800Y-61470000D02*
X160820800Y-64130000D01*
X160820800Y-61470000D02*
X140390000Y-61470000D01*
X160820800Y-64130000D02*
X140390000Y-64130000D01*
%TO.C,G\u002A\u002A\u002A*%
G36*
X156409471Y-69920000D02*
G01*
X157410198Y-70920000D01*
X158410924Y-71920000D01*
X157649849Y-71920000D01*
X156649999Y-70919999D01*
X155650150Y-69919999D01*
X156029810Y-69919999D01*
X156409471Y-69920000D01*
G37*
G36*
X162870000Y-74940000D02*
G01*
X163120000Y-75189399D01*
X163120000Y-76200000D01*
X164630600Y-76200000D01*
X164880000Y-76450000D01*
X165129399Y-76700000D01*
X162620000Y-76700000D01*
X162620000Y-74690600D01*
X162870000Y-74940000D01*
G37*
G36*
X166850000Y-70160000D02*
G01*
X167100000Y-70409399D01*
X167100000Y-71420000D01*
X168610600Y-71420000D01*
X168860000Y-71670000D01*
X169109399Y-71920000D01*
X166600000Y-71920000D01*
X166600000Y-69910600D01*
X166850000Y-70160000D01*
G37*
G36*
X170340000Y-75940000D02*
G01*
X169340000Y-75940000D01*
X169340000Y-75440000D01*
X170340000Y-75440000D01*
X170340000Y-75940000D01*
G37*
G36*
X162400000Y-76700000D02*
G01*
X161900000Y-76700000D01*
X161900000Y-75451890D01*
X162400000Y-74946562D01*
X162400000Y-76700000D01*
G37*
G36*
X160400000Y-75710600D02*
G01*
X160150000Y-75960000D01*
X159900000Y-76209399D01*
X159900000Y-75210200D01*
X158409802Y-76700000D01*
X157649075Y-76700000D01*
X158649801Y-75700000D01*
X159650528Y-74700000D01*
X160400000Y-74700000D01*
X160400000Y-75710600D01*
G37*
G36*
X156160000Y-70671890D02*
G01*
X156160000Y-71920000D01*
X155660000Y-71920000D01*
X155660000Y-70166562D01*
X156160000Y-70671890D01*
G37*
G36*
X167350198Y-75700000D02*
G01*
X168350924Y-76700000D01*
X167610000Y-76699886D01*
X165609168Y-74700000D01*
X166349471Y-74700000D01*
X167350198Y-75700000D01*
G37*
G36*
X165135544Y-74945534D02*
G01*
X165380489Y-75191068D01*
X165375244Y-75945843D01*
X165370000Y-76700619D01*
X165125000Y-76455020D01*
X164880000Y-76209422D01*
X164880000Y-75200000D01*
X163371890Y-75200000D01*
X162866562Y-74700000D01*
X164890600Y-74700000D01*
X165135544Y-74945534D01*
G37*
G36*
X165120773Y-70170000D02*
G01*
X164868109Y-70419999D01*
X164494054Y-70420000D01*
X164120000Y-70420000D01*
X164120000Y-71920000D01*
X163620000Y-71920000D01*
X163620000Y-69920000D01*
X165373437Y-69920000D01*
X165120773Y-70170000D01*
G37*
G36*
X155673437Y-76700000D02*
G01*
X153920000Y-76700000D01*
X153920000Y-76200000D01*
X155168109Y-76200000D01*
X155673437Y-76700000D01*
G37*
G36*
X159410198Y-70920000D02*
G01*
X160410924Y-71920000D01*
X159649932Y-71920000D01*
X158904966Y-71175033D01*
X158160000Y-70430067D01*
X158160000Y-71429399D01*
X157910000Y-71180000D01*
X157660000Y-70930600D01*
X157660000Y-69920000D01*
X158409471Y-69920000D01*
X159410198Y-70920000D01*
G37*
G36*
X168360000Y-75580000D02*
G01*
X168359890Y-75763153D01*
X168359576Y-75933275D01*
X168359081Y-76086347D01*
X168358427Y-76218349D01*
X168357638Y-76325263D01*
X168356736Y-76403068D01*
X168355745Y-76447746D01*
X168355000Y-76457154D01*
X168340164Y-76442585D01*
X168302084Y-76403913D01*
X168245313Y-76345799D01*
X168174404Y-76272902D01*
X168105000Y-76201334D01*
X167860000Y-75948360D01*
X167860000Y-74700000D01*
X168360000Y-74700000D01*
X168360000Y-75580000D01*
G37*
G36*
X157400000Y-76700000D02*
G01*
X156900000Y-76700000D01*
X156900000Y-74700000D01*
X157400000Y-74700000D01*
X157400000Y-76700000D01*
G37*
G36*
X165990663Y-69920000D02*
G01*
X166371627Y-69920000D01*
X165870813Y-70420000D01*
X165370000Y-70920000D01*
X165870813Y-71420000D01*
X166371627Y-71920000D01*
X165609699Y-71920000D01*
X165110000Y-71420000D01*
X164610300Y-70920000D01*
X165110000Y-70420000D01*
X165609699Y-69919999D01*
X165990663Y-69920000D01*
G37*
G36*
X156680000Y-75200000D02*
G01*
X155409399Y-75200000D01*
X155160000Y-74950000D01*
X154910600Y-74700000D01*
X156680000Y-74700000D01*
X156680000Y-75200000D01*
G37*
G36*
X163155544Y-70165534D02*
G01*
X163400489Y-70411068D01*
X163395244Y-71165843D01*
X163390000Y-71920619D01*
X163145000Y-71675020D01*
X162900000Y-71429422D01*
X162900000Y-70420000D01*
X161391890Y-70420000D01*
X160886562Y-69920000D01*
X161898581Y-69920000D01*
X162910600Y-69919999D01*
X163155544Y-70165534D01*
G37*
G36*
X166100000Y-75451890D02*
G01*
X166100000Y-76700000D01*
X165600000Y-76700000D01*
X165600000Y-74946562D01*
X166100000Y-75451890D01*
G37*
G36*
X160890000Y-70160000D02*
G01*
X161140000Y-70409399D01*
X161140000Y-71420000D01*
X162650600Y-71420000D01*
X162900000Y-71670000D01*
X163149399Y-71920000D01*
X160640000Y-71920000D01*
X160640000Y-69910600D01*
X160890000Y-70160000D01*
G37*
G36*
X171080000Y-75200000D02*
G01*
X169080000Y-75200000D01*
X169080000Y-76200000D01*
X171089399Y-76200000D01*
X170840000Y-76450000D01*
X170590600Y-76700000D01*
X168580000Y-76700000D01*
X168580000Y-75189399D01*
X168825288Y-74944699D01*
X169070577Y-74700000D01*
X171080000Y-74700000D01*
X171080000Y-75200000D01*
G37*
G36*
X154289810Y-74700000D02*
G01*
X154669471Y-74700000D01*
X155670198Y-75700000D01*
X156670924Y-76700000D01*
X155909849Y-76700000D01*
X154909999Y-75700000D01*
X153910150Y-74699999D01*
X154289810Y-74700000D01*
G37*
G36*
X161410000Y-75700000D02*
G01*
X160410150Y-76700000D01*
X159649075Y-76700000D01*
X160649801Y-75700000D01*
X161650528Y-74700000D01*
X162030189Y-74700000D01*
X162409849Y-74699999D01*
X161410000Y-75700000D01*
G37*
G36*
X169115544Y-70165534D02*
G01*
X169360489Y-70411068D01*
X169355244Y-71165843D01*
X169350000Y-71920619D01*
X169105000Y-71675020D01*
X168860000Y-71429422D01*
X168860000Y-70420000D01*
X167351890Y-70420000D01*
X166846562Y-69920000D01*
X167858581Y-69920000D01*
X168870600Y-69919999D01*
X169115544Y-70165534D01*
G37*
%TO.C,R28*%
X136760000Y-103337742D02*
X136760000Y-103812258D01*
X135715000Y-103337742D02*
X135715000Y-103812258D01*
%TO.C,C1*%
X135359420Y-79490000D02*
X135640580Y-79490000D01*
X135359420Y-80510000D02*
X135640580Y-80510000D01*
%TO.C,C4*%
X145590000Y-90931748D02*
X145590000Y-92354252D01*
X147410000Y-90931748D02*
X147410000Y-92354252D01*
%TO.C,U1*%
X130240000Y-75500000D02*
X130240000Y-73550000D01*
X130240000Y-75500000D02*
X130240000Y-78950000D01*
X140360000Y-75500000D02*
X140360000Y-77450000D01*
X140360000Y-75500000D02*
X140360000Y-73550000D01*
%TO.C,R11*%
X137662742Y-69177500D02*
X138137258Y-69177500D01*
X137662742Y-70222500D02*
X138137258Y-70222500D01*
%TO.C,Q4*%
X138987500Y-98465000D02*
X138337500Y-98465000D01*
X138987500Y-101585000D02*
X138337500Y-101585000D01*
X138987500Y-98465000D02*
X139637500Y-98465000D01*
X138987500Y-101585000D02*
X140662500Y-101585000D01*
%TO.C,Q2*%
X181385000Y-70700000D02*
X181385000Y-71350000D01*
X181385000Y-70700000D02*
X181385000Y-70050000D01*
X178265000Y-70700000D02*
X178265000Y-72375000D01*
X178265000Y-70700000D02*
X178265000Y-70050000D01*
%TO.C,J4*%
X164730000Y-112430000D02*
X164730000Y-109770000D01*
X146830000Y-112430000D02*
X146830000Y-109770000D01*
X146830000Y-109770000D02*
X164730000Y-109770000D01*
X146830000Y-112430000D02*
X164730000Y-112430000D01*
%TO.C,C2*%
X139890000Y-90731748D02*
X139890000Y-92154252D01*
X141710000Y-90731748D02*
X141710000Y-92154252D01*
%TO.C,D4*%
X139850000Y-88260000D02*
X139850000Y-84600000D01*
X141750000Y-88260000D02*
X141750000Y-84600000D01*
X139850000Y-88260000D02*
X141750000Y-88260000D01*
%TO.C,L1*%
X144130000Y-89003000D02*
X145270000Y-89003000D01*
X144130000Y-84883000D02*
X145270000Y-84883000D01*
%TO.C,D5*%
X143337500Y-80940000D02*
X140652500Y-80940000D01*
X140652500Y-82860000D02*
X143337500Y-82860000D01*
X140652500Y-80940000D02*
X140652500Y-82860000D01*
%TO.C,D7*%
X127150000Y-88360000D02*
X127150000Y-84700000D01*
X125250000Y-88360000D02*
X125250000Y-84700000D01*
X125250000Y-88360000D02*
X127150000Y-88360000D01*
%TO.C,J5*%
X117950000Y-97900000D02*
X132650000Y-97900000D01*
X117950000Y-107100000D02*
X117950000Y-97900000D01*
X132650000Y-107100000D02*
X130850000Y-107100000D01*
X132650000Y-97900000D02*
X132650000Y-100000000D01*
X132650000Y-105000000D02*
X132650000Y-107100000D01*
X132950000Y-99300000D02*
X132950000Y-97600000D01*
X132950000Y-97600000D02*
X131350000Y-97600000D01*
X126450000Y-107100000D02*
X117950000Y-107100000D01*
%TO.C,C6*%
X122759420Y-86790000D02*
X123040580Y-86790000D01*
X122759420Y-87810000D02*
X123040580Y-87810000D01*
%TO.C,R25*%
X121827500Y-93637258D02*
X121827500Y-93162742D01*
X122872500Y-93637258D02*
X122872500Y-93162742D01*
%TO.C,R5*%
X149977500Y-74462742D02*
X149977500Y-74937258D01*
X151022500Y-74462742D02*
X151022500Y-74937258D01*
%TO.C,R2*%
X179587742Y-74022500D02*
X180062258Y-74022500D01*
X179587742Y-72977500D02*
X180062258Y-72977500D01*
%TO.C,R15*%
X128362742Y-76577500D02*
X128837258Y-76577500D01*
X128362742Y-77622500D02*
X128837258Y-77622500D01*
%TO.C,U3*%
X123000000Y-88440000D02*
X121200000Y-88440000D01*
X123000000Y-91560000D02*
X122200000Y-91560000D01*
X123000000Y-88440000D02*
X123800000Y-88440000D01*
X123000000Y-91560000D02*
X123800000Y-91560000D01*
%TO.C,R20*%
X141987742Y-74177500D02*
X142462258Y-74177500D01*
X141987742Y-75222500D02*
X142462258Y-75222500D01*
%TO.C,R17*%
X123137258Y-84477500D02*
X122662742Y-84477500D01*
X123137258Y-85522500D02*
X122662742Y-85522500D01*
%TO.C,R12*%
X137737258Y-84420500D02*
X137262742Y-84420500D01*
X137737258Y-85465500D02*
X137262742Y-85465500D01*
%TO.C,U2*%
X137600000Y-88383000D02*
X135800000Y-88383000D01*
X137600000Y-88383000D02*
X138400000Y-88383000D01*
X137600000Y-91503000D02*
X138400000Y-91503000D01*
X137600000Y-91503000D02*
X136800000Y-91503000D01*
%TO.C,D8*%
X126090000Y-80940000D02*
X126090000Y-82860000D01*
X128775000Y-80940000D02*
X126090000Y-80940000D01*
X126090000Y-82860000D02*
X128775000Y-82860000D01*
%TO.C,R24*%
X124712258Y-82422500D02*
X124237742Y-82422500D01*
X124712258Y-81377500D02*
X124237742Y-81377500D01*
%TO.C,R13*%
X135877500Y-93105742D02*
X135877500Y-93580258D01*
X136922500Y-93105742D02*
X136922500Y-93580258D01*
%TO.C,R18*%
X120377500Y-93162742D02*
X120377500Y-93637258D01*
X121422500Y-93162742D02*
X121422500Y-93637258D01*
%TO.C,R9*%
X138922500Y-93580258D02*
X138922500Y-93105742D01*
X137877500Y-93580258D02*
X137877500Y-93105742D01*
%TO.C,J3*%
X182430000Y-109770000D02*
X167070000Y-109770000D01*
X182430000Y-109770000D02*
X182430000Y-112430000D01*
X182430000Y-112430000D02*
X167070000Y-112430000D01*
X167070000Y-109770000D02*
X167070000Y-112430000D01*
%TO.C,IC2*%
X149660000Y-78300000D02*
X149660000Y-76625000D01*
X146540000Y-78300000D02*
X146540000Y-78950000D01*
X149660000Y-78300000D02*
X149660000Y-78950000D01*
X146540000Y-78300000D02*
X146540000Y-77650000D01*
%TO.C,R10*%
X137662742Y-68022500D02*
X138137258Y-68022500D01*
X137662742Y-66977500D02*
X138137258Y-66977500D01*
%TO.C,R23*%
X139312258Y-82422500D02*
X138837742Y-82422500D01*
X139312258Y-81377500D02*
X138837742Y-81377500D01*
%TO.C,C3*%
X137359420Y-87753000D02*
X137640580Y-87753000D01*
X137359420Y-86733000D02*
X137640580Y-86733000D01*
%TO.C,D6*%
X130600000Y-95099600D02*
X130600000Y-89399600D01*
X130600000Y-89399600D02*
X127600000Y-89399600D01*
X127600000Y-89399600D02*
X127600000Y-95099600D01*
%TO.C,R22*%
X141987742Y-77177500D02*
X142462258Y-77177500D01*
X141987742Y-78222500D02*
X142462258Y-78222500D01*
%TO.C,L2*%
X129530000Y-84940000D02*
X130670000Y-84940000D01*
X129530000Y-89060000D02*
X130670000Y-89060000D01*
%TO.C,D2*%
X136285000Y-70660000D02*
X136285000Y-68740000D01*
X136285000Y-68740000D02*
X133600000Y-68740000D01*
X133600000Y-70660000D02*
X136285000Y-70660000D01*
%TO.C,R27*%
X142260000Y-100262258D02*
X142260000Y-99787742D01*
X141215000Y-100262258D02*
X141215000Y-99787742D01*
%TO.C,R26*%
X141227500Y-103812258D02*
X141227500Y-103337742D01*
X142272500Y-103812258D02*
X142272500Y-103337742D01*
%TO.C,J6*%
X119840000Y-80300000D02*
X117940000Y-80300000D01*
X123740000Y-70900000D02*
X121740000Y-70900000D01*
X119840000Y-70900000D02*
X117940000Y-70900000D01*
X123740000Y-80300000D02*
X121740000Y-80300000D01*
X117940000Y-70900000D02*
X117940000Y-80300000D01*
%TD*%
M02*
