%TF.GenerationSoftware,KiCad,Pcbnew,(6.0.9)*%
%TF.CreationDate,2023-07-14T01:44:06+02:00*%
%TF.ProjectId,Arduino_ESP,41726475-696e-46f5-9f45-53502e6b6963,rev?*%
%TF.SameCoordinates,Original*%
%TF.FileFunction,Drillmap*%
%TF.FilePolarity,Positive*%
%FSLAX45Y45*%
G04 Gerber Fmt 4.5, Leading zero omitted, Abs format (unit mm)*
G04 Created by KiCad (PCBNEW (6.0.9)) date 2023-07-14 01:44:06*
%MOMM*%
%LPD*%
G01*
G04 APERTURE LIST*
%ADD10C,0.100000*%
%ADD11C,0.200000*%
%ADD12C,0.040000*%
%ADD13C,0.060000*%
%ADD14C,0.080000*%
G04 APERTURE END LIST*
D10*
X18330000Y-11360000D02*
G75*
G03*
X18360000Y-11330000I0J30000D01*
G01*
X18360000Y-6060000D02*
X18360000Y-7230000D01*
X18360000Y-11330000D02*
X18360000Y-11160000D01*
X18580000Y-10610000D02*
G75*
G03*
X18580000Y-10610000I-160000J0D01*
G01*
X11780000Y-11330000D02*
G75*
G03*
X11810000Y-11360000I30000J0D01*
G01*
X18660000Y-8290000D02*
X18660000Y-7480000D01*
X13440000Y-6330000D02*
G75*
G03*
X13440000Y-6330000I-160000J0D01*
G01*
X18660000Y-10140000D02*
X18660000Y-10910000D01*
X18330000Y-6030000D02*
X11810000Y-6030000D01*
X18580000Y-7810000D02*
G75*
G03*
X18580000Y-7810000I-160000J0D01*
G01*
X18660000Y-10910000D02*
X18360000Y-11160000D01*
X11810000Y-11360000D02*
X18330000Y-11360000D01*
X11810000Y-6030000D02*
G75*
G03*
X11780000Y-6060000I0J-30000D01*
G01*
X13440000Y-11100000D02*
G75*
G03*
X13440000Y-11100000I-160000J0D01*
G01*
X18660000Y-7480000D02*
X18360000Y-7230000D01*
X18020000Y-10140000D02*
X18660000Y-10140000D01*
X18660000Y-8290000D02*
X18020000Y-8290000D01*
X18360000Y-6060000D02*
G75*
G03*
X18330000Y-6030000I-30000J0D01*
G01*
X18020000Y-8290000D02*
X18020000Y-10140000D01*
X11780000Y-6060000D02*
X11780000Y-11330000D01*
D11*
D12*
X12150000Y-7530000D02*
X12190000Y-7570000D01*
X12190000Y-7530000D02*
X12150000Y-7570000D01*
X12330000Y-6630000D02*
X12370000Y-6670000D01*
X12370000Y-6630000D02*
X12330000Y-6670000D01*
X12600000Y-8600000D02*
X12640000Y-8640000D01*
X12640000Y-8600000D02*
X12600000Y-8640000D01*
X12600000Y-9140000D02*
X12640000Y-9180000D01*
X12640000Y-9140000D02*
X12600000Y-9180000D01*
X12770000Y-10980000D02*
X12810000Y-11020000D01*
X12810000Y-10980000D02*
X12770000Y-11020000D01*
X12835000Y-7785000D02*
X12875000Y-7825000D01*
X12875000Y-7785000D02*
X12835000Y-7825000D01*
X12840000Y-7260000D02*
X12880000Y-7300000D01*
X12880000Y-7260000D02*
X12840000Y-7300000D01*
X12930000Y-6390000D02*
X12970000Y-6430000D01*
X12970000Y-6390000D02*
X12930000Y-6430000D01*
X13145000Y-9795000D02*
X13185000Y-9835000D01*
X13185000Y-9795000D02*
X13145000Y-9835000D01*
X13150000Y-7430000D02*
X13190000Y-7470000D01*
X13190000Y-7430000D02*
X13150000Y-7470000D01*
X13180000Y-9120000D02*
X13220000Y-9160000D01*
X13220000Y-9120000D02*
X13180000Y-9160000D01*
X13190000Y-7940000D02*
X13230000Y-7980000D01*
X13230000Y-7940000D02*
X13190000Y-7980000D01*
X13320000Y-7940000D02*
X13360000Y-7980000D01*
X13360000Y-7940000D02*
X13320000Y-7980000D01*
X13570000Y-6270000D02*
X13610000Y-6310000D01*
X13610000Y-6270000D02*
X13570000Y-6310000D01*
X13603750Y-9797500D02*
X13643750Y-9837500D01*
X13643750Y-9797500D02*
X13603750Y-9837500D01*
X13603750Y-10522500D02*
X13643750Y-10562500D01*
X13643750Y-10522500D02*
X13603750Y-10562500D01*
X13665000Y-10980000D02*
X13705000Y-11020000D01*
X13705000Y-10980000D02*
X13665000Y-11020000D01*
X13788750Y-10152500D02*
X13828750Y-10192500D01*
X13828750Y-10152500D02*
X13788750Y-10192500D01*
X13788750Y-10542500D02*
X13828750Y-10582500D01*
X13828750Y-10542500D02*
X13788750Y-10582500D01*
X13820000Y-9510000D02*
X13860000Y-9550000D01*
X13860000Y-9510000D02*
X13820000Y-9550000D01*
X13940000Y-6950000D02*
X13980000Y-6990000D01*
X13980000Y-6950000D02*
X13940000Y-6990000D01*
X13950000Y-6730000D02*
X13990000Y-6770000D01*
X13990000Y-6730000D02*
X13950000Y-6770000D01*
X14190000Y-6900000D02*
X14230000Y-6940000D01*
X14230000Y-6900000D02*
X14190000Y-6940000D01*
X14261250Y-9900000D02*
X14301250Y-9940000D01*
X14301250Y-9900000D02*
X14261250Y-9940000D01*
X14263750Y-10252500D02*
X14303750Y-10292500D01*
X14303750Y-10252500D02*
X14263750Y-10292500D01*
X14545000Y-10095000D02*
X14585000Y-10135000D01*
X14585000Y-10095000D02*
X14545000Y-10135000D01*
X14610000Y-7710000D02*
X14650000Y-7750000D01*
X14650000Y-7710000D02*
X14610000Y-7750000D01*
X14790000Y-6440000D02*
X14830000Y-6480000D01*
X14830000Y-6440000D02*
X14790000Y-6480000D01*
X14815000Y-8765000D02*
X14855000Y-8805000D01*
X14855000Y-8765000D02*
X14815000Y-8805000D01*
X14930000Y-7910000D02*
X14970000Y-7950000D01*
X14970000Y-7910000D02*
X14930000Y-7950000D01*
X14950050Y-8440000D02*
X14990050Y-8480000D01*
X14990050Y-8440000D02*
X14950050Y-8480000D01*
X14970000Y-7170000D02*
X15010000Y-7210000D01*
X15010000Y-7170000D02*
X14970000Y-7210000D01*
X14970000Y-7270000D02*
X15010000Y-7310000D01*
X15010000Y-7270000D02*
X14970000Y-7310000D01*
X15040000Y-8020000D02*
X15080000Y-8060000D01*
X15080000Y-8020000D02*
X15040000Y-8060000D01*
X15040000Y-8170000D02*
X15080000Y-8210000D01*
X15080000Y-8170000D02*
X15040000Y-8210000D01*
X15095000Y-6945000D02*
X15135000Y-6985000D01*
X15135000Y-6945000D02*
X15095000Y-6985000D01*
X15150000Y-8730000D02*
X15190000Y-8770000D01*
X15190000Y-8730000D02*
X15150000Y-8770000D01*
X15240000Y-10600000D02*
X15280000Y-10640000D01*
X15280000Y-10600000D02*
X15240000Y-10640000D01*
X15360000Y-8285000D02*
X15400000Y-8325000D01*
X15400000Y-8285000D02*
X15360000Y-8325000D01*
X15360000Y-8440000D02*
X15400000Y-8480000D01*
X15400000Y-8440000D02*
X15360000Y-8480000D01*
X15360000Y-8960000D02*
X15400000Y-9000000D01*
X15400000Y-8960000D02*
X15360000Y-9000000D01*
X15470000Y-9060000D02*
X15510000Y-9100000D01*
X15510000Y-9060000D02*
X15470000Y-9100000D01*
X15700000Y-10890000D02*
X15740000Y-10930000D01*
X15740000Y-10890000D02*
X15700000Y-10930000D01*
X15790000Y-7790000D02*
X15830000Y-7830000D01*
X15830000Y-7790000D02*
X15790000Y-7830000D01*
X16500000Y-9030000D02*
X16540000Y-9070000D01*
X16540000Y-9030000D02*
X16500000Y-9070000D01*
X17200000Y-10960000D02*
X17240000Y-11000000D01*
X17240000Y-10960000D02*
X17200000Y-11000000D01*
X17210000Y-6900000D02*
X17250000Y-6940000D01*
X17250000Y-6900000D02*
X17210000Y-6940000D01*
X17210000Y-7780000D02*
X17250000Y-7820000D01*
X17250000Y-7780000D02*
X17210000Y-7820000D01*
X17410000Y-9850000D02*
X17450000Y-9890000D01*
X17450000Y-9850000D02*
X17410000Y-9890000D01*
X17520000Y-7450000D02*
X17560000Y-7490000D01*
X17560000Y-7450000D02*
X17520000Y-7490000D01*
X17530000Y-9750000D02*
X17570000Y-9790000D01*
X17570000Y-9750000D02*
X17530000Y-9790000D01*
X17660000Y-8170000D02*
X17700000Y-8210000D01*
X17700000Y-8170000D02*
X17660000Y-8210000D01*
X17710000Y-10960000D02*
X17750000Y-11000000D01*
X17750000Y-10960000D02*
X17710000Y-11000000D01*
X17750000Y-7790000D02*
X17790000Y-7830000D01*
X17790000Y-7790000D02*
X17750000Y-7830000D01*
X17782500Y-6770000D02*
X17822500Y-6810000D01*
X17822500Y-6770000D02*
X17782500Y-6810000D01*
X17782500Y-7020000D02*
X17822500Y-7060000D01*
X17822500Y-7020000D02*
X17782500Y-7060000D01*
X17782500Y-7450000D02*
X17822500Y-7490000D01*
X17822500Y-7450000D02*
X17782500Y-7490000D01*
X17830000Y-9120000D02*
X17870000Y-9160000D01*
X17870000Y-9120000D02*
X17830000Y-9160000D01*
X17870000Y-7900000D02*
X17910000Y-7940000D01*
X17910000Y-7900000D02*
X17870000Y-7940000D01*
X17960000Y-6390000D02*
X18000000Y-6430000D01*
X18000000Y-6390000D02*
X17960000Y-6430000D01*
X18450000Y-10270000D02*
X18490000Y-10310000D01*
X18490000Y-10270000D02*
X18450000Y-10310000D01*
D13*
X12109000Y-7128000D02*
G75*
G03*
X12109000Y-7128000I-30000J0D01*
G01*
D11*
X12109000Y-7098000D02*
X12049000Y-7098000D01*
X12109000Y-7158000D02*
X12049000Y-7158000D01*
X12049000Y-7098000D02*
G75*
G03*
X12049000Y-7158000I0J-30000D01*
G01*
X12109000Y-7158000D02*
G75*
G03*
X12109000Y-7098000I0J30000D01*
G01*
D13*
X12109000Y-7992000D02*
G75*
G03*
X12109000Y-7992000I-30000J0D01*
G01*
D11*
X12109000Y-7962000D02*
X12049000Y-7962000D01*
X12109000Y-8022000D02*
X12049000Y-8022000D01*
X12049000Y-7962000D02*
G75*
G03*
X12049000Y-8022000I0J-30000D01*
G01*
X12109000Y-8022000D02*
G75*
G03*
X12109000Y-7962000I0J30000D01*
G01*
D13*
X12527000Y-7128000D02*
G75*
G03*
X12527000Y-7128000I-30000J0D01*
G01*
D11*
X12552000Y-7098000D02*
X12442000Y-7098000D01*
X12552000Y-7158000D02*
X12442000Y-7158000D01*
X12442000Y-7098000D02*
G75*
G03*
X12442000Y-7158000I0J-30000D01*
G01*
X12552000Y-7158000D02*
G75*
G03*
X12552000Y-7098000I0J30000D01*
G01*
D13*
X12527000Y-7992000D02*
G75*
G03*
X12527000Y-7992000I-30000J0D01*
G01*
D11*
X12552000Y-7962000D02*
X12442000Y-7962000D01*
X12552000Y-8022000D02*
X12442000Y-8022000D01*
X12442000Y-7962000D02*
G75*
G03*
X12442000Y-8022000I0J-30000D01*
G01*
X12552000Y-8022000D02*
G75*
G03*
X12552000Y-7962000I0J30000D01*
G01*
D14*
X12585000Y-10210000D02*
X12585000Y-10290000D01*
X12545000Y-10250000D02*
X12625000Y-10250000D01*
D11*
X12545000Y-10140000D02*
X12545000Y-10360000D01*
X12625000Y-10140000D02*
X12625000Y-10360000D01*
X12545000Y-10360000D02*
G75*
G03*
X12625000Y-10360000I40000J0D01*
G01*
X12625000Y-10140000D02*
G75*
G03*
X12545000Y-10140000I-40000J0D01*
G01*
D14*
X12865000Y-10690000D02*
X12865000Y-10770000D01*
X12825000Y-10730000D02*
X12905000Y-10730000D01*
D11*
X12755000Y-10770000D02*
X12975000Y-10770000D01*
X12755000Y-10690000D02*
X12975000Y-10690000D01*
X12975000Y-10770000D02*
G75*
G03*
X12975000Y-10690000I0J40000D01*
G01*
X12755000Y-10690000D02*
G75*
G03*
X12755000Y-10770000I0J-40000D01*
G01*
D14*
X13165000Y-10210000D02*
X13165000Y-10290000D01*
X13125000Y-10250000D02*
X13205000Y-10250000D01*
D11*
X13125000Y-10120000D02*
X13125000Y-10380000D01*
X13205000Y-10120000D02*
X13205000Y-10380000D01*
X13125000Y-10380000D02*
G75*
G03*
X13205000Y-10380000I40000J0D01*
G01*
X13205000Y-10120000D02*
G75*
G03*
X13125000Y-10120000I-40000J0D01*
G01*
D10*
X14207356Y-6315356D02*
X14207356Y-6244644D01*
X14136644Y-6244644D01*
X14136644Y-6315356D01*
X14207356Y-6315356D01*
X14461356Y-6315356D02*
X14461356Y-6244644D01*
X14390644Y-6244644D01*
X14390644Y-6315356D01*
X14461356Y-6315356D01*
X14715356Y-6315356D02*
X14715356Y-6244644D01*
X14644644Y-6244644D01*
X14644644Y-6315356D01*
X14715356Y-6315356D01*
X14851356Y-11145356D02*
X14851356Y-11074644D01*
X14780644Y-11074644D01*
X14780644Y-11145356D01*
X14851356Y-11145356D01*
X14969356Y-6315356D02*
X14969356Y-6244644D01*
X14898644Y-6244644D01*
X14898644Y-6315356D01*
X14969356Y-6315356D01*
X15105356Y-11145356D02*
X15105356Y-11074644D01*
X15034644Y-11074644D01*
X15034644Y-11145356D01*
X15105356Y-11145356D01*
X15223356Y-6315356D02*
X15223356Y-6244644D01*
X15152644Y-6244644D01*
X15152644Y-6315356D01*
X15223356Y-6315356D01*
X15359356Y-11145356D02*
X15359356Y-11074644D01*
X15288644Y-11074644D01*
X15288644Y-11145356D01*
X15359356Y-11145356D01*
X15477356Y-6315356D02*
X15477356Y-6244644D01*
X15406644Y-6244644D01*
X15406644Y-6315356D01*
X15477356Y-6315356D01*
X15613356Y-11145356D02*
X15613356Y-11074644D01*
X15542644Y-11074644D01*
X15542644Y-11145356D01*
X15613356Y-11145356D01*
X15731356Y-6315356D02*
X15731356Y-6244644D01*
X15660644Y-6244644D01*
X15660644Y-6315356D01*
X15731356Y-6315356D01*
X15867356Y-11145356D02*
X15867356Y-11074644D01*
X15796644Y-11074644D01*
X15796644Y-11145356D01*
X15867356Y-11145356D01*
X15985356Y-6315356D02*
X15985356Y-6244644D01*
X15914644Y-6244644D01*
X15914644Y-6315356D01*
X15985356Y-6315356D01*
X16121356Y-11145356D02*
X16121356Y-11074644D01*
X16050644Y-11074644D01*
X16050644Y-11145356D01*
X16121356Y-11145356D01*
X16367356Y-6315356D02*
X16367356Y-6244644D01*
X16296644Y-6244644D01*
X16296644Y-6315356D01*
X16367356Y-6315356D01*
X16375356Y-11145356D02*
X16375356Y-11074644D01*
X16304644Y-11074644D01*
X16304644Y-11145356D01*
X16375356Y-11145356D01*
X16621356Y-6315356D02*
X16621356Y-6244644D01*
X16550644Y-6244644D01*
X16550644Y-6315356D01*
X16621356Y-6315356D01*
X16875356Y-6315356D02*
X16875356Y-6244644D01*
X16804644Y-6244644D01*
X16804644Y-6315356D01*
X16875356Y-6315356D01*
X16875356Y-11145356D02*
X16875356Y-11074644D01*
X16804644Y-11074644D01*
X16804644Y-11145356D01*
X16875356Y-11145356D01*
X17129356Y-6315356D02*
X17129356Y-6244644D01*
X17058644Y-6244644D01*
X17058644Y-6315356D01*
X17129356Y-6315356D01*
X17129356Y-11145356D02*
X17129356Y-11074644D01*
X17058644Y-11074644D01*
X17058644Y-11145356D01*
X17129356Y-11145356D01*
X17383356Y-6315356D02*
X17383356Y-6244644D01*
X17312644Y-6244644D01*
X17312644Y-6315356D01*
X17383356Y-6315356D01*
X17383356Y-11145356D02*
X17383356Y-11074644D01*
X17312644Y-11074644D01*
X17312644Y-11145356D01*
X17383356Y-11145356D01*
X17637356Y-6315356D02*
X17637356Y-6244644D01*
X17566644Y-6244644D01*
X17566644Y-6315356D01*
X17637356Y-6315356D01*
X17637356Y-11145356D02*
X17637356Y-11074644D01*
X17566644Y-11074644D01*
X17566644Y-11145356D01*
X17637356Y-11145356D01*
X17891356Y-6315356D02*
X17891356Y-6244644D01*
X17820644Y-6244644D01*
X17820644Y-6315356D01*
X17891356Y-6315356D01*
X17891356Y-11145356D02*
X17891356Y-11074644D01*
X17820644Y-11074644D01*
X17820644Y-11145356D01*
X17891356Y-11145356D01*
X18145356Y-6315356D02*
X18145356Y-6244644D01*
X18074644Y-6244644D01*
X18074644Y-6315356D01*
X18145356Y-6315356D01*
X18145356Y-11145356D02*
X18145356Y-11074644D01*
X18074644Y-11074644D01*
X18074644Y-11145356D01*
X18145356Y-11145356D01*
D11*
X12032619Y-11675476D02*
X12032619Y-11475476D01*
X12080238Y-11475476D01*
X12108809Y-11485000D01*
X12127857Y-11504048D01*
X12137381Y-11523095D01*
X12146905Y-11561190D01*
X12146905Y-11589762D01*
X12137381Y-11627857D01*
X12127857Y-11646905D01*
X12108809Y-11665952D01*
X12080238Y-11675476D01*
X12032619Y-11675476D01*
X12232619Y-11675476D02*
X12232619Y-11542143D01*
X12232619Y-11580238D02*
X12242143Y-11561190D01*
X12251667Y-11551667D01*
X12270714Y-11542143D01*
X12289762Y-11542143D01*
X12356428Y-11675476D02*
X12356428Y-11542143D01*
X12356428Y-11475476D02*
X12346905Y-11485000D01*
X12356428Y-11494524D01*
X12365952Y-11485000D01*
X12356428Y-11475476D01*
X12356428Y-11494524D01*
X12480238Y-11675476D02*
X12461190Y-11665952D01*
X12451667Y-11646905D01*
X12451667Y-11475476D01*
X12585000Y-11675476D02*
X12565952Y-11665952D01*
X12556428Y-11646905D01*
X12556428Y-11475476D01*
X12813571Y-11675476D02*
X12813571Y-11475476D01*
X12880238Y-11618333D01*
X12946905Y-11475476D01*
X12946905Y-11675476D01*
X13127857Y-11675476D02*
X13127857Y-11570714D01*
X13118333Y-11551667D01*
X13099286Y-11542143D01*
X13061190Y-11542143D01*
X13042143Y-11551667D01*
X13127857Y-11665952D02*
X13108809Y-11675476D01*
X13061190Y-11675476D01*
X13042143Y-11665952D01*
X13032619Y-11646905D01*
X13032619Y-11627857D01*
X13042143Y-11608809D01*
X13061190Y-11599286D01*
X13108809Y-11599286D01*
X13127857Y-11589762D01*
X13223095Y-11542143D02*
X13223095Y-11742143D01*
X13223095Y-11551667D02*
X13242143Y-11542143D01*
X13280238Y-11542143D01*
X13299286Y-11551667D01*
X13308809Y-11561190D01*
X13318333Y-11580238D01*
X13318333Y-11637381D01*
X13308809Y-11656428D01*
X13299286Y-11665952D01*
X13280238Y-11675476D01*
X13242143Y-11675476D01*
X13223095Y-11665952D01*
X13404048Y-11656428D02*
X13413571Y-11665952D01*
X13404048Y-11675476D01*
X13394524Y-11665952D01*
X13404048Y-11656428D01*
X13404048Y-11675476D01*
X13404048Y-11551667D02*
X13413571Y-11561190D01*
X13404048Y-11570714D01*
X13394524Y-11561190D01*
X13404048Y-11551667D01*
X13404048Y-11570714D01*
D12*
X11735000Y-11985000D02*
X11775000Y-12025000D01*
X11775000Y-11985000D02*
X11735000Y-12025000D01*
D11*
X12070714Y-11895476D02*
X12089762Y-11895476D01*
X12108809Y-11905000D01*
X12118333Y-11914524D01*
X12127857Y-11933571D01*
X12137381Y-11971667D01*
X12137381Y-12019286D01*
X12127857Y-12057381D01*
X12118333Y-12076428D01*
X12108809Y-12085952D01*
X12089762Y-12095476D01*
X12070714Y-12095476D01*
X12051667Y-12085952D01*
X12042143Y-12076428D01*
X12032619Y-12057381D01*
X12023095Y-12019286D01*
X12023095Y-11971667D01*
X12032619Y-11933571D01*
X12042143Y-11914524D01*
X12051667Y-11905000D01*
X12070714Y-11895476D01*
X12223095Y-12076428D02*
X12232619Y-12085952D01*
X12223095Y-12095476D01*
X12213571Y-12085952D01*
X12223095Y-12076428D01*
X12223095Y-12095476D01*
X12404048Y-11962143D02*
X12404048Y-12095476D01*
X12356428Y-11885952D02*
X12308809Y-12028809D01*
X12432619Y-12028809D01*
X12546905Y-11895476D02*
X12565952Y-11895476D01*
X12585000Y-11905000D01*
X12594524Y-11914524D01*
X12604048Y-11933571D01*
X12613571Y-11971667D01*
X12613571Y-12019286D01*
X12604048Y-12057381D01*
X12594524Y-12076428D01*
X12585000Y-12085952D01*
X12565952Y-12095476D01*
X12546905Y-12095476D01*
X12527857Y-12085952D01*
X12518333Y-12076428D01*
X12508809Y-12057381D01*
X12499286Y-12019286D01*
X12499286Y-11971667D01*
X12508809Y-11933571D01*
X12518333Y-11914524D01*
X12527857Y-11905000D01*
X12546905Y-11895476D01*
X12737381Y-11895476D02*
X12756428Y-11895476D01*
X12775476Y-11905000D01*
X12785000Y-11914524D01*
X12794524Y-11933571D01*
X12804048Y-11971667D01*
X12804048Y-12019286D01*
X12794524Y-12057381D01*
X12785000Y-12076428D01*
X12775476Y-12085952D01*
X12756428Y-12095476D01*
X12737381Y-12095476D01*
X12718333Y-12085952D01*
X12708809Y-12076428D01*
X12699286Y-12057381D01*
X12689762Y-12019286D01*
X12689762Y-11971667D01*
X12699286Y-11933571D01*
X12708809Y-11914524D01*
X12718333Y-11905000D01*
X12737381Y-11895476D01*
X12889762Y-12095476D02*
X12889762Y-11962143D01*
X12889762Y-11981190D02*
X12899286Y-11971667D01*
X12918333Y-11962143D01*
X12946905Y-11962143D01*
X12965952Y-11971667D01*
X12975476Y-11990714D01*
X12975476Y-12095476D01*
X12975476Y-11990714D02*
X12985000Y-11971667D01*
X13004048Y-11962143D01*
X13032619Y-11962143D01*
X13051667Y-11971667D01*
X13061190Y-11990714D01*
X13061190Y-12095476D01*
X13156428Y-12095476D02*
X13156428Y-11962143D01*
X13156428Y-11981190D02*
X13165952Y-11971667D01*
X13185000Y-11962143D01*
X13213571Y-11962143D01*
X13232619Y-11971667D01*
X13242143Y-11990714D01*
X13242143Y-12095476D01*
X13242143Y-11990714D02*
X13251667Y-11971667D01*
X13270714Y-11962143D01*
X13299286Y-11962143D01*
X13318333Y-11971667D01*
X13327857Y-11990714D01*
X13327857Y-12095476D01*
X13718333Y-11885952D02*
X13546905Y-12143095D01*
X13975476Y-11895476D02*
X13994524Y-11895476D01*
X14013571Y-11905000D01*
X14023095Y-11914524D01*
X14032619Y-11933571D01*
X14042143Y-11971667D01*
X14042143Y-12019286D01*
X14032619Y-12057381D01*
X14023095Y-12076428D01*
X14013571Y-12085952D01*
X13994524Y-12095476D01*
X13975476Y-12095476D01*
X13956428Y-12085952D01*
X13946905Y-12076428D01*
X13937381Y-12057381D01*
X13927857Y-12019286D01*
X13927857Y-11971667D01*
X13937381Y-11933571D01*
X13946905Y-11914524D01*
X13956428Y-11905000D01*
X13975476Y-11895476D01*
X14127857Y-12076428D02*
X14137381Y-12085952D01*
X14127857Y-12095476D01*
X14118333Y-12085952D01*
X14127857Y-12076428D01*
X14127857Y-12095476D01*
X14261190Y-11895476D02*
X14280238Y-11895476D01*
X14299286Y-11905000D01*
X14308809Y-11914524D01*
X14318333Y-11933571D01*
X14327857Y-11971667D01*
X14327857Y-12019286D01*
X14318333Y-12057381D01*
X14308809Y-12076428D01*
X14299286Y-12085952D01*
X14280238Y-12095476D01*
X14261190Y-12095476D01*
X14242143Y-12085952D01*
X14232619Y-12076428D01*
X14223095Y-12057381D01*
X14213571Y-12019286D01*
X14213571Y-11971667D01*
X14223095Y-11933571D01*
X14232619Y-11914524D01*
X14242143Y-11905000D01*
X14261190Y-11895476D01*
X14518333Y-12095476D02*
X14404048Y-12095476D01*
X14461190Y-12095476D02*
X14461190Y-11895476D01*
X14442143Y-11924048D01*
X14423095Y-11943095D01*
X14404048Y-11952619D01*
X14699286Y-11895476D02*
X14604048Y-11895476D01*
X14594524Y-11990714D01*
X14604048Y-11981190D01*
X14623095Y-11971667D01*
X14670714Y-11971667D01*
X14689762Y-11981190D01*
X14699286Y-11990714D01*
X14708809Y-12009762D01*
X14708809Y-12057381D01*
X14699286Y-12076428D01*
X14689762Y-12085952D01*
X14670714Y-12095476D01*
X14623095Y-12095476D01*
X14604048Y-12085952D01*
X14594524Y-12076428D01*
X14775476Y-11895476D02*
X14908809Y-11895476D01*
X14823095Y-12095476D01*
X14975476Y-11895476D02*
X14975476Y-11933571D01*
X15051667Y-11895476D02*
X15051667Y-11933571D01*
X15346905Y-12171667D02*
X15337381Y-12162143D01*
X15318333Y-12133571D01*
X15308809Y-12114524D01*
X15299286Y-12085952D01*
X15289762Y-12038333D01*
X15289762Y-12000238D01*
X15299286Y-11952619D01*
X15308809Y-11924048D01*
X15318333Y-11905000D01*
X15337381Y-11876428D01*
X15346905Y-11866905D01*
X15508809Y-11895476D02*
X15470714Y-11895476D01*
X15451667Y-11905000D01*
X15442143Y-11914524D01*
X15423095Y-11943095D01*
X15413571Y-11981190D01*
X15413571Y-12057381D01*
X15423095Y-12076428D01*
X15432619Y-12085952D01*
X15451667Y-12095476D01*
X15489762Y-12095476D01*
X15508809Y-12085952D01*
X15518333Y-12076428D01*
X15527857Y-12057381D01*
X15527857Y-12009762D01*
X15518333Y-11990714D01*
X15508809Y-11981190D01*
X15489762Y-11971667D01*
X15451667Y-11971667D01*
X15432619Y-11981190D01*
X15423095Y-11990714D01*
X15413571Y-12009762D01*
X15718333Y-12095476D02*
X15604048Y-12095476D01*
X15661190Y-12095476D02*
X15661190Y-11895476D01*
X15642143Y-11924048D01*
X15623095Y-11943095D01*
X15604048Y-11952619D01*
X15956428Y-12095476D02*
X15956428Y-11895476D01*
X16042143Y-12095476D02*
X16042143Y-11990714D01*
X16032619Y-11971667D01*
X16013571Y-11962143D01*
X15985000Y-11962143D01*
X15965952Y-11971667D01*
X15956428Y-11981190D01*
X16165952Y-12095476D02*
X16146905Y-12085952D01*
X16137381Y-12076428D01*
X16127857Y-12057381D01*
X16127857Y-12000238D01*
X16137381Y-11981190D01*
X16146905Y-11971667D01*
X16165952Y-11962143D01*
X16194524Y-11962143D01*
X16213571Y-11971667D01*
X16223095Y-11981190D01*
X16232619Y-12000238D01*
X16232619Y-12057381D01*
X16223095Y-12076428D01*
X16213571Y-12085952D01*
X16194524Y-12095476D01*
X16165952Y-12095476D01*
X16346905Y-12095476D02*
X16327857Y-12085952D01*
X16318333Y-12066905D01*
X16318333Y-11895476D01*
X16499286Y-12085952D02*
X16480238Y-12095476D01*
X16442143Y-12095476D01*
X16423095Y-12085952D01*
X16413571Y-12066905D01*
X16413571Y-11990714D01*
X16423095Y-11971667D01*
X16442143Y-11962143D01*
X16480238Y-11962143D01*
X16499286Y-11971667D01*
X16508809Y-11990714D01*
X16508809Y-12009762D01*
X16413571Y-12028809D01*
X16585000Y-12085952D02*
X16604048Y-12095476D01*
X16642143Y-12095476D01*
X16661190Y-12085952D01*
X16670714Y-12066905D01*
X16670714Y-12057381D01*
X16661190Y-12038333D01*
X16642143Y-12028809D01*
X16613571Y-12028809D01*
X16594524Y-12019286D01*
X16585000Y-12000238D01*
X16585000Y-11990714D01*
X16594524Y-11971667D01*
X16613571Y-11962143D01*
X16642143Y-11962143D01*
X16661190Y-11971667D01*
X16737381Y-12171667D02*
X16746905Y-12162143D01*
X16765952Y-12133571D01*
X16775476Y-12114524D01*
X16785000Y-12085952D01*
X16794524Y-12038333D01*
X16794524Y-12000238D01*
X16785000Y-11952619D01*
X16775476Y-11924048D01*
X16765952Y-11905000D01*
X16746905Y-11876428D01*
X16737381Y-11866905D01*
D13*
X11775000Y-12269000D02*
G75*
G03*
X11775000Y-12269000I-30000J0D01*
G01*
D11*
X12070714Y-12159476D02*
X12089762Y-12159476D01*
X12108809Y-12169000D01*
X12118333Y-12178524D01*
X12127857Y-12197571D01*
X12137381Y-12235667D01*
X12137381Y-12283286D01*
X12127857Y-12321381D01*
X12118333Y-12340428D01*
X12108809Y-12349952D01*
X12089762Y-12359476D01*
X12070714Y-12359476D01*
X12051667Y-12349952D01*
X12042143Y-12340428D01*
X12032619Y-12321381D01*
X12023095Y-12283286D01*
X12023095Y-12235667D01*
X12032619Y-12197571D01*
X12042143Y-12178524D01*
X12051667Y-12169000D01*
X12070714Y-12159476D01*
X12223095Y-12340428D02*
X12232619Y-12349952D01*
X12223095Y-12359476D01*
X12213571Y-12349952D01*
X12223095Y-12340428D01*
X12223095Y-12359476D01*
X12404048Y-12159476D02*
X12365952Y-12159476D01*
X12346905Y-12169000D01*
X12337381Y-12178524D01*
X12318333Y-12207095D01*
X12308809Y-12245190D01*
X12308809Y-12321381D01*
X12318333Y-12340428D01*
X12327857Y-12349952D01*
X12346905Y-12359476D01*
X12385000Y-12359476D01*
X12404048Y-12349952D01*
X12413571Y-12340428D01*
X12423095Y-12321381D01*
X12423095Y-12273762D01*
X12413571Y-12254714D01*
X12404048Y-12245190D01*
X12385000Y-12235667D01*
X12346905Y-12235667D01*
X12327857Y-12245190D01*
X12318333Y-12254714D01*
X12308809Y-12273762D01*
X12546905Y-12159476D02*
X12565952Y-12159476D01*
X12585000Y-12169000D01*
X12594524Y-12178524D01*
X12604048Y-12197571D01*
X12613571Y-12235667D01*
X12613571Y-12283286D01*
X12604048Y-12321381D01*
X12594524Y-12340428D01*
X12585000Y-12349952D01*
X12565952Y-12359476D01*
X12546905Y-12359476D01*
X12527857Y-12349952D01*
X12518333Y-12340428D01*
X12508809Y-12321381D01*
X12499286Y-12283286D01*
X12499286Y-12235667D01*
X12508809Y-12197571D01*
X12518333Y-12178524D01*
X12527857Y-12169000D01*
X12546905Y-12159476D01*
X12737381Y-12159476D02*
X12756428Y-12159476D01*
X12775476Y-12169000D01*
X12785000Y-12178524D01*
X12794524Y-12197571D01*
X12804048Y-12235667D01*
X12804048Y-12283286D01*
X12794524Y-12321381D01*
X12785000Y-12340428D01*
X12775476Y-12349952D01*
X12756428Y-12359476D01*
X12737381Y-12359476D01*
X12718333Y-12349952D01*
X12708809Y-12340428D01*
X12699286Y-12321381D01*
X12689762Y-12283286D01*
X12689762Y-12235667D01*
X12699286Y-12197571D01*
X12708809Y-12178524D01*
X12718333Y-12169000D01*
X12737381Y-12159476D01*
X12889762Y-12359476D02*
X12889762Y-12226143D01*
X12889762Y-12245190D02*
X12899286Y-12235667D01*
X12918333Y-12226143D01*
X12946905Y-12226143D01*
X12965952Y-12235667D01*
X12975476Y-12254714D01*
X12975476Y-12359476D01*
X12975476Y-12254714D02*
X12985000Y-12235667D01*
X13004048Y-12226143D01*
X13032619Y-12226143D01*
X13051667Y-12235667D01*
X13061190Y-12254714D01*
X13061190Y-12359476D01*
X13156428Y-12359476D02*
X13156428Y-12226143D01*
X13156428Y-12245190D02*
X13165952Y-12235667D01*
X13185000Y-12226143D01*
X13213571Y-12226143D01*
X13232619Y-12235667D01*
X13242143Y-12254714D01*
X13242143Y-12359476D01*
X13242143Y-12254714D02*
X13251667Y-12235667D01*
X13270714Y-12226143D01*
X13299286Y-12226143D01*
X13318333Y-12235667D01*
X13327857Y-12254714D01*
X13327857Y-12359476D01*
X13718333Y-12149952D02*
X13546905Y-12407095D01*
X13975476Y-12159476D02*
X13994524Y-12159476D01*
X14013571Y-12169000D01*
X14023095Y-12178524D01*
X14032619Y-12197571D01*
X14042143Y-12235667D01*
X14042143Y-12283286D01*
X14032619Y-12321381D01*
X14023095Y-12340428D01*
X14013571Y-12349952D01*
X13994524Y-12359476D01*
X13975476Y-12359476D01*
X13956428Y-12349952D01*
X13946905Y-12340428D01*
X13937381Y-12321381D01*
X13927857Y-12283286D01*
X13927857Y-12235667D01*
X13937381Y-12197571D01*
X13946905Y-12178524D01*
X13956428Y-12169000D01*
X13975476Y-12159476D01*
X14127857Y-12340428D02*
X14137381Y-12349952D01*
X14127857Y-12359476D01*
X14118333Y-12349952D01*
X14127857Y-12340428D01*
X14127857Y-12359476D01*
X14261190Y-12159476D02*
X14280238Y-12159476D01*
X14299286Y-12169000D01*
X14308809Y-12178524D01*
X14318333Y-12197571D01*
X14327857Y-12235667D01*
X14327857Y-12283286D01*
X14318333Y-12321381D01*
X14308809Y-12340428D01*
X14299286Y-12349952D01*
X14280238Y-12359476D01*
X14261190Y-12359476D01*
X14242143Y-12349952D01*
X14232619Y-12340428D01*
X14223095Y-12321381D01*
X14213571Y-12283286D01*
X14213571Y-12235667D01*
X14223095Y-12197571D01*
X14232619Y-12178524D01*
X14242143Y-12169000D01*
X14261190Y-12159476D01*
X14404048Y-12178524D02*
X14413571Y-12169000D01*
X14432619Y-12159476D01*
X14480238Y-12159476D01*
X14499286Y-12169000D01*
X14508809Y-12178524D01*
X14518333Y-12197571D01*
X14518333Y-12216619D01*
X14508809Y-12245190D01*
X14394524Y-12359476D01*
X14518333Y-12359476D01*
X14585000Y-12159476D02*
X14708809Y-12159476D01*
X14642143Y-12235667D01*
X14670714Y-12235667D01*
X14689762Y-12245190D01*
X14699286Y-12254714D01*
X14708809Y-12273762D01*
X14708809Y-12321381D01*
X14699286Y-12340428D01*
X14689762Y-12349952D01*
X14670714Y-12359476D01*
X14613571Y-12359476D01*
X14594524Y-12349952D01*
X14585000Y-12340428D01*
X14880238Y-12159476D02*
X14842143Y-12159476D01*
X14823095Y-12169000D01*
X14813571Y-12178524D01*
X14794524Y-12207095D01*
X14785000Y-12245190D01*
X14785000Y-12321381D01*
X14794524Y-12340428D01*
X14804048Y-12349952D01*
X14823095Y-12359476D01*
X14861190Y-12359476D01*
X14880238Y-12349952D01*
X14889762Y-12340428D01*
X14899286Y-12321381D01*
X14899286Y-12273762D01*
X14889762Y-12254714D01*
X14880238Y-12245190D01*
X14861190Y-12235667D01*
X14823095Y-12235667D01*
X14804048Y-12245190D01*
X14794524Y-12254714D01*
X14785000Y-12273762D01*
X14975476Y-12159476D02*
X14975476Y-12197571D01*
X15051667Y-12159476D02*
X15051667Y-12197571D01*
X15346905Y-12435667D02*
X15337381Y-12426143D01*
X15318333Y-12397571D01*
X15308809Y-12378524D01*
X15299286Y-12349952D01*
X15289762Y-12302333D01*
X15289762Y-12264238D01*
X15299286Y-12216619D01*
X15308809Y-12188048D01*
X15318333Y-12169000D01*
X15337381Y-12140428D01*
X15346905Y-12130905D01*
X15461190Y-12159476D02*
X15480238Y-12159476D01*
X15499286Y-12169000D01*
X15508809Y-12178524D01*
X15518333Y-12197571D01*
X15527857Y-12235667D01*
X15527857Y-12283286D01*
X15518333Y-12321381D01*
X15508809Y-12340428D01*
X15499286Y-12349952D01*
X15480238Y-12359476D01*
X15461190Y-12359476D01*
X15442143Y-12349952D01*
X15432619Y-12340428D01*
X15423095Y-12321381D01*
X15413571Y-12283286D01*
X15413571Y-12235667D01*
X15423095Y-12197571D01*
X15432619Y-12178524D01*
X15442143Y-12169000D01*
X15461190Y-12159476D01*
X15765952Y-12359476D02*
X15765952Y-12159476D01*
X15851667Y-12359476D02*
X15851667Y-12254714D01*
X15842143Y-12235667D01*
X15823095Y-12226143D01*
X15794524Y-12226143D01*
X15775476Y-12235667D01*
X15765952Y-12245190D01*
X15975476Y-12359476D02*
X15956428Y-12349952D01*
X15946905Y-12340428D01*
X15937381Y-12321381D01*
X15937381Y-12264238D01*
X15946905Y-12245190D01*
X15956428Y-12235667D01*
X15975476Y-12226143D01*
X16004048Y-12226143D01*
X16023095Y-12235667D01*
X16032619Y-12245190D01*
X16042143Y-12264238D01*
X16042143Y-12321381D01*
X16032619Y-12340428D01*
X16023095Y-12349952D01*
X16004048Y-12359476D01*
X15975476Y-12359476D01*
X16156428Y-12359476D02*
X16137381Y-12349952D01*
X16127857Y-12330905D01*
X16127857Y-12159476D01*
X16308809Y-12349952D02*
X16289762Y-12359476D01*
X16251667Y-12359476D01*
X16232619Y-12349952D01*
X16223095Y-12330905D01*
X16223095Y-12254714D01*
X16232619Y-12235667D01*
X16251667Y-12226143D01*
X16289762Y-12226143D01*
X16308809Y-12235667D01*
X16318333Y-12254714D01*
X16318333Y-12273762D01*
X16223095Y-12292809D01*
X16394524Y-12349952D02*
X16413571Y-12359476D01*
X16451667Y-12359476D01*
X16470714Y-12349952D01*
X16480238Y-12330905D01*
X16480238Y-12321381D01*
X16470714Y-12302333D01*
X16451667Y-12292809D01*
X16423095Y-12292809D01*
X16404048Y-12283286D01*
X16394524Y-12264238D01*
X16394524Y-12254714D01*
X16404048Y-12235667D01*
X16423095Y-12226143D01*
X16451667Y-12226143D01*
X16470714Y-12235667D01*
X16718333Y-12283286D02*
X16870714Y-12283286D01*
X16794524Y-12359476D02*
X16794524Y-12207095D01*
X17204048Y-12226143D02*
X17204048Y-12359476D01*
X17156429Y-12149952D02*
X17108810Y-12292809D01*
X17232619Y-12292809D01*
X17451667Y-12349952D02*
X17470714Y-12359476D01*
X17508810Y-12359476D01*
X17527857Y-12349952D01*
X17537381Y-12330905D01*
X17537381Y-12321381D01*
X17527857Y-12302333D01*
X17508810Y-12292809D01*
X17480238Y-12292809D01*
X17461190Y-12283286D01*
X17451667Y-12264238D01*
X17451667Y-12254714D01*
X17461190Y-12235667D01*
X17480238Y-12226143D01*
X17508810Y-12226143D01*
X17527857Y-12235667D01*
X17651667Y-12359476D02*
X17632619Y-12349952D01*
X17623095Y-12330905D01*
X17623095Y-12159476D01*
X17756429Y-12359476D02*
X17737381Y-12349952D01*
X17727857Y-12340428D01*
X17718333Y-12321381D01*
X17718333Y-12264238D01*
X17727857Y-12245190D01*
X17737381Y-12235667D01*
X17756429Y-12226143D01*
X17785000Y-12226143D01*
X17804048Y-12235667D01*
X17813571Y-12245190D01*
X17823095Y-12264238D01*
X17823095Y-12321381D01*
X17813571Y-12340428D01*
X17804048Y-12349952D01*
X17785000Y-12359476D01*
X17756429Y-12359476D01*
X17880238Y-12226143D02*
X17956429Y-12226143D01*
X17908810Y-12159476D02*
X17908810Y-12330905D01*
X17918333Y-12349952D01*
X17937381Y-12359476D01*
X17956429Y-12359476D01*
X18013571Y-12349952D02*
X18032619Y-12359476D01*
X18070714Y-12359476D01*
X18089762Y-12349952D01*
X18099286Y-12330905D01*
X18099286Y-12321381D01*
X18089762Y-12302333D01*
X18070714Y-12292809D01*
X18042143Y-12292809D01*
X18023095Y-12283286D01*
X18013571Y-12264238D01*
X18013571Y-12254714D01*
X18023095Y-12235667D01*
X18042143Y-12226143D01*
X18070714Y-12226143D01*
X18089762Y-12235667D01*
X18165952Y-12435667D02*
X18175476Y-12426143D01*
X18194524Y-12397571D01*
X18204048Y-12378524D01*
X18213571Y-12349952D01*
X18223095Y-12302333D01*
X18223095Y-12264238D01*
X18213571Y-12216619D01*
X18204048Y-12188048D01*
X18194524Y-12169000D01*
X18175476Y-12140428D01*
X18165952Y-12130905D01*
D14*
X11735000Y-12493000D02*
X11735000Y-12573000D01*
X11695000Y-12533000D02*
X11775000Y-12533000D01*
D11*
X12070714Y-12423476D02*
X12089762Y-12423476D01*
X12108809Y-12433000D01*
X12118333Y-12442524D01*
X12127857Y-12461571D01*
X12137381Y-12499667D01*
X12137381Y-12547286D01*
X12127857Y-12585381D01*
X12118333Y-12604428D01*
X12108809Y-12613952D01*
X12089762Y-12623476D01*
X12070714Y-12623476D01*
X12051667Y-12613952D01*
X12042143Y-12604428D01*
X12032619Y-12585381D01*
X12023095Y-12547286D01*
X12023095Y-12499667D01*
X12032619Y-12461571D01*
X12042143Y-12442524D01*
X12051667Y-12433000D01*
X12070714Y-12423476D01*
X12223095Y-12604428D02*
X12232619Y-12613952D01*
X12223095Y-12623476D01*
X12213571Y-12613952D01*
X12223095Y-12604428D01*
X12223095Y-12623476D01*
X12346905Y-12509190D02*
X12327857Y-12499667D01*
X12318333Y-12490143D01*
X12308809Y-12471095D01*
X12308809Y-12461571D01*
X12318333Y-12442524D01*
X12327857Y-12433000D01*
X12346905Y-12423476D01*
X12385000Y-12423476D01*
X12404048Y-12433000D01*
X12413571Y-12442524D01*
X12423095Y-12461571D01*
X12423095Y-12471095D01*
X12413571Y-12490143D01*
X12404048Y-12499667D01*
X12385000Y-12509190D01*
X12346905Y-12509190D01*
X12327857Y-12518714D01*
X12318333Y-12528238D01*
X12308809Y-12547286D01*
X12308809Y-12585381D01*
X12318333Y-12604428D01*
X12327857Y-12613952D01*
X12346905Y-12623476D01*
X12385000Y-12623476D01*
X12404048Y-12613952D01*
X12413571Y-12604428D01*
X12423095Y-12585381D01*
X12423095Y-12547286D01*
X12413571Y-12528238D01*
X12404048Y-12518714D01*
X12385000Y-12509190D01*
X12546905Y-12423476D02*
X12565952Y-12423476D01*
X12585000Y-12433000D01*
X12594524Y-12442524D01*
X12604048Y-12461571D01*
X12613571Y-12499667D01*
X12613571Y-12547286D01*
X12604048Y-12585381D01*
X12594524Y-12604428D01*
X12585000Y-12613952D01*
X12565952Y-12623476D01*
X12546905Y-12623476D01*
X12527857Y-12613952D01*
X12518333Y-12604428D01*
X12508809Y-12585381D01*
X12499286Y-12547286D01*
X12499286Y-12499667D01*
X12508809Y-12461571D01*
X12518333Y-12442524D01*
X12527857Y-12433000D01*
X12546905Y-12423476D01*
X12737381Y-12423476D02*
X12756428Y-12423476D01*
X12775476Y-12433000D01*
X12785000Y-12442524D01*
X12794524Y-12461571D01*
X12804048Y-12499667D01*
X12804048Y-12547286D01*
X12794524Y-12585381D01*
X12785000Y-12604428D01*
X12775476Y-12613952D01*
X12756428Y-12623476D01*
X12737381Y-12623476D01*
X12718333Y-12613952D01*
X12708809Y-12604428D01*
X12699286Y-12585381D01*
X12689762Y-12547286D01*
X12689762Y-12499667D01*
X12699286Y-12461571D01*
X12708809Y-12442524D01*
X12718333Y-12433000D01*
X12737381Y-12423476D01*
X12889762Y-12623476D02*
X12889762Y-12490143D01*
X12889762Y-12509190D02*
X12899286Y-12499667D01*
X12918333Y-12490143D01*
X12946905Y-12490143D01*
X12965952Y-12499667D01*
X12975476Y-12518714D01*
X12975476Y-12623476D01*
X12975476Y-12518714D02*
X12985000Y-12499667D01*
X13004048Y-12490143D01*
X13032619Y-12490143D01*
X13051667Y-12499667D01*
X13061190Y-12518714D01*
X13061190Y-12623476D01*
X13156428Y-12623476D02*
X13156428Y-12490143D01*
X13156428Y-12509190D02*
X13165952Y-12499667D01*
X13185000Y-12490143D01*
X13213571Y-12490143D01*
X13232619Y-12499667D01*
X13242143Y-12518714D01*
X13242143Y-12623476D01*
X13242143Y-12518714D02*
X13251667Y-12499667D01*
X13270714Y-12490143D01*
X13299286Y-12490143D01*
X13318333Y-12499667D01*
X13327857Y-12518714D01*
X13327857Y-12623476D01*
X13718333Y-12413952D02*
X13546905Y-12671095D01*
X13975476Y-12423476D02*
X13994524Y-12423476D01*
X14013571Y-12433000D01*
X14023095Y-12442524D01*
X14032619Y-12461571D01*
X14042143Y-12499667D01*
X14042143Y-12547286D01*
X14032619Y-12585381D01*
X14023095Y-12604428D01*
X14013571Y-12613952D01*
X13994524Y-12623476D01*
X13975476Y-12623476D01*
X13956428Y-12613952D01*
X13946905Y-12604428D01*
X13937381Y-12585381D01*
X13927857Y-12547286D01*
X13927857Y-12499667D01*
X13937381Y-12461571D01*
X13946905Y-12442524D01*
X13956428Y-12433000D01*
X13975476Y-12423476D01*
X14127857Y-12604428D02*
X14137381Y-12613952D01*
X14127857Y-12623476D01*
X14118333Y-12613952D01*
X14127857Y-12604428D01*
X14127857Y-12623476D01*
X14261190Y-12423476D02*
X14280238Y-12423476D01*
X14299286Y-12433000D01*
X14308809Y-12442524D01*
X14318333Y-12461571D01*
X14327857Y-12499667D01*
X14327857Y-12547286D01*
X14318333Y-12585381D01*
X14308809Y-12604428D01*
X14299286Y-12613952D01*
X14280238Y-12623476D01*
X14261190Y-12623476D01*
X14242143Y-12613952D01*
X14232619Y-12604428D01*
X14223095Y-12585381D01*
X14213571Y-12547286D01*
X14213571Y-12499667D01*
X14223095Y-12461571D01*
X14232619Y-12442524D01*
X14242143Y-12433000D01*
X14261190Y-12423476D01*
X14394524Y-12423476D02*
X14518333Y-12423476D01*
X14451667Y-12499667D01*
X14480238Y-12499667D01*
X14499286Y-12509190D01*
X14508809Y-12518714D01*
X14518333Y-12537762D01*
X14518333Y-12585381D01*
X14508809Y-12604428D01*
X14499286Y-12613952D01*
X14480238Y-12623476D01*
X14423095Y-12623476D01*
X14404048Y-12613952D01*
X14394524Y-12604428D01*
X14708809Y-12623476D02*
X14594524Y-12623476D01*
X14651667Y-12623476D02*
X14651667Y-12423476D01*
X14632619Y-12452048D01*
X14613571Y-12471095D01*
X14594524Y-12480619D01*
X14889762Y-12423476D02*
X14794524Y-12423476D01*
X14785000Y-12518714D01*
X14794524Y-12509190D01*
X14813571Y-12499667D01*
X14861190Y-12499667D01*
X14880238Y-12509190D01*
X14889762Y-12518714D01*
X14899286Y-12537762D01*
X14899286Y-12585381D01*
X14889762Y-12604428D01*
X14880238Y-12613952D01*
X14861190Y-12623476D01*
X14813571Y-12623476D01*
X14794524Y-12613952D01*
X14785000Y-12604428D01*
X14975476Y-12423476D02*
X14975476Y-12461571D01*
X15051667Y-12423476D02*
X15051667Y-12461571D01*
X15346905Y-12699667D02*
X15337381Y-12690143D01*
X15318333Y-12661571D01*
X15308809Y-12642524D01*
X15299286Y-12613952D01*
X15289762Y-12566333D01*
X15289762Y-12528238D01*
X15299286Y-12480619D01*
X15308809Y-12452048D01*
X15318333Y-12433000D01*
X15337381Y-12404428D01*
X15346905Y-12394905D01*
X15461190Y-12423476D02*
X15480238Y-12423476D01*
X15499286Y-12433000D01*
X15508809Y-12442524D01*
X15518333Y-12461571D01*
X15527857Y-12499667D01*
X15527857Y-12547286D01*
X15518333Y-12585381D01*
X15508809Y-12604428D01*
X15499286Y-12613952D01*
X15480238Y-12623476D01*
X15461190Y-12623476D01*
X15442143Y-12613952D01*
X15432619Y-12604428D01*
X15423095Y-12585381D01*
X15413571Y-12547286D01*
X15413571Y-12499667D01*
X15423095Y-12461571D01*
X15432619Y-12442524D01*
X15442143Y-12433000D01*
X15461190Y-12423476D01*
X15765952Y-12623476D02*
X15765952Y-12423476D01*
X15851667Y-12623476D02*
X15851667Y-12518714D01*
X15842143Y-12499667D01*
X15823095Y-12490143D01*
X15794524Y-12490143D01*
X15775476Y-12499667D01*
X15765952Y-12509190D01*
X15975476Y-12623476D02*
X15956428Y-12613952D01*
X15946905Y-12604428D01*
X15937381Y-12585381D01*
X15937381Y-12528238D01*
X15946905Y-12509190D01*
X15956428Y-12499667D01*
X15975476Y-12490143D01*
X16004048Y-12490143D01*
X16023095Y-12499667D01*
X16032619Y-12509190D01*
X16042143Y-12528238D01*
X16042143Y-12585381D01*
X16032619Y-12604428D01*
X16023095Y-12613952D01*
X16004048Y-12623476D01*
X15975476Y-12623476D01*
X16156428Y-12623476D02*
X16137381Y-12613952D01*
X16127857Y-12594905D01*
X16127857Y-12423476D01*
X16308809Y-12613952D02*
X16289762Y-12623476D01*
X16251667Y-12623476D01*
X16232619Y-12613952D01*
X16223095Y-12594905D01*
X16223095Y-12518714D01*
X16232619Y-12499667D01*
X16251667Y-12490143D01*
X16289762Y-12490143D01*
X16308809Y-12499667D01*
X16318333Y-12518714D01*
X16318333Y-12537762D01*
X16223095Y-12556809D01*
X16394524Y-12613952D02*
X16413571Y-12623476D01*
X16451667Y-12623476D01*
X16470714Y-12613952D01*
X16480238Y-12594905D01*
X16480238Y-12585381D01*
X16470714Y-12566333D01*
X16451667Y-12556809D01*
X16423095Y-12556809D01*
X16404048Y-12547286D01*
X16394524Y-12528238D01*
X16394524Y-12518714D01*
X16404048Y-12499667D01*
X16423095Y-12490143D01*
X16451667Y-12490143D01*
X16470714Y-12499667D01*
X16718333Y-12547286D02*
X16870714Y-12547286D01*
X16794524Y-12623476D02*
X16794524Y-12471095D01*
X17099286Y-12423476D02*
X17223095Y-12423476D01*
X17156429Y-12499667D01*
X17185000Y-12499667D01*
X17204048Y-12509190D01*
X17213571Y-12518714D01*
X17223095Y-12537762D01*
X17223095Y-12585381D01*
X17213571Y-12604428D01*
X17204048Y-12613952D01*
X17185000Y-12623476D01*
X17127857Y-12623476D01*
X17108810Y-12613952D01*
X17099286Y-12604428D01*
X17451667Y-12613952D02*
X17470714Y-12623476D01*
X17508810Y-12623476D01*
X17527857Y-12613952D01*
X17537381Y-12594905D01*
X17537381Y-12585381D01*
X17527857Y-12566333D01*
X17508810Y-12556809D01*
X17480238Y-12556809D01*
X17461190Y-12547286D01*
X17451667Y-12528238D01*
X17451667Y-12518714D01*
X17461190Y-12499667D01*
X17480238Y-12490143D01*
X17508810Y-12490143D01*
X17527857Y-12499667D01*
X17651667Y-12623476D02*
X17632619Y-12613952D01*
X17623095Y-12594905D01*
X17623095Y-12423476D01*
X17756429Y-12623476D02*
X17737381Y-12613952D01*
X17727857Y-12604428D01*
X17718333Y-12585381D01*
X17718333Y-12528238D01*
X17727857Y-12509190D01*
X17737381Y-12499667D01*
X17756429Y-12490143D01*
X17785000Y-12490143D01*
X17804048Y-12499667D01*
X17813571Y-12509190D01*
X17823095Y-12528238D01*
X17823095Y-12585381D01*
X17813571Y-12604428D01*
X17804048Y-12613952D01*
X17785000Y-12623476D01*
X17756429Y-12623476D01*
X17880238Y-12490143D02*
X17956429Y-12490143D01*
X17908810Y-12423476D02*
X17908810Y-12594905D01*
X17918333Y-12613952D01*
X17937381Y-12623476D01*
X17956429Y-12623476D01*
X18013571Y-12613952D02*
X18032619Y-12623476D01*
X18070714Y-12623476D01*
X18089762Y-12613952D01*
X18099286Y-12594905D01*
X18099286Y-12585381D01*
X18089762Y-12566333D01*
X18070714Y-12556809D01*
X18042143Y-12556809D01*
X18023095Y-12547286D01*
X18013571Y-12528238D01*
X18013571Y-12518714D01*
X18023095Y-12499667D01*
X18042143Y-12490143D01*
X18070714Y-12490143D01*
X18089762Y-12499667D01*
X18165952Y-12699667D02*
X18175476Y-12690143D01*
X18194524Y-12661571D01*
X18204048Y-12642524D01*
X18213571Y-12613952D01*
X18223095Y-12566333D01*
X18223095Y-12528238D01*
X18213571Y-12480619D01*
X18204048Y-12452048D01*
X18194524Y-12433000D01*
X18175476Y-12404428D01*
X18165952Y-12394905D01*
D10*
X11760356Y-12832356D02*
X11760356Y-12761644D01*
X11689644Y-12761644D01*
X11689644Y-12832356D01*
X11760356Y-12832356D01*
D11*
X12137381Y-12887476D02*
X12023095Y-12887476D01*
X12080238Y-12887476D02*
X12080238Y-12687476D01*
X12061190Y-12716048D01*
X12042143Y-12735095D01*
X12023095Y-12744619D01*
X12223095Y-12868428D02*
X12232619Y-12877952D01*
X12223095Y-12887476D01*
X12213571Y-12877952D01*
X12223095Y-12868428D01*
X12223095Y-12887476D01*
X12356428Y-12687476D02*
X12375476Y-12687476D01*
X12394524Y-12697000D01*
X12404048Y-12706524D01*
X12413571Y-12725571D01*
X12423095Y-12763667D01*
X12423095Y-12811286D01*
X12413571Y-12849381D01*
X12404048Y-12868428D01*
X12394524Y-12877952D01*
X12375476Y-12887476D01*
X12356428Y-12887476D01*
X12337381Y-12877952D01*
X12327857Y-12868428D01*
X12318333Y-12849381D01*
X12308809Y-12811286D01*
X12308809Y-12763667D01*
X12318333Y-12725571D01*
X12327857Y-12706524D01*
X12337381Y-12697000D01*
X12356428Y-12687476D01*
X12546905Y-12687476D02*
X12565952Y-12687476D01*
X12585000Y-12697000D01*
X12594524Y-12706524D01*
X12604048Y-12725571D01*
X12613571Y-12763667D01*
X12613571Y-12811286D01*
X12604048Y-12849381D01*
X12594524Y-12868428D01*
X12585000Y-12877952D01*
X12565952Y-12887476D01*
X12546905Y-12887476D01*
X12527857Y-12877952D01*
X12518333Y-12868428D01*
X12508809Y-12849381D01*
X12499286Y-12811286D01*
X12499286Y-12763667D01*
X12508809Y-12725571D01*
X12518333Y-12706524D01*
X12527857Y-12697000D01*
X12546905Y-12687476D01*
X12737381Y-12687476D02*
X12756428Y-12687476D01*
X12775476Y-12697000D01*
X12785000Y-12706524D01*
X12794524Y-12725571D01*
X12804048Y-12763667D01*
X12804048Y-12811286D01*
X12794524Y-12849381D01*
X12785000Y-12868428D01*
X12775476Y-12877952D01*
X12756428Y-12887476D01*
X12737381Y-12887476D01*
X12718333Y-12877952D01*
X12708809Y-12868428D01*
X12699286Y-12849381D01*
X12689762Y-12811286D01*
X12689762Y-12763667D01*
X12699286Y-12725571D01*
X12708809Y-12706524D01*
X12718333Y-12697000D01*
X12737381Y-12687476D01*
X12889762Y-12887476D02*
X12889762Y-12754143D01*
X12889762Y-12773190D02*
X12899286Y-12763667D01*
X12918333Y-12754143D01*
X12946905Y-12754143D01*
X12965952Y-12763667D01*
X12975476Y-12782714D01*
X12975476Y-12887476D01*
X12975476Y-12782714D02*
X12985000Y-12763667D01*
X13004048Y-12754143D01*
X13032619Y-12754143D01*
X13051667Y-12763667D01*
X13061190Y-12782714D01*
X13061190Y-12887476D01*
X13156428Y-12887476D02*
X13156428Y-12754143D01*
X13156428Y-12773190D02*
X13165952Y-12763667D01*
X13185000Y-12754143D01*
X13213571Y-12754143D01*
X13232619Y-12763667D01*
X13242143Y-12782714D01*
X13242143Y-12887476D01*
X13242143Y-12782714D02*
X13251667Y-12763667D01*
X13270714Y-12754143D01*
X13299286Y-12754143D01*
X13318333Y-12763667D01*
X13327857Y-12782714D01*
X13327857Y-12887476D01*
X13718333Y-12677952D02*
X13546905Y-12935095D01*
X13975476Y-12687476D02*
X13994524Y-12687476D01*
X14013571Y-12697000D01*
X14023095Y-12706524D01*
X14032619Y-12725571D01*
X14042143Y-12763667D01*
X14042143Y-12811286D01*
X14032619Y-12849381D01*
X14023095Y-12868428D01*
X14013571Y-12877952D01*
X13994524Y-12887476D01*
X13975476Y-12887476D01*
X13956428Y-12877952D01*
X13946905Y-12868428D01*
X13937381Y-12849381D01*
X13927857Y-12811286D01*
X13927857Y-12763667D01*
X13937381Y-12725571D01*
X13946905Y-12706524D01*
X13956428Y-12697000D01*
X13975476Y-12687476D01*
X14127857Y-12868428D02*
X14137381Y-12877952D01*
X14127857Y-12887476D01*
X14118333Y-12877952D01*
X14127857Y-12868428D01*
X14127857Y-12887476D01*
X14261190Y-12687476D02*
X14280238Y-12687476D01*
X14299286Y-12697000D01*
X14308809Y-12706524D01*
X14318333Y-12725571D01*
X14327857Y-12763667D01*
X14327857Y-12811286D01*
X14318333Y-12849381D01*
X14308809Y-12868428D01*
X14299286Y-12877952D01*
X14280238Y-12887476D01*
X14261190Y-12887476D01*
X14242143Y-12877952D01*
X14232619Y-12868428D01*
X14223095Y-12849381D01*
X14213571Y-12811286D01*
X14213571Y-12763667D01*
X14223095Y-12725571D01*
X14232619Y-12706524D01*
X14242143Y-12697000D01*
X14261190Y-12687476D01*
X14394524Y-12687476D02*
X14518333Y-12687476D01*
X14451667Y-12763667D01*
X14480238Y-12763667D01*
X14499286Y-12773190D01*
X14508809Y-12782714D01*
X14518333Y-12801762D01*
X14518333Y-12849381D01*
X14508809Y-12868428D01*
X14499286Y-12877952D01*
X14480238Y-12887476D01*
X14423095Y-12887476D01*
X14404048Y-12877952D01*
X14394524Y-12868428D01*
X14613571Y-12887476D02*
X14651667Y-12887476D01*
X14670714Y-12877952D01*
X14680238Y-12868428D01*
X14699286Y-12839857D01*
X14708809Y-12801762D01*
X14708809Y-12725571D01*
X14699286Y-12706524D01*
X14689762Y-12697000D01*
X14670714Y-12687476D01*
X14632619Y-12687476D01*
X14613571Y-12697000D01*
X14604048Y-12706524D01*
X14594524Y-12725571D01*
X14594524Y-12773190D01*
X14604048Y-12792238D01*
X14613571Y-12801762D01*
X14632619Y-12811286D01*
X14670714Y-12811286D01*
X14689762Y-12801762D01*
X14699286Y-12792238D01*
X14708809Y-12773190D01*
X14880238Y-12754143D02*
X14880238Y-12887476D01*
X14832619Y-12677952D02*
X14785000Y-12820809D01*
X14908809Y-12820809D01*
X14975476Y-12687476D02*
X14975476Y-12725571D01*
X15051667Y-12687476D02*
X15051667Y-12725571D01*
X15346905Y-12963667D02*
X15337381Y-12954143D01*
X15318333Y-12925571D01*
X15308809Y-12906524D01*
X15299286Y-12877952D01*
X15289762Y-12830333D01*
X15289762Y-12792238D01*
X15299286Y-12744619D01*
X15308809Y-12716048D01*
X15318333Y-12697000D01*
X15337381Y-12668428D01*
X15346905Y-12658905D01*
X15413571Y-12706524D02*
X15423095Y-12697000D01*
X15442143Y-12687476D01*
X15489762Y-12687476D01*
X15508809Y-12697000D01*
X15518333Y-12706524D01*
X15527857Y-12725571D01*
X15527857Y-12744619D01*
X15518333Y-12773190D01*
X15404048Y-12887476D01*
X15527857Y-12887476D01*
X15623095Y-12887476D02*
X15661190Y-12887476D01*
X15680238Y-12877952D01*
X15689762Y-12868428D01*
X15708809Y-12839857D01*
X15718333Y-12801762D01*
X15718333Y-12725571D01*
X15708809Y-12706524D01*
X15699286Y-12697000D01*
X15680238Y-12687476D01*
X15642143Y-12687476D01*
X15623095Y-12697000D01*
X15613571Y-12706524D01*
X15604048Y-12725571D01*
X15604048Y-12773190D01*
X15613571Y-12792238D01*
X15623095Y-12801762D01*
X15642143Y-12811286D01*
X15680238Y-12811286D01*
X15699286Y-12801762D01*
X15708809Y-12792238D01*
X15718333Y-12773190D01*
X15956428Y-12887476D02*
X15956428Y-12687476D01*
X16042143Y-12887476D02*
X16042143Y-12782714D01*
X16032619Y-12763667D01*
X16013571Y-12754143D01*
X15985000Y-12754143D01*
X15965952Y-12763667D01*
X15956428Y-12773190D01*
X16165952Y-12887476D02*
X16146905Y-12877952D01*
X16137381Y-12868428D01*
X16127857Y-12849381D01*
X16127857Y-12792238D01*
X16137381Y-12773190D01*
X16146905Y-12763667D01*
X16165952Y-12754143D01*
X16194524Y-12754143D01*
X16213571Y-12763667D01*
X16223095Y-12773190D01*
X16232619Y-12792238D01*
X16232619Y-12849381D01*
X16223095Y-12868428D01*
X16213571Y-12877952D01*
X16194524Y-12887476D01*
X16165952Y-12887476D01*
X16346905Y-12887476D02*
X16327857Y-12877952D01*
X16318333Y-12858905D01*
X16318333Y-12687476D01*
X16499286Y-12877952D02*
X16480238Y-12887476D01*
X16442143Y-12887476D01*
X16423095Y-12877952D01*
X16413571Y-12858905D01*
X16413571Y-12782714D01*
X16423095Y-12763667D01*
X16442143Y-12754143D01*
X16480238Y-12754143D01*
X16499286Y-12763667D01*
X16508809Y-12782714D01*
X16508809Y-12801762D01*
X16413571Y-12820809D01*
X16585000Y-12877952D02*
X16604048Y-12887476D01*
X16642143Y-12887476D01*
X16661190Y-12877952D01*
X16670714Y-12858905D01*
X16670714Y-12849381D01*
X16661190Y-12830333D01*
X16642143Y-12820809D01*
X16613571Y-12820809D01*
X16594524Y-12811286D01*
X16585000Y-12792238D01*
X16585000Y-12782714D01*
X16594524Y-12763667D01*
X16613571Y-12754143D01*
X16642143Y-12754143D01*
X16661190Y-12763667D01*
X16737381Y-12963667D02*
X16746905Y-12954143D01*
X16765952Y-12925571D01*
X16775476Y-12906524D01*
X16785000Y-12877952D01*
X16794524Y-12830333D01*
X16794524Y-12792238D01*
X16785000Y-12744619D01*
X16775476Y-12716048D01*
X16765952Y-12697000D01*
X16746905Y-12668428D01*
X16737381Y-12658905D01*
M02*
