%TF.GenerationSoftware,KiCad,Pcbnew,(6.0.9)*%
%TF.CreationDate,2023-07-14T01:44:04+02:00*%
%TF.ProjectId,Arduino_ESP,41726475-696e-46f5-9f45-53502e6b6963,rev?*%
%TF.SameCoordinates,Original*%
%TF.FileFunction,Profile,NP*%
%FSLAX46Y46*%
G04 Gerber Fmt 4.6, Leading zero omitted, Abs format (unit mm)*
G04 Created by KiCad (PCBNEW (6.0.9)) date 2023-07-14 01:44:04*
%MOMM*%
%LPD*%
G01*
G04 APERTURE LIST*
%TA.AperFunction,Profile*%
%ADD10C,0.100000*%
%TD*%
G04 APERTURE END LIST*
D10*
X183300000Y-113600000D02*
G75*
G03*
X183600000Y-113300000I0J300000D01*
G01*
X183600000Y-60600000D02*
X183600000Y-72300000D01*
X183600000Y-113300000D02*
X183600000Y-111600000D01*
X185800000Y-106100000D02*
G75*
G03*
X185800000Y-106100000I-1600000J0D01*
G01*
X117800000Y-113300000D02*
G75*
G03*
X118100000Y-113600000I300000J0D01*
G01*
X186600000Y-82900000D02*
X186600000Y-74800000D01*
X134400000Y-63300000D02*
G75*
G03*
X134400000Y-63300000I-1600000J0D01*
G01*
X186600000Y-101400000D02*
X186600000Y-109100000D01*
X183300000Y-60300000D02*
X118100000Y-60300000D01*
X185800000Y-78100000D02*
G75*
G03*
X185800000Y-78100000I-1600000J0D01*
G01*
X186600000Y-109100000D02*
X183600000Y-111600000D01*
X118100000Y-113600000D02*
X183300000Y-113600000D01*
X118100000Y-60300000D02*
G75*
G03*
X117800000Y-60600000I0J-300000D01*
G01*
X134400000Y-111000000D02*
G75*
G03*
X134400000Y-111000000I-1600000J0D01*
G01*
X186600000Y-74800000D02*
X183600000Y-72300000D01*
X180200000Y-101400000D02*
X186600000Y-101400000D01*
X186600000Y-82900000D02*
X180200000Y-82900000D01*
X183600000Y-60600000D02*
G75*
G03*
X183300000Y-60300000I-300000J0D01*
G01*
X180200000Y-82900000D02*
X180200000Y-101400000D01*
X117800000Y-60600000D02*
X117800000Y-113300000D01*
M02*
