M48
; DRILL file {KiCad 8.0.5} date 2024-12-12T18:20:34+0100
; FORMAT={-:-/ absolute / inch / decimal}
; #@! TF.CreationDate,2024-12-12T18:20:34+01:00
; #@! TF.GenerationSoftware,Kicad,Pcbnew,8.0.5
; #@! TF.FileFunction,Plated,1,4,PTH
FMAT,2
INCH
; #@! TA.AperFunction,Plated,PTH,ViaDrill
T1C0.0157
; #@! TA.AperFunction,Plated,PTH,ComponentDrill
T2C0.0236
; #@! TA.AperFunction,Plated,PTH,ComponentDrill
T3C0.0394
%
G90
G05
T1
X4.798Y-3.108
X4.802Y-3.74
X5.03Y-3.406
X5.03Y-3.4454
X5.048Y-2.59
X5.07Y-3.424
X5.164Y-3.084
X5.202Y-3.726
X5.26Y-3.676
X5.3211Y-2.7589
X5.378Y-3.012
X5.464Y-3.778
X5.464Y-3.868
X5.48Y-3.0741
X5.498Y-3.508
X5.498Y-3.558
X5.506Y-3.358
X5.506Y-3.408
X5.562Y-4.005
X5.603Y-3.776
X5.708Y-3.821
X5.73Y-3.074
X5.8795Y-2.71
X5.976Y-3.908
X5.9795Y-2.874
X6.038Y-3.39
X6.05Y-3.822
X6.072Y-2.78
X6.088Y-3.774
X6.114Y-2.78
X6.302Y-3.896
X6.304Y-3.354
X6.308Y-2.706
X6.354Y-3.354
X6.354Y-3.454
X6.354Y-3.898
X6.386Y-2.666
X6.404Y-3.354
X6.404Y-3.896
X6.452Y-3.896
X6.454Y-3.354
X6.503Y-3.356
X6.554Y-3.358
X6.604Y-3.358
X6.604Y-3.896
X6.654Y-3.356
X6.654Y-3.896
X6.702Y-3.356
X6.704Y-3.896
X6.752Y-3.356
X6.804Y-3.356
X6.804Y-3.896
X6.854Y-3.356
X6.854Y-3.896
X6.902Y-3.896
X6.904Y-3.356
X6.952Y-3.896
X7.004Y-3.896
X7.024Y-2.72
X7.058Y-2.754
T3
X5.5795Y-2.4724
X5.6795Y-2.4724
X5.7795Y-2.4724
X5.8331Y-4.374
X5.8795Y-2.4724
X5.9331Y-4.374
X5.9795Y-2.4724
X6.0331Y-4.374
X6.0795Y-2.4724
X6.1331Y-4.374
X6.1795Y-2.4724
X6.2331Y-4.374
X6.2795Y-2.4724
X6.3331Y-4.374
X6.4299Y-2.4724
X6.4331Y-4.374
X6.5299Y-2.4724
X6.6299Y-2.4724
X6.6299Y-4.374
X6.7299Y-2.4724
X6.7299Y-4.374
X6.8299Y-2.4724
X6.8299Y-4.374
X6.9299Y-2.4724
X6.9299Y-4.374
X7.0299Y-2.4724
X7.0299Y-4.374
X7.1299Y-2.4724
X7.1299Y-4.374
T2
G00X4.7632Y-3.2531
M15
G01X4.7396Y-3.2531
M16
G05
G00X4.7632Y-3.5933
M15
G01X4.7396Y-3.5933
M16
G05
G00X4.9376Y-3.2531
M15
G01X4.8943Y-3.2531
M16
G05
G00X4.9376Y-3.5933
M15
G01X4.8943Y-3.5933
M16
G05
M30
