%TF.GenerationSoftware,KiCad,Pcbnew,8.0.5*%
%TF.CreationDate,2024-12-12T18:20:32+01:00*%
%TF.ProjectId,Arduino_ESP,41726475-696e-46f5-9f45-53502e6b6963,rev?*%
%TF.SameCoordinates,Original*%
%TF.FileFunction,Legend,Top*%
%TF.FilePolarity,Positive*%
%FSLAX46Y46*%
G04 Gerber Fmt 4.6, Leading zero omitted, Abs format (unit mm)*
G04 Created by KiCad (PCBNEW 8.0.5) date 2024-12-12 18:20:32*
%MOMM*%
%LPD*%
G01*
G04 APERTURE LIST*
%ADD10C,0.150000*%
%ADD11C,0.120000*%
%ADD12C,0.100000*%
%ADD13C,0.200000*%
G04 APERTURE END LIST*
D10*
X147754180Y-107635752D02*
X148230371Y-107302419D01*
X147754180Y-107064324D02*
X148754180Y-107064324D01*
X148754180Y-107064324D02*
X148754180Y-107445276D01*
X148754180Y-107445276D02*
X148706561Y-107540514D01*
X148706561Y-107540514D02*
X148658942Y-107588133D01*
X148658942Y-107588133D02*
X148563704Y-107635752D01*
X148563704Y-107635752D02*
X148420847Y-107635752D01*
X148420847Y-107635752D02*
X148325609Y-107588133D01*
X148325609Y-107588133D02*
X148277990Y-107540514D01*
X148277990Y-107540514D02*
X148230371Y-107445276D01*
X148230371Y-107445276D02*
X148230371Y-107064324D01*
X148277990Y-108064324D02*
X148277990Y-108397657D01*
X147754180Y-108540514D02*
X147754180Y-108064324D01*
X147754180Y-108064324D02*
X148754180Y-108064324D01*
X148754180Y-108064324D02*
X148754180Y-108540514D01*
X147801800Y-108921467D02*
X147754180Y-109064324D01*
X147754180Y-109064324D02*
X147754180Y-109302419D01*
X147754180Y-109302419D02*
X147801800Y-109397657D01*
X147801800Y-109397657D02*
X147849419Y-109445276D01*
X147849419Y-109445276D02*
X147944657Y-109492895D01*
X147944657Y-109492895D02*
X148039895Y-109492895D01*
X148039895Y-109492895D02*
X148135133Y-109445276D01*
X148135133Y-109445276D02*
X148182752Y-109397657D01*
X148182752Y-109397657D02*
X148230371Y-109302419D01*
X148230371Y-109302419D02*
X148277990Y-109111943D01*
X148277990Y-109111943D02*
X148325609Y-109016705D01*
X148325609Y-109016705D02*
X148373228Y-108969086D01*
X148373228Y-108969086D02*
X148468466Y-108921467D01*
X148468466Y-108921467D02*
X148563704Y-108921467D01*
X148563704Y-108921467D02*
X148658942Y-108969086D01*
X148658942Y-108969086D02*
X148706561Y-109016705D01*
X148706561Y-109016705D02*
X148754180Y-109111943D01*
X148754180Y-109111943D02*
X148754180Y-109350038D01*
X148754180Y-109350038D02*
X148706561Y-109492895D01*
X158845180Y-106524610D02*
X158845180Y-107143657D01*
X158845180Y-107143657D02*
X158464228Y-106810324D01*
X158464228Y-106810324D02*
X158464228Y-106953181D01*
X158464228Y-106953181D02*
X158416609Y-107048419D01*
X158416609Y-107048419D02*
X158368990Y-107096038D01*
X158368990Y-107096038D02*
X158273752Y-107143657D01*
X158273752Y-107143657D02*
X158035657Y-107143657D01*
X158035657Y-107143657D02*
X157940419Y-107096038D01*
X157940419Y-107096038D02*
X157892800Y-107048419D01*
X157892800Y-107048419D02*
X157845180Y-106953181D01*
X157845180Y-106953181D02*
X157845180Y-106667467D01*
X157845180Y-106667467D02*
X157892800Y-106572229D01*
X157892800Y-106572229D02*
X157940419Y-106524610D01*
X157940419Y-107572229D02*
X157892800Y-107619848D01*
X157892800Y-107619848D02*
X157845180Y-107572229D01*
X157845180Y-107572229D02*
X157892800Y-107524610D01*
X157892800Y-107524610D02*
X157940419Y-107572229D01*
X157940419Y-107572229D02*
X157845180Y-107572229D01*
X158845180Y-107953181D02*
X158845180Y-108572228D01*
X158845180Y-108572228D02*
X158464228Y-108238895D01*
X158464228Y-108238895D02*
X158464228Y-108381752D01*
X158464228Y-108381752D02*
X158416609Y-108476990D01*
X158416609Y-108476990D02*
X158368990Y-108524609D01*
X158368990Y-108524609D02*
X158273752Y-108572228D01*
X158273752Y-108572228D02*
X158035657Y-108572228D01*
X158035657Y-108572228D02*
X157940419Y-108524609D01*
X157940419Y-108524609D02*
X157892800Y-108476990D01*
X157892800Y-108476990D02*
X157845180Y-108381752D01*
X157845180Y-108381752D02*
X157845180Y-108096038D01*
X157845180Y-108096038D02*
X157892800Y-108000800D01*
X157892800Y-108000800D02*
X157940419Y-107953181D01*
X158845180Y-108857943D02*
X157845180Y-109191276D01*
X157845180Y-109191276D02*
X158845180Y-109524609D01*
X170730895Y-107985714D02*
X170730895Y-108461904D01*
X170445180Y-107890476D02*
X171445180Y-108223809D01*
X171445180Y-108223809D02*
X170445180Y-108557142D01*
X170445180Y-109414285D02*
X170445180Y-108842857D01*
X170445180Y-109128571D02*
X171445180Y-109128571D01*
X171445180Y-109128571D02*
X171302323Y-109033333D01*
X171302323Y-109033333D02*
X171207085Y-108938095D01*
X171207085Y-108938095D02*
X171159466Y-108842857D01*
X151167180Y-108445323D02*
X151167180Y-107969133D01*
X151167180Y-107969133D02*
X150690990Y-107921514D01*
X150690990Y-107921514D02*
X150738609Y-107969133D01*
X150738609Y-107969133D02*
X150786228Y-108064371D01*
X150786228Y-108064371D02*
X150786228Y-108302466D01*
X150786228Y-108302466D02*
X150738609Y-108397704D01*
X150738609Y-108397704D02*
X150690990Y-108445323D01*
X150690990Y-108445323D02*
X150595752Y-108492942D01*
X150595752Y-108492942D02*
X150357657Y-108492942D01*
X150357657Y-108492942D02*
X150262419Y-108445323D01*
X150262419Y-108445323D02*
X150214800Y-108397704D01*
X150214800Y-108397704D02*
X150167180Y-108302466D01*
X150167180Y-108302466D02*
X150167180Y-108064371D01*
X150167180Y-108064371D02*
X150214800Y-107969133D01*
X150214800Y-107969133D02*
X150262419Y-107921514D01*
X151167180Y-108778657D02*
X150167180Y-109111990D01*
X150167180Y-109111990D02*
X151167180Y-109445323D01*
X163819561Y-107365895D02*
X163867180Y-107270657D01*
X163867180Y-107270657D02*
X163867180Y-107127800D01*
X163867180Y-107127800D02*
X163819561Y-106984943D01*
X163819561Y-106984943D02*
X163724323Y-106889705D01*
X163724323Y-106889705D02*
X163629085Y-106842086D01*
X163629085Y-106842086D02*
X163438609Y-106794467D01*
X163438609Y-106794467D02*
X163295752Y-106794467D01*
X163295752Y-106794467D02*
X163105276Y-106842086D01*
X163105276Y-106842086D02*
X163010038Y-106889705D01*
X163010038Y-106889705D02*
X162914800Y-106984943D01*
X162914800Y-106984943D02*
X162867180Y-107127800D01*
X162867180Y-107127800D02*
X162867180Y-107223038D01*
X162867180Y-107223038D02*
X162914800Y-107365895D01*
X162914800Y-107365895D02*
X162962419Y-107413514D01*
X162962419Y-107413514D02*
X163295752Y-107413514D01*
X163295752Y-107413514D02*
X163295752Y-107223038D01*
X162867180Y-107842086D02*
X163867180Y-107842086D01*
X163867180Y-107842086D02*
X162867180Y-108413514D01*
X162867180Y-108413514D02*
X163867180Y-108413514D01*
X162867180Y-108889705D02*
X163867180Y-108889705D01*
X163867180Y-108889705D02*
X163867180Y-109127800D01*
X163867180Y-109127800D02*
X163819561Y-109270657D01*
X163819561Y-109270657D02*
X163724323Y-109365895D01*
X163724323Y-109365895D02*
X163629085Y-109413514D01*
X163629085Y-109413514D02*
X163438609Y-109461133D01*
X163438609Y-109461133D02*
X163295752Y-109461133D01*
X163295752Y-109461133D02*
X163105276Y-109413514D01*
X163105276Y-109413514D02*
X163010038Y-109365895D01*
X163010038Y-109365895D02*
X162914800Y-109270657D01*
X162914800Y-109270657D02*
X162867180Y-109127800D01*
X162867180Y-109127800D02*
X162867180Y-108889705D01*
X175830895Y-107985714D02*
X175830895Y-108461904D01*
X175545180Y-107890476D02*
X176545180Y-108223809D01*
X176545180Y-108223809D02*
X175545180Y-108557142D01*
X176545180Y-108795238D02*
X176545180Y-109414285D01*
X176545180Y-109414285D02*
X176164228Y-109080952D01*
X176164228Y-109080952D02*
X176164228Y-109223809D01*
X176164228Y-109223809D02*
X176116609Y-109319047D01*
X176116609Y-109319047D02*
X176068990Y-109366666D01*
X176068990Y-109366666D02*
X175973752Y-109414285D01*
X175973752Y-109414285D02*
X175735657Y-109414285D01*
X175735657Y-109414285D02*
X175640419Y-109366666D01*
X175640419Y-109366666D02*
X175592800Y-109319047D01*
X175592800Y-109319047D02*
X175545180Y-109223809D01*
X175545180Y-109223809D02*
X175545180Y-108938095D01*
X175545180Y-108938095D02*
X175592800Y-108842857D01*
X175592800Y-108842857D02*
X175640419Y-108795238D01*
X156247180Y-106524610D02*
X156247180Y-107143657D01*
X156247180Y-107143657D02*
X155866228Y-106810324D01*
X155866228Y-106810324D02*
X155866228Y-106953181D01*
X155866228Y-106953181D02*
X155818609Y-107048419D01*
X155818609Y-107048419D02*
X155770990Y-107096038D01*
X155770990Y-107096038D02*
X155675752Y-107143657D01*
X155675752Y-107143657D02*
X155437657Y-107143657D01*
X155437657Y-107143657D02*
X155342419Y-107096038D01*
X155342419Y-107096038D02*
X155294800Y-107048419D01*
X155294800Y-107048419D02*
X155247180Y-106953181D01*
X155247180Y-106953181D02*
X155247180Y-106667467D01*
X155247180Y-106667467D02*
X155294800Y-106572229D01*
X155294800Y-106572229D02*
X155342419Y-106524610D01*
X155342419Y-107572229D02*
X155294800Y-107619848D01*
X155294800Y-107619848D02*
X155247180Y-107572229D01*
X155247180Y-107572229D02*
X155294800Y-107524610D01*
X155294800Y-107524610D02*
X155342419Y-107572229D01*
X155342419Y-107572229D02*
X155247180Y-107572229D01*
X156247180Y-107953181D02*
X156247180Y-108572228D01*
X156247180Y-108572228D02*
X155866228Y-108238895D01*
X155866228Y-108238895D02*
X155866228Y-108381752D01*
X155866228Y-108381752D02*
X155818609Y-108476990D01*
X155818609Y-108476990D02*
X155770990Y-108524609D01*
X155770990Y-108524609D02*
X155675752Y-108572228D01*
X155675752Y-108572228D02*
X155437657Y-108572228D01*
X155437657Y-108572228D02*
X155342419Y-108524609D01*
X155342419Y-108524609D02*
X155294800Y-108476990D01*
X155294800Y-108476990D02*
X155247180Y-108381752D01*
X155247180Y-108381752D02*
X155247180Y-108096038D01*
X155247180Y-108096038D02*
X155294800Y-108000800D01*
X155294800Y-108000800D02*
X155342419Y-107953181D01*
X156247180Y-108857943D02*
X155247180Y-109191276D01*
X155247180Y-109191276D02*
X156247180Y-109524609D01*
X171111847Y-65390476D02*
X170445180Y-65390476D01*
X171492800Y-65152381D02*
X170778514Y-64914286D01*
X170778514Y-64914286D02*
X170778514Y-65533333D01*
X163845180Y-64866667D02*
X163845180Y-65533333D01*
X163845180Y-65533333D02*
X162845180Y-65104762D01*
X178330895Y-107985714D02*
X178330895Y-108461904D01*
X178045180Y-107890476D02*
X179045180Y-108223809D01*
X179045180Y-108223809D02*
X178045180Y-108557142D01*
X178711847Y-109319047D02*
X178045180Y-109319047D01*
X179092800Y-109080952D02*
X178378514Y-108842857D01*
X178378514Y-108842857D02*
X178378514Y-109461904D01*
X180930895Y-107985714D02*
X180930895Y-108461904D01*
X180645180Y-107890476D02*
X181645180Y-108223809D01*
X181645180Y-108223809D02*
X180645180Y-108557142D01*
X181645180Y-109366666D02*
X181645180Y-108890476D01*
X181645180Y-108890476D02*
X181168990Y-108842857D01*
X181168990Y-108842857D02*
X181216609Y-108890476D01*
X181216609Y-108890476D02*
X181264228Y-108985714D01*
X181264228Y-108985714D02*
X181264228Y-109223809D01*
X181264228Y-109223809D02*
X181216609Y-109319047D01*
X181216609Y-109319047D02*
X181168990Y-109366666D01*
X181168990Y-109366666D02*
X181073752Y-109414285D01*
X181073752Y-109414285D02*
X180835657Y-109414285D01*
X180835657Y-109414285D02*
X180740419Y-109366666D01*
X180740419Y-109366666D02*
X180692800Y-109319047D01*
X180692800Y-109319047D02*
X180645180Y-109223809D01*
X180645180Y-109223809D02*
X180645180Y-108985714D01*
X180645180Y-108985714D02*
X180692800Y-108890476D01*
X180692800Y-108890476D02*
X180740419Y-108842857D01*
X153707180Y-108445323D02*
X153707180Y-107969133D01*
X153707180Y-107969133D02*
X153230990Y-107921514D01*
X153230990Y-107921514D02*
X153278609Y-107969133D01*
X153278609Y-107969133D02*
X153326228Y-108064371D01*
X153326228Y-108064371D02*
X153326228Y-108302466D01*
X153326228Y-108302466D02*
X153278609Y-108397704D01*
X153278609Y-108397704D02*
X153230990Y-108445323D01*
X153230990Y-108445323D02*
X153135752Y-108492942D01*
X153135752Y-108492942D02*
X152897657Y-108492942D01*
X152897657Y-108492942D02*
X152802419Y-108445323D01*
X152802419Y-108445323D02*
X152754800Y-108397704D01*
X152754800Y-108397704D02*
X152707180Y-108302466D01*
X152707180Y-108302466D02*
X152707180Y-108064371D01*
X152707180Y-108064371D02*
X152754800Y-107969133D01*
X152754800Y-107969133D02*
X152802419Y-107921514D01*
X153707180Y-108778657D02*
X152707180Y-109111990D01*
X152707180Y-109111990D02*
X153707180Y-109445323D01*
X181545580Y-65108343D02*
X181545580Y-65203581D01*
X181545580Y-65203581D02*
X181497961Y-65298819D01*
X181497961Y-65298819D02*
X181450342Y-65346438D01*
X181450342Y-65346438D02*
X181355104Y-65394057D01*
X181355104Y-65394057D02*
X181164628Y-65441676D01*
X181164628Y-65441676D02*
X180926533Y-65441676D01*
X180926533Y-65441676D02*
X180736057Y-65394057D01*
X180736057Y-65394057D02*
X180640819Y-65346438D01*
X180640819Y-65346438D02*
X180593200Y-65298819D01*
X180593200Y-65298819D02*
X180545580Y-65203581D01*
X180545580Y-65203581D02*
X180545580Y-65108343D01*
X180545580Y-65108343D02*
X180593200Y-65013105D01*
X180593200Y-65013105D02*
X180640819Y-64965486D01*
X180640819Y-64965486D02*
X180736057Y-64917867D01*
X180736057Y-64917867D02*
X180926533Y-64870248D01*
X180926533Y-64870248D02*
X181164628Y-64870248D01*
X181164628Y-64870248D02*
X181355104Y-64917867D01*
X181355104Y-64917867D02*
X181450342Y-64965486D01*
X181450342Y-64965486D02*
X181497961Y-65013105D01*
X181497961Y-65013105D02*
X181545580Y-65108343D01*
X180926533Y-65870248D02*
X180926533Y-66632153D01*
X180545580Y-67679771D02*
X181021771Y-67346438D01*
X180545580Y-67108343D02*
X181545580Y-67108343D01*
X181545580Y-67108343D02*
X181545580Y-67489295D01*
X181545580Y-67489295D02*
X181497961Y-67584533D01*
X181497961Y-67584533D02*
X181450342Y-67632152D01*
X181450342Y-67632152D02*
X181355104Y-67679771D01*
X181355104Y-67679771D02*
X181212247Y-67679771D01*
X181212247Y-67679771D02*
X181117009Y-67632152D01*
X181117009Y-67632152D02*
X181069390Y-67584533D01*
X181069390Y-67584533D02*
X181021771Y-67489295D01*
X181021771Y-67489295D02*
X181021771Y-67108343D01*
X181545580Y-68013105D02*
X180545580Y-68679771D01*
X181545580Y-68679771D02*
X180545580Y-68013105D01*
X176449942Y-64914286D02*
X176497561Y-64961905D01*
X176497561Y-64961905D02*
X176545180Y-65057143D01*
X176545180Y-65057143D02*
X176545180Y-65295238D01*
X176545180Y-65295238D02*
X176497561Y-65390476D01*
X176497561Y-65390476D02*
X176449942Y-65438095D01*
X176449942Y-65438095D02*
X176354704Y-65485714D01*
X176354704Y-65485714D02*
X176259466Y-65485714D01*
X176259466Y-65485714D02*
X176116609Y-65438095D01*
X176116609Y-65438095D02*
X175545180Y-64866667D01*
X175545180Y-64866667D02*
X175545180Y-65485714D01*
X173230895Y-107985714D02*
X173230895Y-108461904D01*
X172945180Y-107890476D02*
X173945180Y-108223809D01*
X173945180Y-108223809D02*
X172945180Y-108557142D01*
X173849942Y-108842857D02*
X173897561Y-108890476D01*
X173897561Y-108890476D02*
X173945180Y-108985714D01*
X173945180Y-108985714D02*
X173945180Y-109223809D01*
X173945180Y-109223809D02*
X173897561Y-109319047D01*
X173897561Y-109319047D02*
X173849942Y-109366666D01*
X173849942Y-109366666D02*
X173754704Y-109414285D01*
X173754704Y-109414285D02*
X173659466Y-109414285D01*
X173659466Y-109414285D02*
X173516609Y-109366666D01*
X173516609Y-109366666D02*
X172945180Y-108795238D01*
X172945180Y-108795238D02*
X172945180Y-109414285D01*
X151487980Y-65443123D02*
X151487980Y-64871695D01*
X151487980Y-65157409D02*
X152487980Y-65157409D01*
X152487980Y-65157409D02*
X152345123Y-65062171D01*
X152345123Y-65062171D02*
X152249885Y-64966933D01*
X152249885Y-64966933D02*
X152202266Y-64871695D01*
X151487980Y-66395504D02*
X151487980Y-65824076D01*
X151487980Y-66109790D02*
X152487980Y-66109790D01*
X152487980Y-66109790D02*
X152345123Y-66014552D01*
X152345123Y-66014552D02*
X152249885Y-65919314D01*
X152249885Y-65919314D02*
X152202266Y-65824076D01*
X168232895Y-107946914D02*
X168232895Y-108423104D01*
X167947180Y-107851676D02*
X168947180Y-108185009D01*
X168947180Y-108185009D02*
X167947180Y-108518342D01*
X168947180Y-109042152D02*
X168947180Y-109137390D01*
X168947180Y-109137390D02*
X168899561Y-109232628D01*
X168899561Y-109232628D02*
X168851942Y-109280247D01*
X168851942Y-109280247D02*
X168756704Y-109327866D01*
X168756704Y-109327866D02*
X168566228Y-109375485D01*
X168566228Y-109375485D02*
X168328133Y-109375485D01*
X168328133Y-109375485D02*
X168137657Y-109327866D01*
X168137657Y-109327866D02*
X168042419Y-109280247D01*
X168042419Y-109280247D02*
X167994800Y-109232628D01*
X167994800Y-109232628D02*
X167947180Y-109137390D01*
X167947180Y-109137390D02*
X167947180Y-109042152D01*
X167947180Y-109042152D02*
X167994800Y-108946914D01*
X167994800Y-108946914D02*
X168042419Y-108899295D01*
X168042419Y-108899295D02*
X168137657Y-108851676D01*
X168137657Y-108851676D02*
X168328133Y-108804057D01*
X168328133Y-108804057D02*
X168566228Y-108804057D01*
X168566228Y-108804057D02*
X168756704Y-108851676D01*
X168756704Y-108851676D02*
X168851942Y-108899295D01*
X168851942Y-108899295D02*
X168899561Y-108946914D01*
X168899561Y-108946914D02*
X168947180Y-109042152D01*
X168945180Y-65438095D02*
X168945180Y-64961905D01*
X168945180Y-64961905D02*
X168468990Y-64914286D01*
X168468990Y-64914286D02*
X168516609Y-64961905D01*
X168516609Y-64961905D02*
X168564228Y-65057143D01*
X168564228Y-65057143D02*
X168564228Y-65295238D01*
X168564228Y-65295238D02*
X168516609Y-65390476D01*
X168516609Y-65390476D02*
X168468990Y-65438095D01*
X168468990Y-65438095D02*
X168373752Y-65485714D01*
X168373752Y-65485714D02*
X168135657Y-65485714D01*
X168135657Y-65485714D02*
X168040419Y-65438095D01*
X168040419Y-65438095D02*
X167992800Y-65390476D01*
X167992800Y-65390476D02*
X167945180Y-65295238D01*
X167945180Y-65295238D02*
X167945180Y-65057143D01*
X167945180Y-65057143D02*
X167992800Y-64961905D01*
X167992800Y-64961905D02*
X168040419Y-64914286D01*
X178005580Y-65509923D02*
X178005580Y-64938495D01*
X178005580Y-65224209D02*
X179005580Y-65224209D01*
X179005580Y-65224209D02*
X178862723Y-65128971D01*
X178862723Y-65128971D02*
X178767485Y-65033733D01*
X178767485Y-65033733D02*
X178719866Y-64938495D01*
X178386533Y-65938495D02*
X178386533Y-66700400D01*
X179005580Y-67033733D02*
X179005580Y-67605161D01*
X178005580Y-67319447D02*
X179005580Y-67319447D01*
X179005580Y-67843257D02*
X178005580Y-68509923D01*
X179005580Y-68509923D02*
X178005580Y-67843257D01*
X156545180Y-65009524D02*
X156545180Y-65200000D01*
X156545180Y-65200000D02*
X156592800Y-65295238D01*
X156592800Y-65295238D02*
X156640419Y-65342857D01*
X156640419Y-65342857D02*
X156783276Y-65438095D01*
X156783276Y-65438095D02*
X156973752Y-65485714D01*
X156973752Y-65485714D02*
X157354704Y-65485714D01*
X157354704Y-65485714D02*
X157449942Y-65438095D01*
X157449942Y-65438095D02*
X157497561Y-65390476D01*
X157497561Y-65390476D02*
X157545180Y-65295238D01*
X157545180Y-65295238D02*
X157545180Y-65104762D01*
X157545180Y-65104762D02*
X157497561Y-65009524D01*
X157497561Y-65009524D02*
X157449942Y-64961905D01*
X157449942Y-64961905D02*
X157354704Y-64914286D01*
X157354704Y-64914286D02*
X157116609Y-64914286D01*
X157116609Y-64914286D02*
X157021371Y-64961905D01*
X157021371Y-64961905D02*
X156973752Y-65009524D01*
X156973752Y-65009524D02*
X156926133Y-65104762D01*
X156926133Y-65104762D02*
X156926133Y-65295238D01*
X156926133Y-65295238D02*
X156973752Y-65390476D01*
X156973752Y-65390476D02*
X157021371Y-65438095D01*
X157021371Y-65438095D02*
X157116609Y-65485714D01*
X166345180Y-65390476D02*
X166345180Y-65200000D01*
X166345180Y-65200000D02*
X166297561Y-65104762D01*
X166297561Y-65104762D02*
X166249942Y-65057143D01*
X166249942Y-65057143D02*
X166107085Y-64961905D01*
X166107085Y-64961905D02*
X165916609Y-64914286D01*
X165916609Y-64914286D02*
X165535657Y-64914286D01*
X165535657Y-64914286D02*
X165440419Y-64961905D01*
X165440419Y-64961905D02*
X165392800Y-65009524D01*
X165392800Y-65009524D02*
X165345180Y-65104762D01*
X165345180Y-65104762D02*
X165345180Y-65295238D01*
X165345180Y-65295238D02*
X165392800Y-65390476D01*
X165392800Y-65390476D02*
X165440419Y-65438095D01*
X165440419Y-65438095D02*
X165535657Y-65485714D01*
X165535657Y-65485714D02*
X165773752Y-65485714D01*
X165773752Y-65485714D02*
X165868990Y-65438095D01*
X165868990Y-65438095D02*
X165916609Y-65390476D01*
X165916609Y-65390476D02*
X165964228Y-65295238D01*
X165964228Y-65295238D02*
X165964228Y-65104762D01*
X165964228Y-65104762D02*
X165916609Y-65009524D01*
X165916609Y-65009524D02*
X165868990Y-64961905D01*
X165868990Y-64961905D02*
X165773752Y-64914286D01*
X154027980Y-65443123D02*
X154027980Y-64871695D01*
X154027980Y-65157409D02*
X155027980Y-65157409D01*
X155027980Y-65157409D02*
X154885123Y-65062171D01*
X154885123Y-65062171D02*
X154789885Y-64966933D01*
X154789885Y-64966933D02*
X154742266Y-64871695D01*
X155027980Y-66062171D02*
X155027980Y-66157409D01*
X155027980Y-66157409D02*
X154980361Y-66252647D01*
X154980361Y-66252647D02*
X154932742Y-66300266D01*
X154932742Y-66300266D02*
X154837504Y-66347885D01*
X154837504Y-66347885D02*
X154647028Y-66395504D01*
X154647028Y-66395504D02*
X154408933Y-66395504D01*
X154408933Y-66395504D02*
X154218457Y-66347885D01*
X154218457Y-66347885D02*
X154123219Y-66300266D01*
X154123219Y-66300266D02*
X154075600Y-66252647D01*
X154075600Y-66252647D02*
X154027980Y-66157409D01*
X154027980Y-66157409D02*
X154027980Y-66062171D01*
X154027980Y-66062171D02*
X154075600Y-65966933D01*
X154075600Y-65966933D02*
X154123219Y-65919314D01*
X154123219Y-65919314D02*
X154218457Y-65871695D01*
X154218457Y-65871695D02*
X154408933Y-65824076D01*
X154408933Y-65824076D02*
X154647028Y-65824076D01*
X154647028Y-65824076D02*
X154837504Y-65871695D01*
X154837504Y-65871695D02*
X154932742Y-65919314D01*
X154932742Y-65919314D02*
X154980361Y-65966933D01*
X154980361Y-65966933D02*
X155027980Y-66062171D01*
X161297561Y-107361895D02*
X161345180Y-107266657D01*
X161345180Y-107266657D02*
X161345180Y-107123800D01*
X161345180Y-107123800D02*
X161297561Y-106980943D01*
X161297561Y-106980943D02*
X161202323Y-106885705D01*
X161202323Y-106885705D02*
X161107085Y-106838086D01*
X161107085Y-106838086D02*
X160916609Y-106790467D01*
X160916609Y-106790467D02*
X160773752Y-106790467D01*
X160773752Y-106790467D02*
X160583276Y-106838086D01*
X160583276Y-106838086D02*
X160488038Y-106885705D01*
X160488038Y-106885705D02*
X160392800Y-106980943D01*
X160392800Y-106980943D02*
X160345180Y-107123800D01*
X160345180Y-107123800D02*
X160345180Y-107219038D01*
X160345180Y-107219038D02*
X160392800Y-107361895D01*
X160392800Y-107361895D02*
X160440419Y-107409514D01*
X160440419Y-107409514D02*
X160773752Y-107409514D01*
X160773752Y-107409514D02*
X160773752Y-107219038D01*
X160345180Y-107838086D02*
X161345180Y-107838086D01*
X161345180Y-107838086D02*
X160345180Y-108409514D01*
X160345180Y-108409514D02*
X161345180Y-108409514D01*
X160345180Y-108885705D02*
X161345180Y-108885705D01*
X161345180Y-108885705D02*
X161345180Y-109123800D01*
X161345180Y-109123800D02*
X161297561Y-109266657D01*
X161297561Y-109266657D02*
X161202323Y-109361895D01*
X161202323Y-109361895D02*
X161107085Y-109409514D01*
X161107085Y-109409514D02*
X160916609Y-109457133D01*
X160916609Y-109457133D02*
X160773752Y-109457133D01*
X160773752Y-109457133D02*
X160583276Y-109409514D01*
X160583276Y-109409514D02*
X160488038Y-109361895D01*
X160488038Y-109361895D02*
X160392800Y-109266657D01*
X160392800Y-109266657D02*
X160345180Y-109123800D01*
X160345180Y-109123800D02*
X160345180Y-108885705D01*
X144697561Y-65038095D02*
X144745180Y-64942857D01*
X144745180Y-64942857D02*
X144745180Y-64800000D01*
X144745180Y-64800000D02*
X144697561Y-64657143D01*
X144697561Y-64657143D02*
X144602323Y-64561905D01*
X144602323Y-64561905D02*
X144507085Y-64514286D01*
X144507085Y-64514286D02*
X144316609Y-64466667D01*
X144316609Y-64466667D02*
X144173752Y-64466667D01*
X144173752Y-64466667D02*
X143983276Y-64514286D01*
X143983276Y-64514286D02*
X143888038Y-64561905D01*
X143888038Y-64561905D02*
X143792800Y-64657143D01*
X143792800Y-64657143D02*
X143745180Y-64800000D01*
X143745180Y-64800000D02*
X143745180Y-64895238D01*
X143745180Y-64895238D02*
X143792800Y-65038095D01*
X143792800Y-65038095D02*
X143840419Y-65085714D01*
X143840419Y-65085714D02*
X144173752Y-65085714D01*
X144173752Y-65085714D02*
X144173752Y-64895238D01*
X143745180Y-65514286D02*
X144745180Y-65514286D01*
X144745180Y-65514286D02*
X143745180Y-66085714D01*
X143745180Y-66085714D02*
X144745180Y-66085714D01*
X143745180Y-66561905D02*
X144745180Y-66561905D01*
X144745180Y-66561905D02*
X144745180Y-66800000D01*
X144745180Y-66800000D02*
X144697561Y-66942857D01*
X144697561Y-66942857D02*
X144602323Y-67038095D01*
X144602323Y-67038095D02*
X144507085Y-67085714D01*
X144507085Y-67085714D02*
X144316609Y-67133333D01*
X144316609Y-67133333D02*
X144173752Y-67133333D01*
X144173752Y-67133333D02*
X143983276Y-67085714D01*
X143983276Y-67085714D02*
X143888038Y-67038095D01*
X143888038Y-67038095D02*
X143792800Y-66942857D01*
X143792800Y-66942857D02*
X143745180Y-66800000D01*
X143745180Y-66800000D02*
X143745180Y-66561905D01*
X159716609Y-65104762D02*
X159764228Y-65009524D01*
X159764228Y-65009524D02*
X159811847Y-64961905D01*
X159811847Y-64961905D02*
X159907085Y-64914286D01*
X159907085Y-64914286D02*
X159954704Y-64914286D01*
X159954704Y-64914286D02*
X160049942Y-64961905D01*
X160049942Y-64961905D02*
X160097561Y-65009524D01*
X160097561Y-65009524D02*
X160145180Y-65104762D01*
X160145180Y-65104762D02*
X160145180Y-65295238D01*
X160145180Y-65295238D02*
X160097561Y-65390476D01*
X160097561Y-65390476D02*
X160049942Y-65438095D01*
X160049942Y-65438095D02*
X159954704Y-65485714D01*
X159954704Y-65485714D02*
X159907085Y-65485714D01*
X159907085Y-65485714D02*
X159811847Y-65438095D01*
X159811847Y-65438095D02*
X159764228Y-65390476D01*
X159764228Y-65390476D02*
X159716609Y-65295238D01*
X159716609Y-65295238D02*
X159716609Y-65104762D01*
X159716609Y-65104762D02*
X159668990Y-65009524D01*
X159668990Y-65009524D02*
X159621371Y-64961905D01*
X159621371Y-64961905D02*
X159526133Y-64914286D01*
X159526133Y-64914286D02*
X159335657Y-64914286D01*
X159335657Y-64914286D02*
X159240419Y-64961905D01*
X159240419Y-64961905D02*
X159192800Y-65009524D01*
X159192800Y-65009524D02*
X159145180Y-65104762D01*
X159145180Y-65104762D02*
X159145180Y-65295238D01*
X159145180Y-65295238D02*
X159192800Y-65390476D01*
X159192800Y-65390476D02*
X159240419Y-65438095D01*
X159240419Y-65438095D02*
X159335657Y-65485714D01*
X159335657Y-65485714D02*
X159526133Y-65485714D01*
X159526133Y-65485714D02*
X159621371Y-65438095D01*
X159621371Y-65438095D02*
X159668990Y-65390476D01*
X159668990Y-65390476D02*
X159716609Y-65295238D01*
X148845180Y-65443123D02*
X148845180Y-64871695D01*
X148845180Y-65157409D02*
X149845180Y-65157409D01*
X149845180Y-65157409D02*
X149702323Y-65062171D01*
X149702323Y-65062171D02*
X149607085Y-64966933D01*
X149607085Y-64966933D02*
X149559466Y-64871695D01*
X149749942Y-65824076D02*
X149797561Y-65871695D01*
X149797561Y-65871695D02*
X149845180Y-65966933D01*
X149845180Y-65966933D02*
X149845180Y-66205028D01*
X149845180Y-66205028D02*
X149797561Y-66300266D01*
X149797561Y-66300266D02*
X149749942Y-66347885D01*
X149749942Y-66347885D02*
X149654704Y-66395504D01*
X149654704Y-66395504D02*
X149559466Y-66395504D01*
X149559466Y-66395504D02*
X149416609Y-66347885D01*
X149416609Y-66347885D02*
X148845180Y-65776457D01*
X148845180Y-65776457D02*
X148845180Y-66395504D01*
X142245180Y-64462210D02*
X142245180Y-65081257D01*
X142245180Y-65081257D02*
X141864228Y-64747924D01*
X141864228Y-64747924D02*
X141864228Y-64890781D01*
X141864228Y-64890781D02*
X141816609Y-64986019D01*
X141816609Y-64986019D02*
X141768990Y-65033638D01*
X141768990Y-65033638D02*
X141673752Y-65081257D01*
X141673752Y-65081257D02*
X141435657Y-65081257D01*
X141435657Y-65081257D02*
X141340419Y-65033638D01*
X141340419Y-65033638D02*
X141292800Y-64986019D01*
X141292800Y-64986019D02*
X141245180Y-64890781D01*
X141245180Y-64890781D02*
X141245180Y-64605067D01*
X141245180Y-64605067D02*
X141292800Y-64509829D01*
X141292800Y-64509829D02*
X141340419Y-64462210D01*
X141340419Y-65509829D02*
X141292800Y-65557448D01*
X141292800Y-65557448D02*
X141245180Y-65509829D01*
X141245180Y-65509829D02*
X141292800Y-65462210D01*
X141292800Y-65462210D02*
X141340419Y-65509829D01*
X141340419Y-65509829D02*
X141245180Y-65509829D01*
X142245180Y-65890781D02*
X142245180Y-66509828D01*
X142245180Y-66509828D02*
X141864228Y-66176495D01*
X141864228Y-66176495D02*
X141864228Y-66319352D01*
X141864228Y-66319352D02*
X141816609Y-66414590D01*
X141816609Y-66414590D02*
X141768990Y-66462209D01*
X141768990Y-66462209D02*
X141673752Y-66509828D01*
X141673752Y-66509828D02*
X141435657Y-66509828D01*
X141435657Y-66509828D02*
X141340419Y-66462209D01*
X141340419Y-66462209D02*
X141292800Y-66414590D01*
X141292800Y-66414590D02*
X141245180Y-66319352D01*
X141245180Y-66319352D02*
X141245180Y-66033638D01*
X141245180Y-66033638D02*
X141292800Y-65938400D01*
X141292800Y-65938400D02*
X141340419Y-65890781D01*
X142245180Y-66795543D02*
X141245180Y-67128876D01*
X141245180Y-67128876D02*
X142245180Y-67462209D01*
X173945180Y-64866667D02*
X173945180Y-65485714D01*
X173945180Y-65485714D02*
X173564228Y-65152381D01*
X173564228Y-65152381D02*
X173564228Y-65295238D01*
X173564228Y-65295238D02*
X173516609Y-65390476D01*
X173516609Y-65390476D02*
X173468990Y-65438095D01*
X173468990Y-65438095D02*
X173373752Y-65485714D01*
X173373752Y-65485714D02*
X173135657Y-65485714D01*
X173135657Y-65485714D02*
X173040419Y-65438095D01*
X173040419Y-65438095D02*
X172992800Y-65390476D01*
X172992800Y-65390476D02*
X172945180Y-65295238D01*
X172945180Y-65295238D02*
X172945180Y-65009524D01*
X172945180Y-65009524D02*
X172992800Y-64914286D01*
X172992800Y-64914286D02*
X173040419Y-64866667D01*
X146407980Y-65443123D02*
X146407980Y-64871695D01*
X146407980Y-65157409D02*
X147407980Y-65157409D01*
X147407980Y-65157409D02*
X147265123Y-65062171D01*
X147265123Y-65062171D02*
X147169885Y-64966933D01*
X147169885Y-64966933D02*
X147122266Y-64871695D01*
X147407980Y-65776457D02*
X147407980Y-66395504D01*
X147407980Y-66395504D02*
X147027028Y-66062171D01*
X147027028Y-66062171D02*
X147027028Y-66205028D01*
X147027028Y-66205028D02*
X146979409Y-66300266D01*
X146979409Y-66300266D02*
X146931790Y-66347885D01*
X146931790Y-66347885D02*
X146836552Y-66395504D01*
X146836552Y-66395504D02*
X146598457Y-66395504D01*
X146598457Y-66395504D02*
X146503219Y-66347885D01*
X146503219Y-66347885D02*
X146455600Y-66300266D01*
X146455600Y-66300266D02*
X146407980Y-66205028D01*
X146407980Y-66205028D02*
X146407980Y-65919314D01*
X146407980Y-65919314D02*
X146455600Y-65824076D01*
X146455600Y-65824076D02*
X146503219Y-65776457D01*
X122855218Y-68171219D02*
X122521885Y-67695028D01*
X122283790Y-68171219D02*
X122283790Y-67171219D01*
X122283790Y-67171219D02*
X122664742Y-67171219D01*
X122664742Y-67171219D02*
X122759980Y-67218838D01*
X122759980Y-67218838D02*
X122807599Y-67266457D01*
X122807599Y-67266457D02*
X122855218Y-67361695D01*
X122855218Y-67361695D02*
X122855218Y-67504552D01*
X122855218Y-67504552D02*
X122807599Y-67599790D01*
X122807599Y-67599790D02*
X122759980Y-67647409D01*
X122759980Y-67647409D02*
X122664742Y-67695028D01*
X122664742Y-67695028D02*
X122283790Y-67695028D01*
X123283790Y-67647409D02*
X123617123Y-67647409D01*
X123759980Y-68171219D02*
X123283790Y-68171219D01*
X123283790Y-68171219D02*
X123283790Y-67171219D01*
X123283790Y-67171219D02*
X123759980Y-67171219D01*
X124140933Y-68123600D02*
X124283790Y-68171219D01*
X124283790Y-68171219D02*
X124521885Y-68171219D01*
X124521885Y-68171219D02*
X124617123Y-68123600D01*
X124617123Y-68123600D02*
X124664742Y-68075980D01*
X124664742Y-68075980D02*
X124712361Y-67980742D01*
X124712361Y-67980742D02*
X124712361Y-67885504D01*
X124712361Y-67885504D02*
X124664742Y-67790266D01*
X124664742Y-67790266D02*
X124617123Y-67742647D01*
X124617123Y-67742647D02*
X124521885Y-67695028D01*
X124521885Y-67695028D02*
X124331409Y-67647409D01*
X124331409Y-67647409D02*
X124236171Y-67599790D01*
X124236171Y-67599790D02*
X124188552Y-67552171D01*
X124188552Y-67552171D02*
X124140933Y-67456933D01*
X124140933Y-67456933D02*
X124140933Y-67361695D01*
X124140933Y-67361695D02*
X124188552Y-67266457D01*
X124188552Y-67266457D02*
X124236171Y-67218838D01*
X124236171Y-67218838D02*
X124331409Y-67171219D01*
X124331409Y-67171219D02*
X124569504Y-67171219D01*
X124569504Y-67171219D02*
X124712361Y-67218838D01*
X125140933Y-67647409D02*
X125474266Y-67647409D01*
X125617123Y-68171219D02*
X125140933Y-68171219D01*
X125140933Y-68171219D02*
X125140933Y-67171219D01*
X125140933Y-67171219D02*
X125617123Y-67171219D01*
X125902838Y-67171219D02*
X126474266Y-67171219D01*
X126188552Y-68171219D02*
X126188552Y-67171219D01*
X150558667Y-77112019D02*
X150558667Y-76112019D01*
X150558667Y-76112019D02*
X150939619Y-76112019D01*
X150939619Y-76112019D02*
X151034857Y-76159638D01*
X151034857Y-76159638D02*
X151082476Y-76207257D01*
X151082476Y-76207257D02*
X151130095Y-76302495D01*
X151130095Y-76302495D02*
X151130095Y-76445352D01*
X151130095Y-76445352D02*
X151082476Y-76540590D01*
X151082476Y-76540590D02*
X151034857Y-76588209D01*
X151034857Y-76588209D02*
X150939619Y-76635828D01*
X150939619Y-76635828D02*
X150558667Y-76635828D01*
X151463429Y-76112019D02*
X151701524Y-77112019D01*
X151701524Y-77112019D02*
X151892000Y-76397733D01*
X151892000Y-76397733D02*
X152082476Y-77112019D01*
X152082476Y-77112019D02*
X152320572Y-76112019D01*
X153272952Y-77112019D02*
X152939619Y-76635828D01*
X152701524Y-77112019D02*
X152701524Y-76112019D01*
X152701524Y-76112019D02*
X153082476Y-76112019D01*
X153082476Y-76112019D02*
X153177714Y-76159638D01*
X153177714Y-76159638D02*
X153225333Y-76207257D01*
X153225333Y-76207257D02*
X153272952Y-76302495D01*
X153272952Y-76302495D02*
X153272952Y-76445352D01*
X153272952Y-76445352D02*
X153225333Y-76540590D01*
X153225333Y-76540590D02*
X153177714Y-76588209D01*
X153177714Y-76588209D02*
X153082476Y-76635828D01*
X153082476Y-76635828D02*
X152701524Y-76635828D01*
X122718533Y-81023619D02*
X122385200Y-80547428D01*
X122147105Y-81023619D02*
X122147105Y-80023619D01*
X122147105Y-80023619D02*
X122528057Y-80023619D01*
X122528057Y-80023619D02*
X122623295Y-80071238D01*
X122623295Y-80071238D02*
X122670914Y-80118857D01*
X122670914Y-80118857D02*
X122718533Y-80214095D01*
X122718533Y-80214095D02*
X122718533Y-80356952D01*
X122718533Y-80356952D02*
X122670914Y-80452190D01*
X122670914Y-80452190D02*
X122623295Y-80499809D01*
X122623295Y-80499809D02*
X122528057Y-80547428D01*
X122528057Y-80547428D02*
X122147105Y-80547428D01*
X123051867Y-80023619D02*
X123718533Y-81023619D01*
X123718533Y-80023619D02*
X123051867Y-81023619D01*
X122224895Y-92825219D02*
X122796323Y-92825219D01*
X122510609Y-93825219D02*
X122510609Y-92825219D01*
X123034419Y-92825219D02*
X123701085Y-93825219D01*
X123701085Y-92825219D02*
X123034419Y-93825219D01*
D11*
%TO.C,C2*%
X135691200Y-75895148D02*
X135691200Y-77317652D01*
X137511200Y-75895148D02*
X137511200Y-77317652D01*
%TO.C,IC2*%
X139714500Y-97830200D02*
X139064500Y-97830200D01*
X139714500Y-97830200D02*
X140364500Y-97830200D01*
X139714500Y-100950200D02*
X139064500Y-100950200D01*
X139714500Y-100950200D02*
X140364500Y-100950200D01*
X141117000Y-101230200D02*
X140637000Y-101230200D01*
X140877000Y-100900200D01*
X141117000Y-101230200D01*
G36*
X141117000Y-101230200D02*
G01*
X140637000Y-101230200D01*
X140877000Y-100900200D01*
X141117000Y-101230200D01*
G37*
%TO.C,SW1*%
X121247600Y-62564400D02*
X127367600Y-62564400D01*
X121247600Y-66264400D02*
X121247600Y-62564400D01*
X127367600Y-62564400D02*
X127367600Y-66264400D01*
X127367600Y-66264400D02*
X121247600Y-66264400D01*
%TO.C,R10*%
X119803142Y-94473500D02*
X120277658Y-94473500D01*
X119803142Y-95518500D02*
X120277658Y-95518500D01*
%TO.C,J1*%
X161990000Y-61470000D02*
X161990000Y-64130000D01*
X182430000Y-61470000D02*
X161990000Y-61470000D01*
X182430000Y-61470000D02*
X182430000Y-64130000D01*
X182430000Y-64130000D02*
X161990000Y-64130000D01*
%TO.C,U1*%
X140681000Y-83408200D02*
X138731000Y-83408200D01*
X140681000Y-83408200D02*
X142631000Y-83408200D01*
X140681000Y-93528200D02*
X138731000Y-93528200D01*
X140681000Y-93528200D02*
X142631000Y-93528200D01*
X137981000Y-83463200D02*
X137741000Y-83133200D01*
X138221000Y-83133200D01*
X137981000Y-83463200D01*
G36*
X137981000Y-83463200D02*
G01*
X137741000Y-83133200D01*
X138221000Y-83133200D01*
X137981000Y-83463200D01*
G37*
%TO.C,R5*%
X143378458Y-99832900D02*
X142903942Y-99832900D01*
X143378458Y-100877900D02*
X142903942Y-100877900D01*
%TO.C,J2*%
X140390000Y-61470000D02*
X140390000Y-64130000D01*
X160820800Y-61470000D02*
X140390000Y-61470000D01*
X160820800Y-61470000D02*
X160820800Y-64130000D01*
X160820800Y-64130000D02*
X140390000Y-64130000D01*
%TO.C,L1*%
X139587200Y-69669600D02*
X140727200Y-69669600D01*
X139587200Y-73789600D02*
X140727200Y-73789600D01*
%TO.C,D5*%
X147386800Y-77566400D02*
X150071800Y-77566400D01*
X150071800Y-75646400D02*
X147386800Y-75646400D01*
X150071800Y-77566400D02*
X150071800Y-75646400D01*
%TO.C,D2*%
X118457000Y-79608800D02*
X118457000Y-81528800D01*
X118457000Y-81528800D02*
X121142000Y-81528800D01*
X121142000Y-79608800D02*
X118457000Y-79608800D01*
%TO.C,J4*%
X146830000Y-109770000D02*
X164730000Y-109770000D01*
X146830000Y-112430000D02*
X146830000Y-109770000D01*
X146830000Y-112430000D02*
X164730000Y-112430000D01*
X164730000Y-112430000D02*
X164730000Y-109770000D01*
%TO.C,C1*%
X135802200Y-86034580D02*
X135802200Y-85753420D01*
X136822200Y-86034580D02*
X136822200Y-85753420D01*
%TO.C,IC3*%
X146595600Y-97845400D02*
X145945600Y-97845400D01*
X146595600Y-97845400D02*
X147245600Y-97845400D01*
X146595600Y-100965400D02*
X145945600Y-100965400D01*
X146595600Y-100965400D02*
X147245600Y-100965400D01*
X145433100Y-97895400D02*
X145193100Y-97565400D01*
X145673100Y-97565400D01*
X145433100Y-97895400D01*
G36*
X145433100Y-97895400D02*
G01*
X145193100Y-97565400D01*
X145673100Y-97565400D01*
X145433100Y-97895400D01*
G37*
D12*
%TO.C,IC1*%
X155187000Y-83116000D02*
X155187000Y-83116000D01*
X155187000Y-83116000D02*
X155187000Y-101116000D01*
X155187000Y-101116000D02*
X155187000Y-83116000D01*
X155187000Y-101116000D02*
X155187000Y-101116000D01*
D13*
X179137000Y-81316000D02*
X179137000Y-81316000D01*
X179137000Y-81316000D02*
X179137000Y-81316000D01*
X179137000Y-81416000D02*
X179137000Y-81416000D01*
D12*
X180147000Y-83116000D02*
X180147000Y-83116000D01*
X180147000Y-83116000D02*
X186587000Y-83116000D01*
X180147000Y-101116000D02*
X180147000Y-101116000D01*
X180147000Y-101116000D02*
X186587000Y-101116000D01*
X186587000Y-83116000D02*
X180147000Y-83116000D01*
X186587000Y-83116000D02*
X186587000Y-83116000D01*
X186587000Y-83116000D02*
X186587000Y-83116000D01*
X186587000Y-83116000D02*
X186587000Y-101116000D01*
X186587000Y-101116000D02*
X180147000Y-101116000D01*
X186587000Y-101116000D02*
X186587000Y-83116000D01*
X186587000Y-101116000D02*
X186587000Y-101116000D01*
X186587000Y-101116000D02*
X186587000Y-101116000D01*
D13*
X179137000Y-81316000D02*
G75*
G02*
X179137000Y-81416000I0J-50000D01*
G01*
X179137000Y-81416000D02*
G75*
G02*
X179137000Y-81316000I0J50000D01*
G01*
X179137000Y-81416000D02*
G75*
G02*
X179137000Y-81316000I0J50000D01*
G01*
D11*
%TO.C,R14*%
X127239500Y-84768458D02*
X127239500Y-84293942D01*
X128284500Y-84768458D02*
X128284500Y-84293942D01*
%TO.C,J6*%
X117835800Y-82250000D02*
X117835800Y-91650000D01*
X119735800Y-82250000D02*
X117835800Y-82250000D01*
X119735800Y-91650000D02*
X117835800Y-91650000D01*
X123635800Y-82250000D02*
X121635800Y-82250000D01*
X123635800Y-91650000D02*
X121635800Y-91650000D01*
%TO.C,R9*%
X133386300Y-78367658D02*
X133386300Y-77893142D01*
X134431300Y-78367658D02*
X134431300Y-77893142D01*
%TO.C,R23*%
X148776458Y-77811100D02*
X148301942Y-77811100D01*
X148776458Y-78856100D02*
X148301942Y-78856100D01*
%TO.C,R6*%
X142903942Y-97902500D02*
X143378458Y-97902500D01*
X142903942Y-98947500D02*
X143378458Y-98947500D01*
%TO.C,R7*%
X142903942Y-96530900D02*
X143378458Y-96530900D01*
X142903942Y-97575900D02*
X143378458Y-97575900D01*
%TO.C,R15*%
X127239500Y-89170742D02*
X127239500Y-89645258D01*
X128284500Y-89170742D02*
X128284500Y-89645258D01*
%TO.C,C4*%
X140872800Y-75846148D02*
X140872800Y-77268652D01*
X142692800Y-75846148D02*
X142692800Y-77268652D01*
%TO.C,R12*%
X131811500Y-78418458D02*
X131811500Y-77943942D01*
X132856500Y-78418458D02*
X132856500Y-77943942D01*
%TO.C,D3*%
X137692000Y-74667400D02*
X137692000Y-80367400D01*
X137692000Y-80367400D02*
X140692000Y-80367400D01*
X140692000Y-80367400D02*
X140692000Y-74667400D01*
%TO.C,R11*%
X119790942Y-78369900D02*
X120265458Y-78369900D01*
X119790942Y-79414900D02*
X120265458Y-79414900D01*
%TO.C,R8*%
X142903942Y-101204500D02*
X143378458Y-101204500D01*
X142903942Y-102249500D02*
X143378458Y-102249500D01*
%TO.C,C3*%
X133273220Y-72489600D02*
X133554380Y-72489600D01*
X133273220Y-73509600D02*
X133554380Y-73509600D01*
%TO.C,J3*%
X167070000Y-109770000D02*
X167070000Y-112430000D01*
X182430000Y-109770000D02*
X167070000Y-109770000D01*
X182430000Y-109770000D02*
X182430000Y-112430000D01*
X182430000Y-112430000D02*
X167070000Y-112430000D01*
%TO.C,U2*%
X133451600Y-73646400D02*
X131651600Y-73646400D01*
X133451600Y-73646400D02*
X134251600Y-73646400D01*
X133451600Y-76766400D02*
X132651600Y-76766400D01*
X133451600Y-76766400D02*
X134251600Y-76766400D01*
%TO.C,R13*%
X130287500Y-76284858D02*
X130287500Y-75810342D01*
X131332500Y-76284858D02*
X131332500Y-75810342D01*
%TO.C,D1*%
X118457000Y-92359600D02*
X118457000Y-94279600D01*
X118457000Y-94279600D02*
X121142000Y-94279600D01*
X121142000Y-92359600D02*
X118457000Y-92359600D01*
%TO.C,D4*%
X135600400Y-69215600D02*
X135600400Y-72875600D01*
X137500400Y-69215600D02*
X135600400Y-69215600D01*
X137500400Y-69215600D02*
X137500400Y-72875600D01*
%TD*%
M02*
