%TF.GenerationSoftware,KiCad,Pcbnew,8.0.5*%
%TF.CreationDate,2024-12-12T18:20:32+01:00*%
%TF.ProjectId,Arduino_ESP,41726475-696e-46f5-9f45-53502e6b6963,rev?*%
%TF.SameCoordinates,Original*%
%TF.FileFunction,Copper,L3,Inr*%
%TF.FilePolarity,Positive*%
%FSLAX46Y46*%
G04 Gerber Fmt 4.6, Leading zero omitted, Abs format (unit mm)*
G04 Created by KiCad (PCBNEW 8.0.5) date 2024-12-12 18:20:32*
%MOMM*%
%LPD*%
G01*
G04 APERTURE LIST*
%TA.AperFunction,ComponentPad*%
%ADD10C,1.700000*%
%TD*%
%TA.AperFunction,ComponentPad*%
%ADD11O,1.700000X1.700000*%
%TD*%
%TA.AperFunction,ComponentPad*%
%ADD12O,2.100000X1.000000*%
%TD*%
%TA.AperFunction,ComponentPad*%
%ADD13O,1.600000X1.000000*%
%TD*%
%TA.AperFunction,ViaPad*%
%ADD14C,0.800000*%
%TD*%
%TA.AperFunction,Conductor*%
%ADD15C,0.400000*%
%TD*%
G04 APERTURE END LIST*
D10*
%TO.N,RX*%
%TO.C,J1*%
X181100000Y-62800000D03*
D11*
%TO.N,TX*%
X178560000Y-62800000D03*
%TO.N,IO4*%
X176020000Y-62800000D03*
%TO.N,IO13*%
X173480000Y-62800000D03*
%TO.N,IO15*%
X170940000Y-62800000D03*
%TO.N,IO18*%
X168400000Y-62800000D03*
%TO.N,IO19*%
X165860000Y-62800000D03*
%TO.N,IO21*%
X163320000Y-62800000D03*
%TD*%
D10*
%TO.N,IO22*%
%TO.C,J2*%
X159500000Y-62800000D03*
D11*
%TO.N,IO23*%
X156960000Y-62800000D03*
%TO.N,IO5*%
X154420000Y-62800000D03*
%TO.N,IO12*%
X151880000Y-62800000D03*
%TO.N,IO14*%
X149340000Y-62800000D03*
%TO.N,IO27*%
X146800000Y-62800000D03*
%TO.N,GND*%
X144260000Y-62800000D03*
%TO.N,+3.3V*%
X141720000Y-62800000D03*
%TD*%
D10*
%TO.N,RESET*%
%TO.C,J4*%
X148160000Y-111100000D03*
D11*
%TO.N,Net-(J4-Pin_2)*%
X150700000Y-111100000D03*
X153240000Y-111100000D03*
%TO.N,+3.3V*%
X155780000Y-111100000D03*
X158320000Y-111100000D03*
%TO.N,GND*%
X160860000Y-111100000D03*
X163400000Y-111100000D03*
%TD*%
D12*
%TO.N,unconnected-(J6-SHIELD-PadS1)_2*%
%TO.C,J6*%
X124865800Y-82630000D03*
D13*
%TO.N,unconnected-(J6-SHIELD-PadS1)_1*%
X120685800Y-82630000D03*
D12*
%TO.N,unconnected-(J6-SHIELD-PadS1)*%
X124865800Y-91270000D03*
D13*
%TO.N,unconnected-(J6-SHIELD-PadS1)_3*%
X120685800Y-91270000D03*
%TD*%
D10*
%TO.N,IO36*%
%TO.C,J3*%
X181100000Y-111100000D03*
D11*
%TO.N,IO39*%
X178560000Y-111100000D03*
%TO.N,IO34*%
X176020000Y-111100000D03*
%TO.N,IO35*%
X173480000Y-111100000D03*
%TO.N,IO32*%
X170940000Y-111100000D03*
%TO.N,IO33*%
X168400000Y-111100000D03*
%TD*%
D14*
%TO.N,GND*%
X139192000Y-78081400D03*
X133604000Y-93370400D03*
X145542000Y-78079600D03*
X154635200Y-95859600D03*
X161391600Y-85191600D03*
X161391600Y-87731600D03*
%TO.N,+3.3V*%
X131165600Y-78333600D03*
X153670000Y-97078800D03*
X141273800Y-101727000D03*
X135156400Y-70075600D03*
X144982200Y-97053400D03*
%TO.N,+5V*%
X136601200Y-76504800D03*
X128778000Y-86969600D03*
X132130800Y-94640400D03*
%TO.N,RESET*%
X142316200Y-95910400D03*
X153365200Y-86106000D03*
X128219200Y-65786000D03*
%TO.N,IO39*%
X174091600Y-85242400D03*
%TO.N,IO36*%
X175361600Y-85242400D03*
%TO.N,IO34*%
X172821600Y-85242400D03*
%TO.N,IO35*%
X171500800Y-85242400D03*
%TO.N,IO32*%
X170230800Y-85242400D03*
%TO.N,IO33*%
X169011600Y-85242400D03*
%TO.N,IO25*%
X167741600Y-85293200D03*
%TO.N,IO26*%
X166471600Y-85293200D03*
%TO.N,IO27*%
X165177000Y-85242400D03*
%TO.N,IO14*%
X163931600Y-85191600D03*
X149340000Y-68834000D03*
%TO.N,IO12*%
X162661600Y-85191600D03*
X151880000Y-72999600D03*
%TO.N,IO13*%
X160121600Y-85191600D03*
%TO.N,IO15*%
X154228800Y-70612000D03*
X160070800Y-98958400D03*
%TO.N,IO2*%
X161391600Y-99009200D03*
%TO.N,IO0*%
X162661600Y-98958400D03*
X151790400Y-99263200D03*
%TO.N,IO4*%
X163880800Y-98958400D03*
X155295600Y-70612000D03*
%TO.N,IO5*%
X167741600Y-98958400D03*
%TO.N,IO18*%
X160223200Y-68732400D03*
X169011600Y-98958400D03*
%TO.N,IO19*%
X170281600Y-98958400D03*
X162204400Y-67716400D03*
%TO.N,IO21*%
X172821600Y-98958400D03*
%TO.N,TX*%
X139852400Y-85293200D03*
X174091600Y-98958400D03*
X121970800Y-94996000D03*
%TO.N,RX*%
X121869200Y-78943200D03*
X139852400Y-86563200D03*
X175310800Y-98958400D03*
%TO.N,IO22*%
X178409600Y-69088000D03*
X176580800Y-98958400D03*
%TO.N,IO23*%
X179273200Y-69951600D03*
X177901600Y-98958400D03*
%TO.N,RTS*%
X138785600Y-98247200D03*
X138785600Y-95961200D03*
%TO.N,D+*%
X127762000Y-87512403D03*
X139649200Y-89103200D03*
%TO.N,D-*%
X127762000Y-86512400D03*
X139649200Y-90373200D03*
%TD*%
D15*
%TO.N,+5V*%
X136601200Y-81686400D02*
X136601200Y-76504800D01*
X128778000Y-86969600D02*
X131318000Y-86969600D01*
X131318000Y-86969600D02*
X136601200Y-81686400D01*
%TO.N,RESET*%
X142316200Y-97612200D02*
X142316200Y-89687400D01*
X148160000Y-111100000D02*
X148160000Y-103456000D01*
X142316200Y-89687400D02*
X145897600Y-86106000D01*
X148160000Y-103456000D02*
X142316200Y-97612200D01*
X145897600Y-86106000D02*
X153365200Y-86106000D01*
%TO.N,IO39*%
X178866800Y-102666800D02*
X178866800Y-93319600D01*
X178866800Y-93319600D02*
X174091600Y-88544400D01*
X178560000Y-111100000D02*
X178560000Y-102973600D01*
X174091600Y-88544400D02*
X174091600Y-85242400D01*
X178560000Y-102973600D02*
X178866800Y-102666800D01*
%TO.N,IO36*%
X179578000Y-102666800D02*
X179578000Y-92811600D01*
X181100000Y-104188800D02*
X179578000Y-102666800D01*
X179578000Y-92811600D02*
X175361600Y-88595200D01*
X175361600Y-88595200D02*
X175361600Y-85242400D01*
X181100000Y-111100000D02*
X181100000Y-104188800D01*
%TO.N,IO34*%
X172021600Y-89598400D02*
X172821600Y-88798400D01*
X172821600Y-88798400D02*
X172821600Y-85242400D01*
X172021600Y-102476400D02*
X172021600Y-89598400D01*
X176020000Y-111100000D02*
X176020000Y-106474800D01*
X176020000Y-106474800D02*
X172021600Y-102476400D01*
%TO.N,IO35*%
X171246800Y-102920800D02*
X171246800Y-89103200D01*
X171500800Y-88849200D02*
X171500800Y-85242400D01*
X171246800Y-89103200D02*
X171500800Y-88849200D01*
X173480000Y-111100000D02*
X173480000Y-105154000D01*
X173480000Y-105154000D02*
X171246800Y-102920800D01*
%TO.N,IO32*%
X170940000Y-111100000D02*
X170940000Y-104341200D01*
X170940000Y-104341200D02*
X166776400Y-100177600D01*
X166776400Y-100177600D02*
X166776400Y-95199200D01*
X170230800Y-91744800D02*
X170230800Y-85242400D01*
X166776400Y-95199200D02*
X170230800Y-91744800D01*
%TO.N,IO33*%
X168400000Y-103426800D02*
X165811200Y-100838000D01*
X165811200Y-100838000D02*
X165811200Y-94691200D01*
X168400000Y-111100000D02*
X168400000Y-103426800D01*
X169011600Y-91490800D02*
X169011600Y-85242400D01*
X165811200Y-94691200D02*
X169011600Y-91490800D01*
%TO.N,D+*%
X129352797Y-89103200D02*
X127762000Y-87512403D01*
X139649200Y-89103200D02*
X129352797Y-89103200D01*
%TO.N,D-*%
X127050800Y-86512400D02*
X127762000Y-86512400D01*
X126593600Y-87884000D02*
X126593600Y-86969600D01*
X126593600Y-86969600D02*
X127050800Y-86512400D01*
X139649200Y-90373200D02*
X129082800Y-90373200D01*
X129082800Y-90373200D02*
X126593600Y-87884000D01*
%TD*%
M02*
