%TF.GenerationSoftware,KiCad,Pcbnew,8.0.5*%
%TF.CreationDate,2024-12-12T18:20:32+01:00*%
%TF.ProjectId,Arduino_ESP,41726475-696e-46f5-9f45-53502e6b6963,rev?*%
%TF.SameCoordinates,Original*%
%TF.FileFunction,Copper,L1,Top*%
%TF.FilePolarity,Positive*%
%FSLAX46Y46*%
G04 Gerber Fmt 4.6, Leading zero omitted, Abs format (unit mm)*
G04 Created by KiCad (PCBNEW 8.0.5) date 2024-12-12 18:20:32*
%MOMM*%
%LPD*%
G01*
G04 APERTURE LIST*
G04 Aperture macros list*
%AMRoundRect*
0 Rectangle with rounded corners*
0 $1 Rounding radius*
0 $2 $3 $4 $5 $6 $7 $8 $9 X,Y pos of 4 corners*
0 Add a 4 corners polygon primitive as box body*
4,1,4,$2,$3,$4,$5,$6,$7,$8,$9,$2,$3,0*
0 Add four circle primitives for the rounded corners*
1,1,$1+$1,$2,$3*
1,1,$1+$1,$4,$5*
1,1,$1+$1,$6,$7*
1,1,$1+$1,$8,$9*
0 Add four rect primitives between the rounded corners*
20,1,$1+$1,$2,$3,$4,$5,0*
20,1,$1+$1,$4,$5,$6,$7,0*
20,1,$1+$1,$6,$7,$8,$9,0*
20,1,$1+$1,$8,$9,$2,$3,0*%
%AMFreePoly0*
4,1,11,1.015000,1.170000,0.435000,0.575000,0.435000,-0.575000,1.015000,-1.170000,1.015000,-1.945000,0.125000,-1.945000,-0.435000,-1.395000,-0.435000,1.395000,0.125000,1.945000,1.015000,1.945000,1.015000,1.170000,1.015000,1.170000,$1*%
%AMFreePoly1*
4,1,11,0.435000,1.395000,0.435000,-1.395000,-0.125000,-1.945000,-1.015000,-1.945000,-1.015000,-1.170000,-0.435000,-0.575000,-0.435000,0.575000,-1.015000,1.170000,-1.015000,1.945000,-0.125000,1.945000,0.435000,1.395000,0.435000,1.395000,$1*%
G04 Aperture macros list end*
%TA.AperFunction,SMDPad,CuDef*%
%ADD10RoundRect,0.250000X-0.650000X0.325000X-0.650000X-0.325000X0.650000X-0.325000X0.650000X0.325000X0*%
%TD*%
%TA.AperFunction,SMDPad,CuDef*%
%ADD11RoundRect,0.150000X0.587500X0.150000X-0.587500X0.150000X-0.587500X-0.150000X0.587500X-0.150000X0*%
%TD*%
%TA.AperFunction,SMDPad,CuDef*%
%ADD12R,1.500000X1.500000*%
%TD*%
%TA.AperFunction,SMDPad,CuDef*%
%ADD13RoundRect,0.200000X-0.200000X-0.275000X0.200000X-0.275000X0.200000X0.275000X-0.200000X0.275000X0*%
%TD*%
%TA.AperFunction,ComponentPad*%
%ADD14C,1.700000*%
%TD*%
%TA.AperFunction,ComponentPad*%
%ADD15O,1.700000X1.700000*%
%TD*%
%TA.AperFunction,SMDPad,CuDef*%
%ADD16RoundRect,0.150000X-0.725000X-0.150000X0.725000X-0.150000X0.725000X0.150000X-0.725000X0.150000X0*%
%TD*%
%TA.AperFunction,SMDPad,CuDef*%
%ADD17RoundRect,0.200000X0.200000X0.275000X-0.200000X0.275000X-0.200000X-0.275000X0.200000X-0.275000X0*%
%TD*%
%TA.AperFunction,SMDPad,CuDef*%
%ADD18FreePoly0,0.000000*%
%TD*%
%TA.AperFunction,SMDPad,CuDef*%
%ADD19FreePoly1,0.000000*%
%TD*%
%TA.AperFunction,SMDPad,CuDef*%
%ADD20RoundRect,0.243750X0.243750X0.456250X-0.243750X0.456250X-0.243750X-0.456250X0.243750X-0.456250X0*%
%TD*%
%TA.AperFunction,SMDPad,CuDef*%
%ADD21RoundRect,0.243750X-0.243750X-0.456250X0.243750X-0.456250X0.243750X0.456250X-0.243750X0.456250X0*%
%TD*%
%TA.AperFunction,SMDPad,CuDef*%
%ADD22RoundRect,0.225000X0.250000X-0.225000X0.250000X0.225000X-0.250000X0.225000X-0.250000X-0.225000X0*%
%TD*%
%TA.AperFunction,SMDPad,CuDef*%
%ADD23RoundRect,0.150000X-0.587500X-0.150000X0.587500X-0.150000X0.587500X0.150000X-0.587500X0.150000X0*%
%TD*%
%TA.AperFunction,SMDPad,CuDef*%
%ADD24R,0.900000X2.000000*%
%TD*%
%TA.AperFunction,SMDPad,CuDef*%
%ADD25R,1.330000X1.330000*%
%TD*%
%TA.AperFunction,SMDPad,CuDef*%
%ADD26RoundRect,0.200000X0.275000X-0.200000X0.275000X0.200000X-0.275000X0.200000X-0.275000X-0.200000X0*%
%TD*%
%TA.AperFunction,SMDPad,CuDef*%
%ADD27R,1.450000X0.600000*%
%TD*%
%TA.AperFunction,SMDPad,CuDef*%
%ADD28R,1.450000X0.300000*%
%TD*%
%TA.AperFunction,ComponentPad*%
%ADD29O,2.100000X1.000000*%
%TD*%
%TA.AperFunction,ComponentPad*%
%ADD30O,1.600000X1.000000*%
%TD*%
%TA.AperFunction,SMDPad,CuDef*%
%ADD31RoundRect,0.200000X-0.275000X0.200000X-0.275000X-0.200000X0.275000X-0.200000X0.275000X0.200000X0*%
%TD*%
%TA.AperFunction,SMDPad,CuDef*%
%ADD32R,2.700000X1.500000*%
%TD*%
%TA.AperFunction,SMDPad,CuDef*%
%ADD33RoundRect,0.225000X-0.225000X-0.250000X0.225000X-0.250000X0.225000X0.250000X-0.225000X0.250000X0*%
%TD*%
%TA.AperFunction,SMDPad,CuDef*%
%ADD34RoundRect,0.150000X-0.512500X-0.150000X0.512500X-0.150000X0.512500X0.150000X-0.512500X0.150000X0*%
%TD*%
%TA.AperFunction,SMDPad,CuDef*%
%ADD35R,1.200000X1.200000*%
%TD*%
%TA.AperFunction,ViaPad*%
%ADD36C,0.800000*%
%TD*%
%TA.AperFunction,Conductor*%
%ADD37C,0.400000*%
%TD*%
%TA.AperFunction,Conductor*%
%ADD38C,0.300000*%
%TD*%
G04 APERTURE END LIST*
D10*
%TO.P,C2,1*%
%TO.N,+5V*%
X136601200Y-75131400D03*
%TO.P,C2,2*%
%TO.N,GND*%
X136601200Y-78081400D03*
%TD*%
D11*
%TO.P,IC2,1*%
%TO.N,Net-(IC2-Pad1)*%
X140652000Y-100340200D03*
%TO.P,IC2,2*%
%TO.N,RESET*%
X140652000Y-98440200D03*
%TO.P,IC2,3*%
%TO.N,RTS*%
X138777000Y-99390200D03*
%TD*%
D12*
%TO.P,SW1,1,1*%
%TO.N,RESET*%
X128207600Y-64414400D03*
%TO.P,SW1,2,2*%
%TO.N,GND*%
X120407600Y-64414400D03*
%TD*%
D13*
%TO.P,R10,1*%
%TO.N,Net-(D1-K)*%
X119215400Y-94996000D03*
%TO.P,R10,2*%
%TO.N,TX*%
X120865400Y-94996000D03*
%TD*%
D14*
%TO.P,J1,1,Pin_1*%
%TO.N,RX*%
X181100000Y-62800000D03*
D15*
%TO.P,J1,2,Pin_2*%
%TO.N,TX*%
X178560000Y-62800000D03*
%TO.P,J1,3,Pin_3*%
%TO.N,IO4*%
X176020000Y-62800000D03*
%TO.P,J1,4,Pin_4*%
%TO.N,IO13*%
X173480000Y-62800000D03*
%TO.P,J1,5,Pin_5*%
%TO.N,IO15*%
X170940000Y-62800000D03*
%TO.P,J1,6,Pin_6*%
%TO.N,IO18*%
X168400000Y-62800000D03*
%TO.P,J1,7,Pin_7*%
%TO.N,IO19*%
X165860000Y-62800000D03*
%TO.P,J1,8,Pin_8*%
%TO.N,IO21*%
X163320000Y-62800000D03*
%TD*%
D16*
%TO.P,U1,1,GND*%
%TO.N,GND*%
X138106000Y-84023200D03*
%TO.P,U1,2,TXD*%
%TO.N,TX*%
X138106000Y-85293200D03*
%TO.P,U1,3,RXD*%
%TO.N,RX*%
X138106000Y-86563200D03*
%TO.P,U1,4,V3*%
%TO.N,Net-(U1-V3)*%
X138106000Y-87833200D03*
%TO.P,U1,5,UD+*%
%TO.N,D+*%
X138106000Y-89103200D03*
%TO.P,U1,6,UD-*%
%TO.N,D-*%
X138106000Y-90373200D03*
%TO.P,U1,7,NC*%
%TO.N,unconnected-(U1-NC-Pad7)*%
X138106000Y-91643200D03*
%TO.P,U1,8,NC*%
%TO.N,unconnected-(U1-NC-Pad8)*%
X138106000Y-92913200D03*
%TO.P,U1,9,CTS#*%
%TO.N,unconnected-(U1-CTS#-Pad9)*%
X143256000Y-92913200D03*
%TO.P,U1,10,DSR#*%
%TO.N,unconnected-(U1-DSR#-Pad10)*%
X143256000Y-91643200D03*
%TO.P,U1,11,RI#*%
%TO.N,unconnected-(U1-RI#-Pad11)*%
X143256000Y-90373200D03*
%TO.P,U1,12,DCD#*%
%TO.N,unconnected-(U1-DCD#-Pad12)*%
X143256000Y-89103200D03*
%TO.P,U1,13,DTR#*%
%TO.N,DTR*%
X143256000Y-87833200D03*
%TO.P,U1,14,RTS#*%
%TO.N,RTS*%
X143256000Y-86563200D03*
%TO.P,U1,15,R232*%
%TO.N,unconnected-(U1-R232-Pad15)*%
X143256000Y-85293200D03*
%TO.P,U1,16,VCC*%
%TO.N,+3.3V*%
X143256000Y-84023200D03*
%TD*%
D17*
%TO.P,R5,1*%
%TO.N,DTR*%
X143966200Y-100355400D03*
%TO.P,R5,2*%
%TO.N,Net-(IC2-Pad1)*%
X142316200Y-100355400D03*
%TD*%
D14*
%TO.P,J2,1,Pin_1*%
%TO.N,IO22*%
X159500000Y-62800000D03*
D15*
%TO.P,J2,2,Pin_2*%
%TO.N,IO23*%
X156960000Y-62800000D03*
%TO.P,J2,3,Pin_3*%
%TO.N,IO5*%
X154420000Y-62800000D03*
%TO.P,J2,4,Pin_4*%
%TO.N,IO12*%
X151880000Y-62800000D03*
%TO.P,J2,5,Pin_5*%
%TO.N,IO14*%
X149340000Y-62800000D03*
%TO.P,J2,6,Pin_6*%
%TO.N,IO27*%
X146800000Y-62800000D03*
%TO.P,J2,7,Pin_7*%
%TO.N,GND*%
X144260000Y-62800000D03*
%TO.P,J2,8,Pin_8*%
%TO.N,+3.3V*%
X141720000Y-62800000D03*
%TD*%
D18*
%TO.P,L1,1,1*%
%TO.N,Net-(D3-K)*%
X138392200Y-71729600D03*
D19*
%TO.P,L1,2,2*%
%TO.N,+3.3V*%
X141922200Y-71729600D03*
%TD*%
D20*
%TO.P,D5,1,K*%
%TO.N,Net-(D5-K)*%
X149324300Y-76606400D03*
%TO.P,D5,2,A*%
%TO.N,+3.3V*%
X147449300Y-76606400D03*
%TD*%
D21*
%TO.P,D2,1,K*%
%TO.N,Net-(D2-K)*%
X119204500Y-80568800D03*
%TO.P,D2,2,A*%
%TO.N,+5V*%
X121079500Y-80568800D03*
%TD*%
D14*
%TO.P,J4,1,Pin_1*%
%TO.N,RESET*%
X148160000Y-111100000D03*
D15*
%TO.P,J4,2,Pin_2*%
%TO.N,Net-(J4-Pin_2)*%
X150700000Y-111100000D03*
%TO.P,J4,3,Pin_3*%
X153240000Y-111100000D03*
%TO.P,J4,4,Pin_4*%
%TO.N,+3.3V*%
X155780000Y-111100000D03*
%TO.P,J4,5,Pin_5*%
X158320000Y-111100000D03*
%TO.P,J4,6,Pin_6*%
%TO.N,GND*%
X160860000Y-111100000D03*
%TO.P,J4,7,Pin_7*%
X163400000Y-111100000D03*
%TD*%
D22*
%TO.P,C1,1*%
%TO.N,Net-(U1-V3)*%
X136312200Y-86669000D03*
%TO.P,C1,2*%
%TO.N,GND*%
X136312200Y-85119000D03*
%TD*%
D23*
%TO.P,IC3,1*%
%TO.N,Net-(IC3-Pad1)*%
X145658100Y-98455400D03*
%TO.P,IC3,2*%
%TO.N,IO0*%
X145658100Y-100355400D03*
%TO.P,IC3,3*%
%TO.N,DTR*%
X147533100Y-99405400D03*
%TD*%
D24*
%TO.P,IC1,1,GND_1*%
%TO.N,GND*%
X179147000Y-83616000D03*
%TO.P,IC1,2,VDD33*%
%TO.N,+3.3V*%
X177877000Y-83616000D03*
%TO.P,IC1,3,EN*%
%TO.N,RESET*%
X176607000Y-83616000D03*
%TO.P,IC1,4,SENSOR_VP*%
%TO.N,IO36*%
X175337000Y-83616000D03*
%TO.P,IC1,5,SENSOR_VN*%
%TO.N,IO39*%
X174067000Y-83616000D03*
%TO.P,IC1,6,IO34*%
%TO.N,IO34*%
X172797000Y-83616000D03*
%TO.P,IC1,7,IO35*%
%TO.N,IO35*%
X171527000Y-83616000D03*
%TO.P,IC1,8,IO32*%
%TO.N,IO32*%
X170257000Y-83616000D03*
%TO.P,IC1,9,IO33*%
%TO.N,IO33*%
X168987000Y-83616000D03*
%TO.P,IC1,10,IO25*%
%TO.N,IO25*%
X167717000Y-83616000D03*
%TO.P,IC1,11,IO26*%
%TO.N,IO26*%
X166447000Y-83616000D03*
%TO.P,IC1,12,IO27*%
%TO.N,IO27*%
X165177000Y-83616000D03*
%TO.P,IC1,13,IO14*%
%TO.N,IO14*%
X163907000Y-83616000D03*
%TO.P,IC1,14,IO12*%
%TO.N,IO12*%
X162637000Y-83616000D03*
%TO.P,IC1,15,GND_2*%
%TO.N,GND*%
X161367000Y-83616000D03*
%TO.P,IC1,16,IO13*%
%TO.N,IO13*%
X160097000Y-83616000D03*
%TO.P,IC1,17,SD2*%
%TO.N,unconnected-(IC1-SD2-Pad17)*%
X158827000Y-83616000D03*
%TO.P,IC1,18,SD3*%
%TO.N,unconnected-(IC1-SD3-Pad18)*%
X157557000Y-83616000D03*
%TO.P,IC1,19,CMD*%
%TO.N,unconnected-(IC1-CMD-Pad19)*%
X156287000Y-83616000D03*
%TO.P,IC1,20,CLK*%
%TO.N,unconnected-(IC1-CLK-Pad20)*%
X156287000Y-100616000D03*
%TO.P,IC1,21,SD0*%
%TO.N,unconnected-(IC1-SD0-Pad21)*%
X157557000Y-100616000D03*
%TO.P,IC1,22,SD1*%
%TO.N,unconnected-(IC1-SD1-Pad22)*%
X158827000Y-100616000D03*
%TO.P,IC1,23,IO15*%
%TO.N,IO15*%
X160097000Y-100616000D03*
%TO.P,IC1,24,IO2*%
%TO.N,IO2*%
X161367000Y-100616000D03*
%TO.P,IC1,25,IO0*%
%TO.N,IO0*%
X162637000Y-100616000D03*
%TO.P,IC1,26,IO4*%
%TO.N,IO4*%
X163907000Y-100616000D03*
%TO.P,IC1,27,NC_1*%
%TO.N,unconnected-(IC1-NC_1-Pad27)*%
X165177000Y-100616000D03*
%TO.P,IC1,28,NC_2*%
%TO.N,unconnected-(IC1-NC_2-Pad28)*%
X166447000Y-100616000D03*
%TO.P,IC1,29,IO5*%
%TO.N,IO5*%
X167717000Y-100616000D03*
%TO.P,IC1,30,IO18*%
%TO.N,IO18*%
X168987000Y-100616000D03*
%TO.P,IC1,31,IO19*%
%TO.N,IO19*%
X170257000Y-100616000D03*
%TO.P,IC1,32,NC_3*%
%TO.N,unconnected-(IC1-NC_3-Pad32)*%
X171527000Y-100616000D03*
%TO.P,IC1,33,IO21*%
%TO.N,IO21*%
X172797000Y-100616000D03*
%TO.P,IC1,34,RXD0*%
%TO.N,TX*%
X174067000Y-100616000D03*
%TO.P,IC1,35,TXD0*%
%TO.N,RX*%
X175337000Y-100616000D03*
%TO.P,IC1,36,IO22*%
%TO.N,IO22*%
X176607000Y-100616000D03*
%TO.P,IC1,37,IO23*%
%TO.N,IO23*%
X177877000Y-100616000D03*
%TO.P,IC1,38,GND_3*%
%TO.N,GND*%
X179147000Y-100616000D03*
D25*
%TO.P,IC1,39,GND_4*%
X173482000Y-89281000D03*
%TO.P,IC1,40,GND_5*%
X171647000Y-89281000D03*
%TO.P,IC1,41,GND_6*%
X169812000Y-89281000D03*
%TO.P,IC1,42,GND_7*%
X169812000Y-91116000D03*
%TO.P,IC1,43,GND_8*%
X169812000Y-92951000D03*
%TO.P,IC1,44,GND_9*%
X171647000Y-92951000D03*
%TO.P,IC1,45,GND_10*%
X173482000Y-92951000D03*
%TO.P,IC1,46,GND_11*%
X173482000Y-91116000D03*
%TO.P,IC1,47,GND_12*%
X171647000Y-91116000D03*
%TD*%
D26*
%TO.P,R14,1*%
%TO.N,Net-(J6-CC1)*%
X127762000Y-85356200D03*
%TO.P,R14,2*%
%TO.N,GND*%
X127762000Y-83706200D03*
%TD*%
D27*
%TO.P,J6,A1,GND*%
%TO.N,GND*%
X125780800Y-83700000D03*
%TO.P,J6,A4,VBUS*%
%TO.N,+5V*%
X125780800Y-84500000D03*
D28*
%TO.P,J6,A5,CC1*%
%TO.N,Net-(J6-CC1)*%
X125780800Y-85700000D03*
%TO.P,J6,A6,D+*%
%TO.N,D+*%
X125780800Y-86700000D03*
%TO.P,J6,A7,D-*%
%TO.N,D-*%
X125780800Y-87200000D03*
%TO.P,J6,A8,SBU1*%
%TO.N,unconnected-(J6-SBU1-PadA8)*%
X125780800Y-88200000D03*
D27*
%TO.P,J6,A9,VBUS*%
%TO.N,+5V*%
X125780800Y-89400000D03*
%TO.P,J6,A12,GND*%
%TO.N,GND*%
X125780800Y-90200000D03*
%TO.P,J6,B1,GND*%
X125780800Y-90200000D03*
%TO.P,J6,B4,VBUS*%
%TO.N,+5V*%
X125780800Y-89400000D03*
D28*
%TO.P,J6,B5,CC2*%
%TO.N,Net-(J6-CC2)*%
X125780800Y-88700000D03*
%TO.P,J6,B6,D+*%
%TO.N,D+*%
X125780800Y-87700000D03*
%TO.P,J6,B7,D-*%
%TO.N,D-*%
X125780800Y-86200000D03*
%TO.P,J6,B8,SBU2*%
%TO.N,unconnected-(J6-SBU2-PadB8)*%
X125780800Y-85200000D03*
D27*
%TO.P,J6,B9,VBUS*%
%TO.N,+5V*%
X125780800Y-84500000D03*
%TO.P,J6,B12,GND*%
%TO.N,GND*%
X125780800Y-83700000D03*
D29*
%TO.P,J6,S1,SHIELD*%
%TO.N,unconnected-(J6-SHIELD-PadS1)_2*%
X124865800Y-82630000D03*
D30*
%TO.N,unconnected-(J6-SHIELD-PadS1)_1*%
X120685800Y-82630000D03*
D29*
%TO.N,unconnected-(J6-SHIELD-PadS1)*%
X124865800Y-91270000D03*
D30*
%TO.N,unconnected-(J6-SHIELD-PadS1)_3*%
X120685800Y-91270000D03*
%TD*%
D26*
%TO.P,R9,1*%
%TO.N,+5V*%
X133908800Y-78955400D03*
%TO.P,R9,2*%
%TO.N,Net-(U2-EN)*%
X133908800Y-77305400D03*
%TD*%
D17*
%TO.P,R23,1*%
%TO.N,Net-(D5-K)*%
X149364200Y-78333600D03*
%TO.P,R23,2*%
%TO.N,GND*%
X147714200Y-78333600D03*
%TD*%
D13*
%TO.P,R6,1*%
%TO.N,RTS*%
X142316200Y-98425000D03*
%TO.P,R6,2*%
%TO.N,Net-(IC3-Pad1)*%
X143966200Y-98425000D03*
%TD*%
%TO.P,R7,1*%
%TO.N,RESET*%
X142316200Y-97053400D03*
%TO.P,R7,2*%
%TO.N,+3.3V*%
X143966200Y-97053400D03*
%TD*%
D31*
%TO.P,R15,1*%
%TO.N,Net-(J6-CC2)*%
X127762000Y-88583000D03*
%TO.P,R15,2*%
%TO.N,GND*%
X127762000Y-90233000D03*
%TD*%
D10*
%TO.P,C4,1*%
%TO.N,+3.3V*%
X141782800Y-75082400D03*
%TO.P,C4,2*%
%TO.N,GND*%
X141782800Y-78032400D03*
%TD*%
D26*
%TO.P,R12,1*%
%TO.N,+3.3V*%
X132334000Y-79006200D03*
%TO.P,R12,2*%
%TO.N,Net-(U2-FB)*%
X132334000Y-77356200D03*
%TD*%
D32*
%TO.P,D3,1,A*%
%TO.N,GND*%
X139192000Y-79453000D03*
%TO.P,D3,2,K*%
%TO.N,Net-(D3-K)*%
X139192000Y-74931800D03*
%TD*%
D13*
%TO.P,R11,1*%
%TO.N,Net-(D2-K)*%
X119203200Y-78892400D03*
%TO.P,R11,2*%
%TO.N,RX*%
X120853200Y-78892400D03*
%TD*%
%TO.P,R8,1*%
%TO.N,+3.3V*%
X142316200Y-101727000D03*
%TO.P,R8,2*%
%TO.N,IO0*%
X143966200Y-101727000D03*
%TD*%
D33*
%TO.P,C3,1*%
%TO.N,Net-(D4-K)*%
X132638800Y-72999600D03*
%TO.P,C3,2*%
%TO.N,Net-(D3-K)*%
X134188800Y-72999600D03*
%TD*%
D14*
%TO.P,J3,1,Pin_1*%
%TO.N,IO36*%
X181100000Y-111100000D03*
D15*
%TO.P,J3,2,Pin_2*%
%TO.N,IO39*%
X178560000Y-111100000D03*
%TO.P,J3,3,Pin_3*%
%TO.N,IO34*%
X176020000Y-111100000D03*
%TO.P,J3,4,Pin_4*%
%TO.N,IO35*%
X173480000Y-111100000D03*
%TO.P,J3,5,Pin_5*%
%TO.N,IO32*%
X170940000Y-111100000D03*
%TO.P,J3,6,Pin_6*%
%TO.N,IO33*%
X168400000Y-111100000D03*
%TD*%
D34*
%TO.P,U2,1,BS*%
%TO.N,Net-(D4-K)*%
X132314100Y-74256400D03*
%TO.P,U2,2,GND*%
%TO.N,GND*%
X132314100Y-75206400D03*
%TO.P,U2,3,FB*%
%TO.N,Net-(U2-FB)*%
X132314100Y-76156400D03*
%TO.P,U2,4,EN*%
%TO.N,Net-(U2-EN)*%
X134589100Y-76156400D03*
%TO.P,U2,5,IN*%
%TO.N,+5V*%
X134589100Y-75206400D03*
%TO.P,U2,6,SW*%
%TO.N,Net-(D3-K)*%
X134589100Y-74256400D03*
%TD*%
D26*
%TO.P,R13,1*%
%TO.N,Net-(U2-FB)*%
X130810000Y-76872600D03*
%TO.P,R13,2*%
%TO.N,GND*%
X130810000Y-75222600D03*
%TD*%
D21*
%TO.P,D1,1,K*%
%TO.N,Net-(D1-K)*%
X119204500Y-93319600D03*
%TO.P,D1,2,A*%
%TO.N,+5V*%
X121079500Y-93319600D03*
%TD*%
D35*
%TO.P,D4,1,A*%
%TO.N,+3.3V*%
X136550400Y-70075600D03*
%TO.P,D4,2,K*%
%TO.N,Net-(D4-K)*%
X136550400Y-72875600D03*
%TD*%
D36*
%TO.N,GND*%
X139192000Y-78081400D03*
X133604000Y-93370400D03*
X145542000Y-78079600D03*
X154635200Y-95859600D03*
X161391600Y-85191600D03*
X161391600Y-87731600D03*
%TO.N,+3.3V*%
X131165600Y-78333600D03*
X153670000Y-97078800D03*
X141273800Y-101727000D03*
X135156400Y-70075600D03*
X144982200Y-97053400D03*
%TO.N,+5V*%
X136601200Y-76504800D03*
X128778000Y-86969600D03*
X132130800Y-94640400D03*
%TO.N,RESET*%
X142316200Y-95910400D03*
X153365200Y-86106000D03*
X128219200Y-65786000D03*
%TO.N,IO39*%
X174091600Y-85242400D03*
%TO.N,IO36*%
X175361600Y-85242400D03*
%TO.N,IO34*%
X172821600Y-85242400D03*
%TO.N,IO35*%
X171500800Y-85242400D03*
%TO.N,IO32*%
X170230800Y-85242400D03*
%TO.N,IO33*%
X169011600Y-85242400D03*
%TO.N,IO25*%
X167741600Y-85293200D03*
%TO.N,IO26*%
X166471600Y-85293200D03*
%TO.N,IO27*%
X165177000Y-85242400D03*
%TO.N,IO14*%
X163931600Y-85191600D03*
X149340000Y-68834000D03*
%TO.N,IO12*%
X162661600Y-85191600D03*
X151880000Y-72999600D03*
%TO.N,IO13*%
X160121600Y-85191600D03*
%TO.N,IO15*%
X154228800Y-70612000D03*
X160070800Y-98958400D03*
%TO.N,IO2*%
X161391600Y-99009200D03*
%TO.N,IO0*%
X162661600Y-98958400D03*
X151790400Y-99263200D03*
%TO.N,IO4*%
X163880800Y-98958400D03*
X155295600Y-70612000D03*
%TO.N,IO5*%
X167741600Y-98958400D03*
%TO.N,IO18*%
X160223200Y-68732400D03*
X169011600Y-98958400D03*
%TO.N,IO19*%
X170281600Y-98958400D03*
X162204400Y-67716400D03*
%TO.N,IO21*%
X172821600Y-98958400D03*
%TO.N,TX*%
X139852400Y-85293200D03*
X174091600Y-98958400D03*
X121970800Y-94996000D03*
%TO.N,RX*%
X121869200Y-78943200D03*
X139852400Y-86563200D03*
X175310800Y-98958400D03*
%TO.N,IO22*%
X178409600Y-69088000D03*
X176580800Y-98958400D03*
%TO.N,IO23*%
X179273200Y-69951600D03*
X177901600Y-98958400D03*
%TO.N,RTS*%
X138785600Y-98247200D03*
X138785600Y-95961200D03*
%TO.N,D+*%
X127762000Y-87512403D03*
X139649200Y-89103200D03*
%TO.N,D-*%
X127762000Y-86512400D03*
X139649200Y-90373200D03*
%TD*%
D37*
%TO.N,Net-(U1-V3)*%
X136804400Y-87833200D02*
X136312200Y-87341000D01*
X136312200Y-87341000D02*
X136312200Y-86669000D01*
X138106000Y-87833200D02*
X136804400Y-87833200D01*
%TO.N,GND*%
X138106000Y-82112000D02*
X138106000Y-84023200D01*
X127762000Y-90233000D02*
X127729000Y-90200000D01*
X169519600Y-87731600D02*
X161391600Y-87731600D01*
X147714200Y-79185000D02*
X147714200Y-78333600D01*
X161367000Y-83616000D02*
X161367000Y-85167000D01*
X139192000Y-81026000D02*
X138106000Y-82112000D01*
X169812000Y-89281000D02*
X173482000Y-89281000D01*
X139192000Y-78081400D02*
X141733800Y-78081400D01*
X129743200Y-78841600D02*
X131064000Y-80162400D01*
X131978400Y-81838800D02*
X131978400Y-80162400D01*
X130302000Y-89458800D02*
X129946400Y-89814400D01*
X127729000Y-90200000D02*
X125780800Y-90200000D01*
X130048000Y-89814400D02*
X129946400Y-89814400D01*
X173482000Y-89281000D02*
X173482000Y-92951000D01*
X146507200Y-78079600D02*
X145542000Y-78079600D01*
X169812000Y-92951000D02*
X173482000Y-92951000D01*
X127762000Y-83706200D02*
X129527800Y-83706200D01*
X130810000Y-75222600D02*
X130111000Y-75222600D01*
X129819400Y-83997800D02*
X130302000Y-84480400D01*
X161367000Y-85167000D02*
X161391600Y-85191600D01*
X129527800Y-83706200D02*
X129819400Y-83997800D01*
X179147000Y-89281000D02*
X173482000Y-89281000D01*
X120407600Y-64414400D02*
X123190000Y-64414400D01*
X179147000Y-100616000D02*
X179147000Y-83616000D01*
X148336000Y-79806800D02*
X147714200Y-79185000D01*
X169812000Y-89281000D02*
X169812000Y-88024000D01*
X129527800Y-90233000D02*
X127762000Y-90233000D01*
X154635200Y-92456000D02*
X154635200Y-104875200D01*
X131978400Y-80162400D02*
X135483600Y-80162400D01*
X160860000Y-111100000D02*
X163400000Y-111100000D01*
X136601200Y-79044800D02*
X136601200Y-78081400D01*
X161391600Y-87731600D02*
X159359600Y-87731600D01*
X171647000Y-89281000D02*
X171647000Y-92951000D01*
X159359600Y-87731600D02*
X154635200Y-92456000D01*
X139192000Y-79453000D02*
X139192000Y-78081400D01*
X136312200Y-84566200D02*
X136855200Y-84023200D01*
X133604000Y-93370400D02*
X130048000Y-89814400D01*
X129946400Y-89814400D02*
X129527800Y-90233000D01*
X154635200Y-104875200D02*
X160860000Y-111100000D01*
X136855200Y-84023200D02*
X138106000Y-84023200D01*
X123190000Y-64414400D02*
X130810000Y-72034400D01*
X131064000Y-80162400D02*
X131978400Y-80162400D01*
X135483600Y-80162400D02*
X136601200Y-79044800D01*
X161367000Y-81458600D02*
X159715200Y-79806800D01*
X147714200Y-78333600D02*
X146761200Y-78333600D01*
X179147000Y-83616000D02*
X179147000Y-89281000D01*
X129819400Y-83997800D02*
X131978400Y-81838800D01*
X169812000Y-89281000D02*
X169812000Y-92951000D01*
X169812000Y-88024000D02*
X169519600Y-87731600D01*
X161367000Y-83616000D02*
X161367000Y-81458600D01*
X141733800Y-78081400D02*
X141782800Y-78032400D01*
X125780800Y-83700000D02*
X127755800Y-83700000D01*
X136312200Y-85119000D02*
X136312200Y-84566200D01*
X129743200Y-75590400D02*
X129743200Y-78841600D01*
X146761200Y-78333600D02*
X146507200Y-78079600D01*
X130111000Y-75222600D02*
X129743200Y-75590400D01*
X132314100Y-75206400D02*
X130826200Y-75206400D01*
X130810000Y-72034400D02*
X130810000Y-75222600D01*
X130302000Y-84480400D02*
X130302000Y-89458800D01*
X130826200Y-75206400D02*
X130810000Y-75222600D01*
X159715200Y-79806800D02*
X148336000Y-79806800D01*
X136601200Y-78081400D02*
X139192000Y-78081400D01*
X139192000Y-79453000D02*
X139192000Y-81026000D01*
X169812000Y-91116000D02*
X173482000Y-91116000D01*
%TO.N,Net-(D4-K)*%
X132314100Y-74256400D02*
X132314100Y-73324300D01*
X132638800Y-71983600D02*
X132638800Y-72999600D01*
X135353600Y-71678800D02*
X132943600Y-71678800D01*
X132943600Y-71678800D02*
X132638800Y-71983600D01*
X136550400Y-72875600D02*
X135353600Y-71678800D01*
X136550400Y-73028000D02*
X136550400Y-72875600D01*
X132314100Y-73324300D02*
X132638800Y-72999600D01*
%TO.N,Net-(D3-K)*%
X137210800Y-74015600D02*
X138392200Y-72834200D01*
X138988800Y-74728600D02*
X139192000Y-74931800D01*
X134589100Y-74256400D02*
X134589100Y-73399900D01*
X138392200Y-72834200D02*
X138392200Y-71729600D01*
X138392200Y-71729600D02*
X138392200Y-72758600D01*
X134829900Y-74015600D02*
X137210800Y-74015600D01*
X138392200Y-72758600D02*
X138988800Y-73355200D01*
X134589100Y-74256400D02*
X134829900Y-74015600D01*
X134589100Y-73399900D02*
X134188800Y-72999600D01*
X138988800Y-73355200D02*
X138988800Y-74728600D01*
%TO.N,+3.3V*%
X153670000Y-108990000D02*
X155780000Y-111100000D01*
X153670000Y-91643200D02*
X155295600Y-90017600D01*
X141922200Y-70751400D02*
X140411200Y-69240400D01*
X143256000Y-84023200D02*
X149606000Y-84023200D01*
X137385600Y-69240400D02*
X140411200Y-69240400D01*
X147449300Y-76606400D02*
X143510000Y-76606400D01*
X143966200Y-97053400D02*
X144982200Y-97053400D01*
X142316200Y-101727000D02*
X141273800Y-101727000D01*
X132334000Y-79006200D02*
X131838200Y-79006200D01*
X143256000Y-80924400D02*
X143256000Y-84023200D01*
X135156400Y-70075600D02*
X136550400Y-70075600D01*
X158496000Y-86817200D02*
X176225200Y-86817200D01*
X176225200Y-86817200D02*
X177877000Y-85165400D01*
X141720000Y-62800000D02*
X141720000Y-66966400D01*
X143510000Y-75641200D02*
X143510000Y-76606400D01*
X141720000Y-66966400D02*
X140411200Y-68275200D01*
X143510000Y-76606400D02*
X143510000Y-80670400D01*
X141922200Y-71729600D02*
X141922200Y-70751400D01*
X177877000Y-85165400D02*
X177877000Y-83616000D01*
X131838200Y-79006200D02*
X131165600Y-78333600D01*
X141376400Y-73304400D02*
X141376400Y-74676000D01*
X142951200Y-75082400D02*
X143510000Y-75641200D01*
X141376400Y-74676000D02*
X141782800Y-75082400D01*
X141782800Y-75082400D02*
X142951200Y-75082400D01*
X153670000Y-97078800D02*
X153670000Y-91643200D01*
X149606000Y-84023200D02*
X155448000Y-89865200D01*
X136550400Y-70075600D02*
X137385600Y-69240400D01*
X140411200Y-68275200D02*
X140411200Y-69240400D01*
X155295600Y-90017600D02*
X158496000Y-86817200D01*
X143510000Y-80670400D02*
X143256000Y-80924400D01*
X153670000Y-97078800D02*
X153670000Y-108990000D01*
X141922200Y-72758600D02*
X141376400Y-73304400D01*
X158320000Y-111100000D02*
X155780000Y-111100000D01*
X141922200Y-71729600D02*
X141922200Y-72758600D01*
%TO.N,Net-(D1-K)*%
X119204500Y-94985100D02*
X119215400Y-94996000D01*
X119204500Y-93319600D02*
X119204500Y-94985100D01*
%TO.N,Net-(D2-K)*%
X119204500Y-78893700D02*
X119203200Y-78892400D01*
X119204500Y-80568800D02*
X119204500Y-78893700D01*
%TO.N,+5V*%
X124991816Y-89400000D02*
X124644216Y-89052400D01*
X122529600Y-84836000D02*
X122529600Y-82018900D01*
X125780800Y-89400000D02*
X124991816Y-89400000D01*
X121079500Y-93319600D02*
X130810000Y-93319600D01*
X130810000Y-93319600D02*
X132130800Y-94640400D01*
X124702400Y-84836000D02*
X122529600Y-84836000D01*
X134589100Y-75206400D02*
X136526200Y-75206400D01*
X125787000Y-84506200D02*
X128499000Y-84506200D01*
X134607800Y-78955400D02*
X134924800Y-78638400D01*
X128499000Y-84506200D02*
X128778000Y-84785200D01*
X128778000Y-84785200D02*
X128778000Y-89001600D01*
X122529600Y-93319600D02*
X122529600Y-89052400D01*
X135991600Y-76504800D02*
X136601200Y-76504800D01*
X134924800Y-77571600D02*
X135991600Y-76504800D01*
X122529600Y-89052400D02*
X122529600Y-84836000D01*
X128379600Y-89400000D02*
X125780800Y-89400000D01*
X133908800Y-78955400D02*
X134607800Y-78955400D01*
X136601200Y-75131400D02*
X136601200Y-76504800D01*
X136526200Y-75206400D02*
X136601200Y-75131400D01*
X121079500Y-93319600D02*
X122529600Y-93319600D01*
X125038400Y-84500000D02*
X124702400Y-84836000D01*
X125780800Y-84500000D02*
X125038400Y-84500000D01*
X128778000Y-89001600D02*
X128379600Y-89400000D01*
X122529600Y-82018900D02*
X121079500Y-80568800D01*
X125780800Y-84500000D02*
X125787000Y-84506200D01*
X134924800Y-78638400D02*
X134924800Y-77571600D01*
X124644216Y-89052400D02*
X122529600Y-89052400D01*
%TO.N,RESET*%
X176607000Y-83616000D02*
X176607000Y-85128371D01*
X176607000Y-85128371D02*
X175629371Y-86106000D01*
X140652000Y-97600000D02*
X140652000Y-98440200D01*
X142316200Y-97053400D02*
X142316200Y-95910400D01*
X175629371Y-86106000D02*
X157581600Y-86106000D01*
X142316200Y-95885000D02*
X142290800Y-95859600D01*
X141198600Y-97053400D02*
X140652000Y-97600000D01*
X142316200Y-95910400D02*
X142316200Y-95885000D01*
X128207600Y-65774400D02*
X128219200Y-65786000D01*
X157581600Y-86106000D02*
X153365200Y-86106000D01*
X128207600Y-64414400D02*
X128207600Y-65774400D01*
X142316200Y-97053400D02*
X141198600Y-97053400D01*
%TO.N,IO39*%
X174067000Y-83616000D02*
X174067000Y-85217800D01*
X174067000Y-85217800D02*
X174091600Y-85242400D01*
%TO.N,IO36*%
X175337000Y-85217800D02*
X175361600Y-85242400D01*
X175337000Y-83616000D02*
X175337000Y-85217800D01*
%TO.N,IO34*%
X172797000Y-83616000D02*
X172797000Y-85217800D01*
X172797000Y-85217800D02*
X172821600Y-85242400D01*
%TO.N,IO35*%
X171527000Y-83616000D02*
X171527000Y-85216200D01*
X171527000Y-85216200D02*
X171500800Y-85242400D01*
%TO.N,IO32*%
X170257000Y-83616000D02*
X170257000Y-85216200D01*
X170257000Y-85216200D02*
X170230800Y-85242400D01*
%TO.N,IO33*%
X168987000Y-83616000D02*
X168987000Y-85217800D01*
X168987000Y-85217800D02*
X169011600Y-85242400D01*
%TO.N,IO25*%
X167717000Y-83616000D02*
X167717000Y-85268600D01*
X167717000Y-85268600D02*
X167741600Y-85293200D01*
%TO.N,IO26*%
X166447000Y-83616000D02*
X166447000Y-85268600D01*
X166447000Y-85268600D02*
X166471600Y-85293200D01*
%TO.N,IO27*%
X165177000Y-85167000D02*
X165177000Y-83616000D01*
X153517600Y-71577200D02*
X146800000Y-64859600D01*
X146800000Y-64859600D02*
X146800000Y-62800000D01*
X165177000Y-83616000D02*
X165177000Y-73940200D01*
X165177000Y-73940200D02*
X162814000Y-71577200D01*
X162814000Y-71577200D02*
X153517600Y-71577200D01*
%TO.N,IO14*%
X153251600Y-72745600D02*
X162102800Y-72745600D01*
X149340000Y-68834000D02*
X153251600Y-72745600D01*
X162102800Y-72745600D02*
X163907000Y-74549800D01*
X163907000Y-83616000D02*
X163907000Y-85167000D01*
X163907000Y-74549800D02*
X163907000Y-83616000D01*
X163907000Y-85167000D02*
X163931600Y-85191600D01*
%TO.N,IO12*%
X152692800Y-73812400D02*
X161594800Y-73812400D01*
X151880000Y-72999600D02*
X152692800Y-73812400D01*
X162637000Y-74854600D02*
X162637000Y-83616000D01*
X161594800Y-73812400D02*
X162637000Y-74854600D01*
X162637000Y-85167000D02*
X162661600Y-85191600D01*
X162637000Y-83616000D02*
X162637000Y-85167000D01*
%TO.N,IO13*%
X160097000Y-83616000D02*
X160097000Y-85167000D01*
X160097000Y-85167000D02*
X160121600Y-85191600D01*
%TO.N,Net-(D5-K)*%
X149364200Y-76646300D02*
X149324300Y-76606400D01*
X149364200Y-78333600D02*
X149364200Y-76646300D01*
%TO.N,Net-(J4-Pin_2)*%
X153240000Y-111100000D02*
X150700000Y-111100000D01*
%TO.N,IO15*%
X160097000Y-100616000D02*
X160097000Y-98984600D01*
X155078629Y-69697600D02*
X164042400Y-69697600D01*
X164042400Y-69697600D02*
X170940000Y-62800000D01*
X160097000Y-98984600D02*
X160070800Y-98958400D01*
X154228800Y-70612000D02*
X154228800Y-70547429D01*
X154228800Y-70547429D02*
X155078629Y-69697600D01*
%TO.N,IO2*%
X161367000Y-99033800D02*
X161391600Y-99009200D01*
X161367000Y-100616000D02*
X161367000Y-99033800D01*
%TO.N,IO0*%
X143966200Y-101727000D02*
X145020800Y-101727000D01*
X145658100Y-101089700D02*
X145658100Y-100355400D01*
X151790400Y-99263200D02*
X150698200Y-100355400D01*
X162637000Y-100616000D02*
X162637000Y-98983000D01*
X150698200Y-100355400D02*
X145658100Y-100355400D01*
X162637000Y-98983000D02*
X162661600Y-98958400D01*
X145020800Y-101727000D02*
X145658100Y-101089700D01*
%TO.N,IO4*%
X168208000Y-70612000D02*
X176020000Y-62800000D01*
X155295600Y-70612000D02*
X168208000Y-70612000D01*
X163907000Y-100616000D02*
X163907000Y-98984600D01*
X163907000Y-98984600D02*
X163880800Y-98958400D01*
%TO.N,IO5*%
X167717000Y-98983000D02*
X167741600Y-98958400D01*
X167717000Y-100616000D02*
X167717000Y-98983000D01*
%TO.N,IO18*%
X162467600Y-68732400D02*
X168400000Y-62800000D01*
X160223200Y-68732400D02*
X162467600Y-68732400D01*
X168987000Y-98983000D02*
X169011600Y-98958400D01*
X168987000Y-100616000D02*
X168987000Y-98983000D01*
%TO.N,IO19*%
X170257000Y-100616000D02*
X170257000Y-98983000D01*
X162204400Y-67716400D02*
X162204400Y-66455600D01*
X162204400Y-66455600D02*
X165860000Y-62800000D01*
X170257000Y-98983000D02*
X170281600Y-98958400D01*
%TO.N,IO21*%
X172797000Y-100616000D02*
X172797000Y-98983000D01*
X172797000Y-98983000D02*
X172821600Y-98958400D01*
%TO.N,TX*%
X121970800Y-94996000D02*
X120865400Y-94996000D01*
X139852400Y-85293200D02*
X138106000Y-85293200D01*
X174067000Y-98983000D02*
X174091600Y-98958400D01*
X174067000Y-100616000D02*
X174067000Y-98983000D01*
%TO.N,RX*%
X139852400Y-86563200D02*
X138106000Y-86563200D01*
X120904000Y-78943200D02*
X120853200Y-78892400D01*
X175310800Y-98958400D02*
X175310800Y-100589800D01*
X121869200Y-78943200D02*
X120904000Y-78943200D01*
X175310800Y-100589800D02*
X175337000Y-100616000D01*
%TO.N,IO22*%
X176607000Y-100616000D02*
X176607000Y-98984600D01*
X176607000Y-98984600D02*
X176580800Y-98958400D01*
%TO.N,IO23*%
X177877000Y-100616000D02*
X177877000Y-98983000D01*
X177877000Y-98983000D02*
X177901600Y-98958400D01*
%TO.N,Net-(IC2-Pad1)*%
X142301000Y-100340200D02*
X142316200Y-100355400D01*
X140652000Y-100340200D02*
X142301000Y-100340200D01*
%TO.N,RTS*%
X141935200Y-86563200D02*
X141376400Y-87122000D01*
X143256000Y-86563200D02*
X141935200Y-86563200D01*
X141376400Y-93370400D02*
X138785600Y-95961200D01*
X138777000Y-99390200D02*
X138777000Y-98255800D01*
X141376400Y-87122000D02*
X141376400Y-93370400D01*
X138777000Y-99390200D02*
X141351000Y-99390200D01*
X138777000Y-98255800D02*
X138785600Y-98247200D01*
X141351000Y-99390200D02*
X142316200Y-98425000D01*
%TO.N,Net-(IC3-Pad1)*%
X143996600Y-98455400D02*
X143966200Y-98425000D01*
X145658100Y-98455400D02*
X143996600Y-98455400D01*
%TO.N,DTR*%
X147533100Y-99405400D02*
X144916200Y-99405400D01*
X147522200Y-99416300D02*
X147533100Y-99405400D01*
X146050000Y-87833200D02*
X143256000Y-87833200D01*
X147533100Y-98409500D02*
X147523200Y-98399600D01*
X144916200Y-99405400D02*
X143966200Y-100355400D01*
X147523200Y-89306400D02*
X146050000Y-87833200D01*
X147533100Y-99405400D02*
X147533100Y-98409500D01*
X147523200Y-98399600D02*
X147523200Y-89306400D01*
D38*
%TO.N,D+*%
X127027506Y-87700000D02*
X127215103Y-87512403D01*
D37*
X138106000Y-89103200D02*
X139649200Y-89103200D01*
D38*
X127215103Y-87512403D02*
X127762000Y-87512403D01*
X124561600Y-87477600D02*
X124561600Y-87020400D01*
X124561600Y-87020400D02*
X124882000Y-86700000D01*
X125780800Y-87700000D02*
X127027506Y-87700000D01*
X125780800Y-87700000D02*
X124784000Y-87700000D01*
X124882000Y-86700000D02*
X125780800Y-86700000D01*
X124784000Y-87700000D02*
X124561600Y-87477600D01*
%TO.N,D-*%
X127101600Y-86918800D02*
X126820400Y-87200000D01*
X126890800Y-86200000D02*
X127101600Y-86410800D01*
X127762000Y-86512400D02*
X127152400Y-86512400D01*
X127101600Y-86715600D02*
X127101600Y-86918800D01*
X125780800Y-86200000D02*
X126890800Y-86200000D01*
X126820400Y-87200000D02*
X125780800Y-87200000D01*
X127152400Y-86512400D02*
X127101600Y-86563200D01*
X127101600Y-86410800D02*
X127101600Y-86715600D01*
D37*
X138106000Y-90373200D02*
X139649200Y-90373200D01*
D38*
%TO.N,Net-(J6-CC1)*%
X126796400Y-85700000D02*
X127140200Y-85356200D01*
X127140200Y-85356200D02*
X127762000Y-85356200D01*
X125780800Y-85700000D02*
X126796400Y-85700000D01*
%TO.N,Net-(J6-CC2)*%
X127645000Y-88700000D02*
X127762000Y-88583000D01*
X125780800Y-88700000D02*
X127645000Y-88700000D01*
D37*
%TO.N,Net-(U2-EN)*%
X134589100Y-76625100D02*
X133908800Y-77305400D01*
X134589100Y-76156400D02*
X134589100Y-76625100D01*
%TO.N,Net-(U2-FB)*%
X132314100Y-77336300D02*
X132334000Y-77356200D01*
X132314100Y-76156400D02*
X132314100Y-77336300D01*
X132334000Y-77356200D02*
X131293600Y-77356200D01*
X131293600Y-77356200D02*
X130810000Y-76872600D01*
%TD*%
M02*
