%TF.GenerationSoftware,KiCad,Pcbnew,8.0.5*%
%TF.CreationDate,2024-12-12T18:20:32+01:00*%
%TF.ProjectId,Arduino_ESP,41726475-696e-46f5-9f45-53502e6b6963,rev?*%
%TF.SameCoordinates,Original*%
%TF.FileFunction,Soldermask,Top*%
%TF.FilePolarity,Negative*%
%FSLAX46Y46*%
G04 Gerber Fmt 4.6, Leading zero omitted, Abs format (unit mm)*
G04 Created by KiCad (PCBNEW 8.0.5) date 2024-12-12 18:20:32*
%MOMM*%
%LPD*%
G01*
G04 APERTURE LIST*
G04 Aperture macros list*
%AMRoundRect*
0 Rectangle with rounded corners*
0 $1 Rounding radius*
0 $2 $3 $4 $5 $6 $7 $8 $9 X,Y pos of 4 corners*
0 Add a 4 corners polygon primitive as box body*
4,1,4,$2,$3,$4,$5,$6,$7,$8,$9,$2,$3,0*
0 Add four circle primitives for the rounded corners*
1,1,$1+$1,$2,$3*
1,1,$1+$1,$4,$5*
1,1,$1+$1,$6,$7*
1,1,$1+$1,$8,$9*
0 Add four rect primitives between the rounded corners*
20,1,$1+$1,$2,$3,$4,$5,0*
20,1,$1+$1,$4,$5,$6,$7,0*
20,1,$1+$1,$6,$7,$8,$9,0*
20,1,$1+$1,$8,$9,$2,$3,0*%
%AMFreePoly0*
4,1,11,1.015000,1.170000,0.435000,0.575000,0.435000,-0.575000,1.015000,-1.170000,1.015000,-1.945000,0.125000,-1.945000,-0.435000,-1.395000,-0.435000,1.395000,0.125000,1.945000,1.015000,1.945000,1.015000,1.170000,1.015000,1.170000,$1*%
%AMFreePoly1*
4,1,11,0.435000,1.395000,0.435000,-1.395000,-0.125000,-1.945000,-1.015000,-1.945000,-1.015000,-1.170000,-0.435000,-0.575000,-0.435000,0.575000,-1.015000,1.170000,-1.015000,1.945000,-0.125000,1.945000,0.435000,1.395000,0.435000,1.395000,$1*%
G04 Aperture macros list end*
%ADD10RoundRect,0.250000X-0.650000X0.325000X-0.650000X-0.325000X0.650000X-0.325000X0.650000X0.325000X0*%
%ADD11RoundRect,0.150000X0.587500X0.150000X-0.587500X0.150000X-0.587500X-0.150000X0.587500X-0.150000X0*%
%ADD12R,1.500000X1.500000*%
%ADD13RoundRect,0.200000X-0.200000X-0.275000X0.200000X-0.275000X0.200000X0.275000X-0.200000X0.275000X0*%
%ADD14C,1.700000*%
%ADD15O,1.700000X1.700000*%
%ADD16RoundRect,0.150000X-0.725000X-0.150000X0.725000X-0.150000X0.725000X0.150000X-0.725000X0.150000X0*%
%ADD17RoundRect,0.200000X0.200000X0.275000X-0.200000X0.275000X-0.200000X-0.275000X0.200000X-0.275000X0*%
%ADD18FreePoly0,0.000000*%
%ADD19FreePoly1,0.000000*%
%ADD20RoundRect,0.243750X0.243750X0.456250X-0.243750X0.456250X-0.243750X-0.456250X0.243750X-0.456250X0*%
%ADD21RoundRect,0.243750X-0.243750X-0.456250X0.243750X-0.456250X0.243750X0.456250X-0.243750X0.456250X0*%
%ADD22RoundRect,0.225000X0.250000X-0.225000X0.250000X0.225000X-0.250000X0.225000X-0.250000X-0.225000X0*%
%ADD23RoundRect,0.150000X-0.587500X-0.150000X0.587500X-0.150000X0.587500X0.150000X-0.587500X0.150000X0*%
%ADD24R,0.900000X2.000000*%
%ADD25R,1.330000X1.330000*%
%ADD26RoundRect,0.200000X0.275000X-0.200000X0.275000X0.200000X-0.275000X0.200000X-0.275000X-0.200000X0*%
%ADD27C,0.650000*%
%ADD28R,1.450000X0.600000*%
%ADD29R,1.450000X0.300000*%
%ADD30O,2.100000X1.000000*%
%ADD31O,1.600000X1.000000*%
%ADD32RoundRect,0.200000X-0.275000X0.200000X-0.275000X-0.200000X0.275000X-0.200000X0.275000X0.200000X0*%
%ADD33R,2.700000X1.500000*%
%ADD34RoundRect,0.225000X-0.225000X-0.250000X0.225000X-0.250000X0.225000X0.250000X-0.225000X0.250000X0*%
%ADD35RoundRect,0.150000X-0.512500X-0.150000X0.512500X-0.150000X0.512500X0.150000X-0.512500X0.150000X0*%
%ADD36R,1.200000X1.200000*%
G04 APERTURE END LIST*
D10*
%TO.C,C2*%
X136601200Y-75131400D03*
X136601200Y-78081400D03*
%TD*%
D11*
%TO.C,IC2*%
X140652000Y-100340200D03*
X140652000Y-98440200D03*
X138777000Y-99390200D03*
%TD*%
D12*
%TO.C,SW1*%
X128207600Y-64414400D03*
X120407600Y-64414400D03*
%TD*%
D13*
%TO.C,R10*%
X119215400Y-94996000D03*
X120865400Y-94996000D03*
%TD*%
D14*
%TO.C,J1*%
X181100000Y-62800000D03*
D15*
X178560000Y-62800000D03*
X176020000Y-62800000D03*
X173480000Y-62800000D03*
X170940000Y-62800000D03*
X168400000Y-62800000D03*
X165860000Y-62800000D03*
X163320000Y-62800000D03*
%TD*%
D16*
%TO.C,U1*%
X138106000Y-84023200D03*
X138106000Y-85293200D03*
X138106000Y-86563200D03*
X138106000Y-87833200D03*
X138106000Y-89103200D03*
X138106000Y-90373200D03*
X138106000Y-91643200D03*
X138106000Y-92913200D03*
X143256000Y-92913200D03*
X143256000Y-91643200D03*
X143256000Y-90373200D03*
X143256000Y-89103200D03*
X143256000Y-87833200D03*
X143256000Y-86563200D03*
X143256000Y-85293200D03*
X143256000Y-84023200D03*
%TD*%
D17*
%TO.C,R5*%
X143966200Y-100355400D03*
X142316200Y-100355400D03*
%TD*%
D14*
%TO.C,J2*%
X159500000Y-62800000D03*
D15*
X156960000Y-62800000D03*
X154420000Y-62800000D03*
X151880000Y-62800000D03*
X149340000Y-62800000D03*
X146800000Y-62800000D03*
X144260000Y-62800000D03*
X141720000Y-62800000D03*
%TD*%
D18*
%TO.C,L1*%
X138392200Y-71729600D03*
D19*
X141922200Y-71729600D03*
%TD*%
D20*
%TO.C,D5*%
X149324300Y-76606400D03*
X147449300Y-76606400D03*
%TD*%
D21*
%TO.C,D2*%
X119204500Y-80568800D03*
X121079500Y-80568800D03*
%TD*%
D14*
%TO.C,J4*%
X148160000Y-111100000D03*
D15*
X150700000Y-111100000D03*
X153240000Y-111100000D03*
X155780000Y-111100000D03*
X158320000Y-111100000D03*
X160860000Y-111100000D03*
X163400000Y-111100000D03*
%TD*%
D22*
%TO.C,C1*%
X136312200Y-86669000D03*
X136312200Y-85119000D03*
%TD*%
D23*
%TO.C,IC3*%
X145658100Y-98455400D03*
X145658100Y-100355400D03*
X147533100Y-99405400D03*
%TD*%
D24*
%TO.C,IC1*%
X179147000Y-83616000D03*
X177877000Y-83616000D03*
X176607000Y-83616000D03*
X175337000Y-83616000D03*
X174067000Y-83616000D03*
X172797000Y-83616000D03*
X171527000Y-83616000D03*
X170257000Y-83616000D03*
X168987000Y-83616000D03*
X167717000Y-83616000D03*
X166447000Y-83616000D03*
X165177000Y-83616000D03*
X163907000Y-83616000D03*
X162637000Y-83616000D03*
X161367000Y-83616000D03*
X160097000Y-83616000D03*
X158827000Y-83616000D03*
X157557000Y-83616000D03*
X156287000Y-83616000D03*
X156287000Y-100616000D03*
X157557000Y-100616000D03*
X158827000Y-100616000D03*
X160097000Y-100616000D03*
X161367000Y-100616000D03*
X162637000Y-100616000D03*
X163907000Y-100616000D03*
X165177000Y-100616000D03*
X166447000Y-100616000D03*
X167717000Y-100616000D03*
X168987000Y-100616000D03*
X170257000Y-100616000D03*
X171527000Y-100616000D03*
X172797000Y-100616000D03*
X174067000Y-100616000D03*
X175337000Y-100616000D03*
X176607000Y-100616000D03*
X177877000Y-100616000D03*
X179147000Y-100616000D03*
D25*
X173482000Y-89281000D03*
X171647000Y-89281000D03*
X169812000Y-89281000D03*
X169812000Y-91116000D03*
X169812000Y-92951000D03*
X171647000Y-92951000D03*
X173482000Y-92951000D03*
X173482000Y-91116000D03*
X171647000Y-91116000D03*
%TD*%
D26*
%TO.C,R14*%
X127762000Y-85356200D03*
X127762000Y-83706200D03*
%TD*%
D27*
%TO.C,J6*%
X124335800Y-84060000D03*
X124335800Y-89840000D03*
D28*
X125780800Y-83700000D03*
X125780800Y-84500000D03*
D29*
X125780800Y-85700000D03*
X125780800Y-86700000D03*
X125780800Y-87200000D03*
X125780800Y-88200000D03*
D28*
X125780800Y-89400000D03*
X125780800Y-90200000D03*
X125780800Y-90200000D03*
X125780800Y-89400000D03*
D29*
X125780800Y-88700000D03*
X125780800Y-87700000D03*
X125780800Y-86200000D03*
X125780800Y-85200000D03*
D28*
X125780800Y-84500000D03*
X125780800Y-83700000D03*
D30*
X124865800Y-82630000D03*
D31*
X120685800Y-82630000D03*
D30*
X124865800Y-91270000D03*
D31*
X120685800Y-91270000D03*
%TD*%
D26*
%TO.C,R9*%
X133908800Y-78955400D03*
X133908800Y-77305400D03*
%TD*%
D17*
%TO.C,R23*%
X149364200Y-78333600D03*
X147714200Y-78333600D03*
%TD*%
D13*
%TO.C,R6*%
X142316200Y-98425000D03*
X143966200Y-98425000D03*
%TD*%
%TO.C,R7*%
X142316200Y-97053400D03*
X143966200Y-97053400D03*
%TD*%
D32*
%TO.C,R15*%
X127762000Y-88583000D03*
X127762000Y-90233000D03*
%TD*%
D10*
%TO.C,C4*%
X141782800Y-75082400D03*
X141782800Y-78032400D03*
%TD*%
D26*
%TO.C,R12*%
X132334000Y-79006200D03*
X132334000Y-77356200D03*
%TD*%
D33*
%TO.C,D3*%
X139192000Y-79453000D03*
X139192000Y-74931800D03*
%TD*%
D13*
%TO.C,R11*%
X119203200Y-78892400D03*
X120853200Y-78892400D03*
%TD*%
%TO.C,R8*%
X142316200Y-101727000D03*
X143966200Y-101727000D03*
%TD*%
D34*
%TO.C,C3*%
X132638800Y-72999600D03*
X134188800Y-72999600D03*
%TD*%
D14*
%TO.C,J3*%
X181100000Y-111100000D03*
D15*
X178560000Y-111100000D03*
X176020000Y-111100000D03*
X173480000Y-111100000D03*
X170940000Y-111100000D03*
X168400000Y-111100000D03*
%TD*%
D35*
%TO.C,U2*%
X132314100Y-74256400D03*
X132314100Y-75206400D03*
X132314100Y-76156400D03*
X134589100Y-76156400D03*
X134589100Y-75206400D03*
X134589100Y-74256400D03*
%TD*%
D26*
%TO.C,R13*%
X130810000Y-76872600D03*
X130810000Y-75222600D03*
%TD*%
D21*
%TO.C,D1*%
X119204500Y-93319600D03*
X121079500Y-93319600D03*
%TD*%
D36*
%TO.C,D4*%
X136550400Y-70075600D03*
X136550400Y-72875600D03*
%TD*%
M02*
